<svg width="24" height="25" viewBox="0 0 24 25" fill="none" xmlns="http://www.w3.org/2000/svg">
<g clip-path="url(#clip0_427_541)">
<path d="M11 4.09375H4C3.46957 4.09375 2.96086 4.30446 2.58579 4.67954C2.21071 5.05461 2 5.56332 2 6.09375V20.0938C2 20.6242 2.21071 21.1329 2.58579 21.508C2.96086 21.883 3.46957 22.0938 4 22.0938H18C18.5304 22.0938 19.0391 21.883 19.4142 21.508C19.7893 21.1329 20 20.6242 20 20.0938V13.0938" stroke="white" stroke-width="2" stroke-linecap="round" stroke-linejoin="round"/>
<path d="M18.5 2.59398C18.8978 2.19615 19.4374 1.97266 20 1.97266C20.5626 1.97266 21.1022 2.19615 21.5 2.59398C21.8978 2.9918 22.1213 3.53137 22.1213 4.09398C22.1213 4.65659 21.8978 5.19615 21.5 5.59398L12 15.094L8 16.094L9 12.094L18.5 2.59398Z" stroke="white" stroke-width="2" stroke-linecap="round" stroke-linejoin="round"/>
</g>
<defs>
<clipPath id="clip0_427_541">
<path d="M0 0.09375H24V20.0938C24 22.3029 22.2091 24.0938 20 24.0938H0V0.09375Z" fill="white"/>
</clipPath>
</defs>
</svg>
