<svg width="24" height="25" viewBox="0 0 24 25" fill="none" xmlns="http://www.w3.org/2000/svg">
<path d="M14 2.80859H6C5.46957 2.80859 4.96086 3.01896 4.58579 3.39341C4.21071 3.76786 4 4.27573 4 4.80528V20.7788C4 21.3083 4.21071 21.8162 4.58579 22.1907C4.96086 22.5651 5.46957 22.7755 6 22.7755H18C18.5304 22.7755 19.0391 22.5651 19.4142 22.1907C19.7893 21.8162 20 21.3083 20 20.7788V8.79866L14 2.80859Z" stroke="white" stroke-width="2" stroke-linecap="round" stroke-linejoin="round"/>
<path d="M14 2.80859V8.79866H20" stroke="white" stroke-width="2" stroke-linecap="round" stroke-linejoin="round"/>
<path d="M16 13.7891H8" stroke="white" stroke-width="2" stroke-linecap="round" stroke-linejoin="round"/>
<path d="M16 17.7852H8" stroke="white" stroke-width="2" stroke-linecap="round" stroke-linejoin="round"/>
<path d="M10 9.79688H9H8" stroke="white" stroke-width="2" stroke-linecap="round" stroke-linejoin="round"/>
</svg>
