<svg width="18" height="18" viewBox="0 0 18 18" fill="none" xmlns="http://www.w3.org/2000/svg">
<path d="M10.375 17.25H7.625C7.26033 17.25 6.91059 17.1051 6.65273 16.8473C6.39487 16.5894 6.25 16.2397 6.25 15.875V10.6569L1.15563 5.5625C0.897409 5.30582 0.751535 4.95721 0.75 4.59313V2.125C0.75 1.76033 0.894866 1.41059 1.15273 1.15273C1.41059 0.894866 1.76033 0.75 2.125 0.75H15.875C16.2397 0.75 16.5894 0.894866 16.8473 1.15273C17.1051 1.41059 17.25 1.76033 17.25 2.125V4.59313C17.2485 4.95721 17.1026 5.30582 16.8444 5.5625L11.75 10.6569V15.875C11.75 16.2397 11.6051 16.5894 11.3473 16.8473C11.0894 17.1051 10.7397 17.25 10.375 17.25ZM2.125 2.125V4.59313L7.625 10.0931V15.875H10.375V10.0931L15.875 4.59313V2.125H2.125Z" fill="#767777"/>
</svg>
