<svg width="24" height="25" viewBox="0 0 24 25" fill="none" xmlns="http://www.w3.org/2000/svg">
<path d="M3 18.69V12.6999C3 10.3169 3.94821 8.03155 5.63604 6.34652C7.32387 4.66149 9.61305 3.71484 12 3.71484C14.3869 3.71484 16.6761 4.66149 18.364 6.34652C20.0518 8.03155 21 10.3169 21 12.6999V18.69" stroke="white" stroke-width="2" stroke-linecap="round" stroke-linejoin="round"/>
<path d="M21 19.687C21 20.2166 20.7893 20.7245 20.4142 21.0989C20.0391 21.4734 19.5304 21.6837 19 21.6837H18C17.4696 21.6837 16.9609 21.4734 16.5858 21.0989C16.2107 20.7245 16 20.2166 16 19.687V16.692C16 16.1624 16.2107 15.6546 16.5858 15.2801C16.9609 14.9057 17.4696 14.6953 18 14.6953H21V19.687ZM3 19.687C3 20.2166 3.21071 20.7245 3.58579 21.0989C3.96086 21.4734 4.46957 21.6837 5 21.6837H6C6.53043 21.6837 7.03914 21.4734 7.41421 21.0989C7.78929 20.7245 8 20.2166 8 19.687V16.692C8 16.1624 7.78929 15.6546 7.41421 15.2801C7.03914 14.9057 6.53043 14.6953 6 14.6953H3V19.687Z" stroke="white" stroke-width="2" stroke-linecap="round" stroke-linejoin="round"/>
</svg>
