<svg width="44" height="44" viewBox="0 0 44 44" fill="none" xmlns="http://www.w3.org/2000/svg">
<g clip-path="url(#clip0_373_130)">
<g filter="url(#filter0_d_373_130)">
<circle cx="22" cy="22" r="21.5" stroke="white" shape-rendering="crispEdges"/>
</g>
<path d="M25.5197 18.48C26.9201 18.48 28.2631 19.0363 29.2533 20.0265C30.2435 21.0166 30.7997 22.3596 30.7997 23.76V29.92H27.2797V23.76C27.2797 23.2932 27.0943 22.8455 26.7643 22.5155C26.4342 22.1854 25.9865 22 25.5197 22C25.053 22 24.6053 22.1854 24.2752 22.5155C23.9452 22.8455 23.7597 23.2932 23.7597 23.76V29.92H20.2397V23.76C20.2397 22.3596 20.796 21.0166 21.7862 20.0265C22.7764 19.0363 24.1194 18.48 25.5197 18.48V18.48Z" stroke="white" stroke-width="2" stroke-linecap="round" stroke-linejoin="round"/>
<path d="M16.7197 19.3599H13.1997V29.9199H16.7197V19.3599Z" stroke="white" stroke-width="2" stroke-linecap="round" stroke-linejoin="round"/>
<path d="M14.9597 16.72C15.9317 16.72 16.7197 15.932 16.7197 14.96C16.7197 13.9879 15.9317 13.2 14.9597 13.2C13.9877 13.2 13.1997 13.9879 13.1997 14.96C13.1997 15.932 13.9877 16.72 14.9597 16.72Z" stroke="white" stroke-width="2" stroke-linecap="round" stroke-linejoin="round"/>
</g>
<defs>
<filter id="filter0_d_373_130" x="-7" y="-7" width="58" height="58" filterUnits="userSpaceOnUse" color-interpolation-filters="sRGB">
<feFlood flood-opacity="0" result="BackgroundImageFix"/>
<feColorMatrix in="SourceAlpha" type="matrix" values="0 0 0 0 0 0 0 0 0 0 0 0 0 0 0 0 0 0 127 0" result="hardAlpha"/>
<feMorphology radius="3" operator="dilate" in="SourceAlpha" result="effect1_dropShadow_373_130"/>
<feOffset/>
<feGaussianBlur stdDeviation="2"/>
<feComposite in2="hardAlpha" operator="out"/>
<feColorMatrix type="matrix" values="0 0 0 0 1 0 0 0 0 1 0 0 0 0 1 0 0 0 0.25 0"/>
<feBlend mode="normal" in2="BackgroundImageFix" result="effect1_dropShadow_373_130"/>
<feBlend mode="normal" in="SourceGraphic" in2="effect1_dropShadow_373_130" result="shape"/>
</filter>
<clipPath id="clip0_373_130">
<rect width="44" height="44" fill="white"/>
</clipPath>
</defs>
</svg>
