<svg width="365" height="786" viewBox="0 0 365 786" fill="none" xmlns="http://www.w3.org/2000/svg">
<path opacity="0.05" d="M136.226 190.515C143.726 194.77 150.856 199.529 157.587 204.798C164.171 210.257 170.339 216.284 176.102 222.853C181.704 229.682 186.909 237.084 191.747 245.039C196.449 253.265 200.823 262.041 204.89 271.317C208.882 280.836 212.604 290.827 216.09 301.226C219.529 311.797 222.747 322.706 225.728 333.879C228.667 345.085 231.345 356.462 233.723 367.88C235.983 379.179 237.849 390.397 239.246 401.409C240.393 412.101 240.952 422.453 240.808 432.341C240.255 441.729 238.893 450.532 236.636 458.673C233.877 466.219 230.164 473.062 225.496 479.177C220.368 484.771 214.359 489.726 207.529 494.123C200.509 498.24 192.894 502.025 184.848 505.626C177.03 509.359 169.105 513.223 161.239 517.366C154.069 522.101 147.256 527.406 140.918 533.39C135.581 540.25 130.831 547.901 126.662 556.325C123.422 565.585 120.66 575.227 118.198 585.08C116.19 595.33 114.093 605.427 111.751 615.16C109.282 624.769 106.212 633.681 102.443 641.726C98.1384 649.24 92.9549 655.69 86.9028 661.025C80.178 665.623 72.6076 669.066 64.3308 671.374C55.4898 672.982 46.1039 673.54 36.3593 673.132C26.3169 672.193 16.1492 670.425 6.02353 667.909C-4.10609 665.079 -14.0104 661.64 -23.5538 657.668C-32.8843 653.566 -41.7662 649.044 -50.1401 644.157C-58.23 639.298 -65.8323 634.163 -72.9392 628.782C-79.8478 623.591 -86.3761 618.23 -92.5836 612.764C-98.768 607.617 -104.803 602.449 -110.755 597.308C-116.896 592.617 -123.132 588.044 -129.53 583.611C-136.306 579.744 -143.367 576.061 -150.736 572.602C-158.572 569.701 -166.75 566.994 -175.239 564.448C-184.137 562.356 -193.271 560.315 -202.545 558.231C-212.033 556.383 -221.248 554.34 -230.095 552.032C-238.87 549.658 -247.073 546.82 -254.624 543.484C-261.865 539.842 -268.317 535.588 -273.934 530.712C-279.103 525.417 -283.389 519.486 -286.784 512.961C-289.712 506.01 -291.782 498.53 -293.023 490.593C-293.874 482.314 -293.991 473.683 -293.412 464.783C-292.594 455.658 -291.201 446.369 -289.304 436.998C-287.319 427.503 -284.939 418.006 -282.236 408.549C-279.593 399.038 -276.714 389.596 -273.653 380.283C-270.769 370.929 -267.767 361.681 -264.67 352.58C-261.814 343.415 -258.901 334.374 -255.932 325.454C-253.204 316.473 -250.421 307.601 -247.537 298.855C-244.875 290.053 -242.075 281.375 -239.11 272.857C-236.272 264.309 -233.198 255.937 -229.849 247.788C-226.518 239.66 -222.829 231.782 -218.759 224.211C-214.59 216.729 -209.958 209.592 -204.847 202.839C-199.558 196.245 -193.862 190.22 -187.81 184.766C-181.56 179.49 -174.955 174.773 -168.049 170.624C-160.992 166.611 -153.669 163.136 -146.154 160.179C-138.56 157.305 -130.821 154.92 -123.014 152.989C-115.224 151.078 -107.413 149.58 -99.6311 148.485C-91.9584 147.34 -84.3613 146.543 -76.8769 146.111C-69.5375 145.548 -62.3186 145.318 -55.2525 145.403C-48.3209 145.32 -41.5111 145.545 -34.8305 146.059C-28.2414 146.383 -21.7248 146.999 -15.2694 147.883C-8.84309 148.573 -2.40946 149.521 4.0387 150.743C10.5441 151.743 17.1261 153.003 23.7904 154.516C30.5746 155.803 37.4912 157.34 44.5338 159.121C51.7219 160.688 59.0491 162.511 66.4969 164.597C74.0864 166.513 81.7721 168.706 89.5191 171.229C97.3662 173.627 105.227 176.395 113.052 179.572C120.882 182.718 128.619 186.353 136.214 190.515" stroke="url(#paint0_linear_801_10)" stroke-width="2" stroke-linecap="round"/>
<path opacity="0.09" d="M145.598 211.748C152.606 216.356 159.236 221.439 165.469 227.004C171.561 232.742 177.229 239 182.494 245.77C187.592 252.764 192.279 260.289 196.574 268.327C200.721 276.595 204.502 285.364 207.949 294.591C211.273 304.022 214.282 313.881 216.997 324.086C219.621 334.426 221.952 345.05 223.991 355.87C225.924 366.693 227.535 377.618 228.776 388.53C229.87 399.288 230.527 409.901 230.687 420.255C230.603 430.278 229.917 439.908 228.576 449.024C226.868 457.67 224.417 465.702 221.171 473.06C217.507 479.86 213.035 485.974 207.742 491.378C202.099 496.318 195.728 500.655 188.695 504.461C181.546 508.07 173.927 511.37 165.972 514.501C158.264 517.824 150.479 521.284 142.764 525.008C135.659 529.339 128.864 534.209 122.466 539.706C116.917 546.07 111.844 553.158 107.248 560.957C103.446 569.578 100.064 578.546 96.9606 587.687C94.264 597.237 91.5327 606.624 88.6447 615.657C85.6831 624.6 82.2759 632.865 78.3381 640.299C73.9953 647.237 68.9562 653.147 63.247 657.954C56.9859 662.074 50.0621 665.035 42.5627 666.877C34.5867 668.02 26.1655 668.114 17.4485 667.213C8.4526 665.78 -0.653445 663.493 -9.73972 660.447C-18.8701 657.062 -27.8139 653.053 -36.4725 648.523C-45.0031 643.845 -53.1566 638.766 -60.8839 633.337C-68.43 627.943 -75.558 622.305 -82.2688 616.474C-88.8637 610.827 -95.1244 605.067 -101.115 599.256C-107.142 593.751 -113.025 588.267 -118.827 582.841C-124.857 577.843 -130.964 572.97 -137.2 568.245C-143.814 564.021 -150.663 559.974 -157.76 556.13C-165.311 552.773 -173.147 549.581 -181.218 546.528C-189.684 543.869 -198.326 541.245 -207.037 538.589C-215.971 536.135 -224.595 533.543 -232.821 530.751C-240.989 527.916 -248.593 524.721 -255.519 521.131C-262.178 517.294 -268.05 512.971 -273.099 508.147C-277.728 502.981 -281.488 497.296 -284.375 491.139C-286.817 484.613 -288.411 477.638 -289.183 470.302C-289.585 462.646 -289.249 454.684 -288.238 446.502C-286.979 438.08 -285.152 429.505 -282.823 420.851C-280.39 412.036 -277.562 403.196 -274.408 394.375C-271.296 385.447 -267.953 376.567 -264.417 367.771C-261.03 358.885 -257.532 350.077 -253.942 341.389C-250.563 332.597 -247.123 323.906 -243.629 315.336C-240.358 306.661 -237.04 298.1 -233.636 289.678C-230.425 281.172 -227.098 272.812 -223.623 264.629C-220.267 256.414 -216.708 248.396 -212.914 240.633C-209.128 232.902 -205.04 225.458 -200.612 218.352C-196.093 211.355 -191.179 204.741 -185.834 198.56C-180.329 192.546 -174.49 187.133 -168.349 182.315C-162.035 177.688 -155.424 173.649 -148.56 170.191C-141.549 166.887 -134.34 164.132 -126.966 161.906C-119.517 159.769 -111.959 158.129 -104.352 156.936C-96.7515 155.773 -89.1459 155.012 -81.5912 154.645C-74.1109 154.227 -66.7117 154.146 -59.4314 154.401C-52.2553 154.522 -45.2163 154.949 -38.314 155.655C-31.5277 156.189 -24.8652 156.991 -18.3203 158.054C-11.8595 158.915 -5.47205 160.02 0.835756 161.373C7.1412 162.508 13.4237 163.873 19.7017 165.49C26.0467 166.869 32.4312 168.494 38.8805 170.352C45.4466 171.986 52.1089 173.847 58.8608 175.967C65.7606 177.871 72.7561 180.039 79.8471 182.472C87.0727 184.739 94.3685 187.295 101.696 190.19C109.113 192.962 116.517 196.115 123.877 199.669C131.236 203.211 138.494 207.221 145.591 211.742" stroke="url(#paint1_linear_801_10)" stroke-width="2" stroke-linecap="round" stroke-dasharray="2 3"/>
<path opacity="0.13" d="M153.148 233.664C159.647 238.582 165.766 243.956 171.488 249.755C177.058 255.717 182.209 262.145 186.947 269.046C191.498 276.138 195.641 283.71 199.367 291.736C202.924 299.961 206.095 308.636 208.885 317.7C211.529 326.932 213.813 336.523 215.751 346.405C217.555 356.375 219.013 366.566 220.125 376.884C221.095 387.183 221.684 397.511 221.879 407.754C221.886 417.83 221.446 427.702 220.499 437.258C219.311 446.485 217.544 455.283 215.171 463.537C212.472 471.346 209.116 478.538 205.059 485.056C200.668 491.08 195.581 496.438 189.819 501.113C183.806 505.407 177.196 509.138 170.049 512.382C162.859 515.489 155.295 518.331 147.48 521.024C139.908 523.953 132.287 527.016 124.737 530.344C117.724 534.285 110.963 538.72 104.529 543.726C98.8063 549.581 93.4723 556.094 88.5347 563.246C84.2505 571.192 80.3484 579.442 76.7043 587.835C73.4197 596.643 70.1553 605.296 66.7969 613.588C63.4294 621.842 59.7425 629.438 55.6725 636.245C51.3006 642.623 46.4191 648.005 41.0334 652.329C35.2195 656.018 28.8944 658.586 22.1321 660.051C14.9812 660.859 7.47716 660.609 -0.242575 659.385C-8.21667 657.621 -16.2847 655 -24.3352 651.613C-32.4558 647.88 -40.4258 643.512 -48.1609 638.623C-55.8442 633.575 -63.2083 628.122 -70.2293 622.347C-77.1572 616.586 -83.744 610.597 -89.9646 604.452C-96.1745 598.471 -102.101 592.415 -107.786 586.33C-113.572 580.538 -119.242 574.788 -124.844 569.119C-130.699 563.824 -136.617 558.663 -142.63 553.662C-149.04 549.086 -155.63 544.695 -162.424 540.476C-169.651 536.677 -177.106 533.021 -184.735 529.501C-192.746 526.3 -200.867 523.146 -209.013 519.976C-217.361 516.965 -225.388 513.882 -233 510.66C-240.572 507.415 -247.561 503.902 -253.906 500.093C-260.002 496.086 -265.321 491.707 -269.846 486.952C-273.987 481.91 -277.287 476.464 -279.73 470.647C-281.766 464.513 -282.973 458.032 -283.38 451.25C-283.439 444.178 -282.773 436.868 -281.441 429.359C-279.862 421.621 -277.718 413.743 -275.075 405.784C-272.328 397.645 -269.187 389.466 -265.707 381.292C-262.245 372.971 -258.546 364.671 -254.651 356.426C-250.883 348.057 -246.981 339.738 -242.993 331.507C-239.182 323.148 -235.296 314.865 -231.363 306.693C-227.621 298.403 -223.825 290.219 -219.966 282.166C-216.256 274.031 -212.459 266.042 -208.547 258.245C-204.72 250.416 -200.724 242.816 -196.531 235.479C-192.336 228.186 -187.885 221.198 -183.148 214.595C-178.324 208.094 -173.161 202.013 -167.635 196.392C-161.956 190.955 -156.016 186.132 -149.836 181.928C-143.497 177.927 -136.928 174.519 -130.165 171.701C-123.26 169.053 -116.203 166.959 -109.023 165.399C-101.764 163.934 -94.4353 162.965 -87.0896 162.445C-79.7212 161.952 -72.37 161.867 -65.0827 162.148C-57.8362 162.393 -50.681 162.957 -43.6477 163.832C-36.685 164.58 -29.8476 165.607 -23.1526 166.892C-16.5364 168.001 -10.0421 169.35 -3.67453 170.92C2.65404 172.293 8.88777 173.883 15.0471 175.674C21.2127 177.252 27.3402 179.047 33.4557 181.049C39.6354 182.823 45.8406 184.807 52.0758 187.021C58.4319 189.006 64.843 191.222 71.3216 193.671C77.9428 195.931 84.6304 198.436 91.3754 201.217C98.2415 203.839 105.145 206.753 112.069 209.997C119.059 213.139 126.022 216.65 132.906 220.564C139.792 224.452 146.556 228.801 153.142 233.657" stroke="url(#paint2_linear_801_10)" stroke-width="2" stroke-linecap="round" stroke-dasharray="5 6"/>
<path opacity="0.16" d="M158.681 255.957C164.649 261.147 170.241 266.74 175.427 272.725C180.466 278.839 185.073 285.386 189.261 292.335C193.258 299.444 196.823 306.986 199.966 314.91C202.923 323.001 205.459 331.463 207.592 340.261C209.553 349.183 211.124 358.398 212.3 367.823C213.313 377.311 213.948 386.941 214.186 396.628C214.262 406.258 213.931 415.854 213.172 425.312C212.22 434.58 210.807 443.603 208.907 452.256C206.763 460.603 204.098 468.486 200.86 475.82C197.365 482.738 193.273 489.059 188.59 494.714C183.645 499.946 178.117 504.539 172.028 508.509C165.774 512.161 159.03 515.302 151.869 518.002C144.705 520.638 137.259 523.051 129.619 525.331C122.214 527.89 114.786 530.586 107.415 533.525C100.512 537.066 93.8145 541.072 87.3776 545.589C81.5333 550.925 76.0018 556.844 70.7852 563.334C66.1195 570.585 61.7862 578.099 57.7082 585.724C53.9369 593.772 50.2253 601.646 46.4961 609.194C42.7813 616.73 38.8731 623.652 34.7149 629.836C30.343 635.649 25.6129 640.528 20.5344 644.412C15.1306 647.711 9.35637 649.954 3.27758 651.126C-3.11528 651.683 -9.75877 651.228 -16.5578 649.802C-23.5734 647.866 -30.649 645.076 -37.6923 641.529C-44.8305 637.624 -51.8501 633.097 -58.6638 628.038C-65.4818 622.807 -72.057 617.17 -78.3395 611.213C-84.6025 605.251 -90.5958 599.073 -96.2994 592.751C-102.037 586.563 -107.563 580.32 -112.895 574.057C-118.376 568.044 -123.77 562.089 -129.109 556.225C-134.716 550.686 -140.382 545.278 -146.135 540.02C-152.266 535.134 -158.555 530.407 -165.005 525.85C-171.865 521.635 -178.894 517.563 -186.061 513.603C-193.577 509.917 -201.158 506.278 -208.714 502.642C-216.476 499.145 -223.89 495.615 -230.894 492.018C-237.856 488.401 -244.262 484.601 -250.028 480.611C-255.584 476.458 -260.393 472.038 -264.434 467.347C-268.138 462.411 -271.021 457.188 -273.091 451.683C-274.795 445.913 -275.693 439.865 -275.826 433.604C-275.625 427.078 -274.726 420.354 -273.173 413.473C-271.395 406.375 -269.051 399.152 -266.213 391.856C-263.261 384.368 -259.903 376.837 -256.218 369.289C-252.525 361.571 -248.573 353.863 -244.436 346.184C-240.376 338.353 -236.181 330.557 -231.881 322.815C-227.725 314.936 -223.489 307.121 -219.196 299.385C-215.063 291.534 -210.862 283.776 -206.619 276.153C-202.496 268.44 -198.282 260.881 -193.975 253.528C-189.743 246.131 -185.366 238.98 -180.813 232.117C-176.274 225.296 -171.507 218.804 -166.512 212.703C-161.428 206.725 -156.064 201.179 -150.398 196.126C-144.603 191.252 -138.603 187.007 -132.437 183.386C-126.112 179.968 -119.625 177.154 -113.003 174.933C-106.25 172.879 -99.3837 171.389 -92.4431 170.424C-85.4121 169.57 -78.3504 169.197 -71.2909 169.274C-64.2054 169.387 -57.1443 169.889 -50.1622 170.766C-43.1897 171.585 -36.3151 172.737 -29.5552 174.169C-22.8341 175.487 -16.2433 177.063 -9.78403 178.866C-3.36803 180.503 2.93082 182.356 9.10213 184.411C15.2609 186.267 21.3312 188.319 27.317 190.541C33.3294 192.558 39.2996 194.758 45.233 197.15C51.2463 199.319 57.2598 201.685 63.2808 204.243C69.4221 206.604 75.5936 209.174 81.7984 211.97C88.1412 214.58 94.5134 217.442 100.915 220.555C107.429 223.522 113.952 226.789 120.451 230.369C127.019 233.866 133.533 237.708 139.946 241.941C146.353 246.167 152.61 250.82 158.676 255.949" stroke="url(#paint3_linear_801_10)" stroke-width="2" stroke-linecap="round" stroke-dasharray="1 10"/>
<path opacity="0.2" d="M162.026 278.269C167.471 283.673 172.512 289.432 177.151 295.536C181.636 301.745 185.693 308.325 189.309 315.252C192.746 322.311 195.734 329.722 198.287 337.456C200.643 345.312 202.559 353.483 204.051 361.897C205.353 370.408 206.233 379.129 206.7 387.992C206.982 396.876 206.853 405.838 206.316 414.782C205.59 423.656 204.444 432.426 202.869 440.992C201.098 449.378 198.869 457.464 196.171 465.163C193.265 472.563 189.866 479.487 185.962 485.868C181.842 491.884 177.208 497.31 172.064 502.114C166.727 506.559 160.909 510.414 154.635 513.687C148.253 516.735 141.489 519.321 134.394 521.507C127.328 523.707 120.052 525.703 112.624 527.605C105.415 529.81 98.1939 532.147 91.0376 534.706C84.2603 537.874 77.6474 541.441 71.2532 545.477C65.3315 550.274 59.666 555.601 54.2575 561.425C49.2936 567.965 44.6252 574.728 40.2045 581.587C36.0441 588.848 31.9799 595.946 27.9597 602.744C23.9808 609.559 19.9018 615.809 15.6799 621.376C11.3178 626.634 6.74461 631.031 1.94547 634.494C-3.09108 637.457 -8.35618 639.414 -13.8255 640.37C-19.5377 640.768 -25.4006 640.185 -31.3598 638.691C-37.5001 636.704 -43.6579 633.882 -49.7725 630.324C-55.9915 626.414 -62.0924 621.887 -68.036 616.824C-74.0204 611.578 -79.8074 605.927 -85.3578 599.952C-90.9466 593.948 -96.3244 587.73 -101.473 581.359C-106.72 575.101 -111.793 568.767 -116.725 562.428C-121.84 556.297 -126.894 550.212 -131.918 544.212C-137.218 538.488 -142.583 532.878 -148.014 527.413C-153.819 522.254 -159.742 517.24 -165.803 512.376C-172.247 507.801 -178.822 503.35 -185.48 499.002C-192.475 494.885 -199.488 490.821 -206.46 486.773C-213.606 482.833 -220.418 478.925 -226.806 474.994C-233.179 471.054 -239 467.011 -244.222 462.857C-249.254 458.573 -253.581 454.113 -257.179 449.482C-260.478 444.643 -263.003 439.606 -264.757 434.382C-266.172 428.915 -266.83 423.271 -266.76 417.456C-266.38 411.416 -265.326 405.219 -263.649 398.917C-261.745 392.39 -259.293 385.773 -256.356 379.094C-253.295 372.214 -249.832 365.292 -246.036 358.351C-242.205 351.231 -238.12 344.1 -233.819 336.981C-229.576 329.7 -225.17 322.432 -220.659 315.214C-216.246 307.838 -211.742 300.509 -207.181 293.27C-202.729 285.89 -198.216 278.608 -193.651 271.46C-189.174 264.221 -184.631 257.139 -179.993 250.26C-175.413 243.354 -170.711 236.695 -165.878 230.331C-161.037 224.014 -156.025 218.039 -150.804 212.467C-145.528 207.017 -140.011 202.023 -134.254 197.516C-128.375 193.205 -122.358 189.518 -116.241 186.447C-109.977 183.577 -103.61 181.311 -97.1607 179.63C-90.5868 178.133 -83.9467 177.18 -77.2741 176.748C-70.5115 176.428 -63.7446 176.585 -57.0041 177.187C-50.2205 177.824 -43.484 178.856 -36.8273 180.23C-30.1648 181.58 -23.5934 183.236 -17.141 185.154C-10.7006 186.986 -4.37069 189.043 1.81674 191.324C8.00174 193.45 14.0726 195.762 20.0217 198.265C25.992 200.566 31.8679 203.051 37.6504 205.689C43.4907 208.134 49.2742 210.739 55.0131 213.508C60.8324 216.07 66.6409 218.816 72.4414 221.734C78.3486 224.472 84.2694 227.399 90.1935 230.532C96.2457 233.503 102.303 236.7 108.352 240.153C114.509 243.476 120.639 247.076 126.714 250.972C132.849 254.799 138.908 258.956 144.829 263.479C150.754 267.991 156.493 272.909 162.021 278.261" stroke="url(#paint4_linear_801_10)" stroke-width="2" stroke-linecap="round" stroke-dasharray="8 8"/>
<path opacity="0.24" d="M163.107 300.188C168.003 305.763 172.498 311.621 176.578 317.777C180.517 324.007 184.011 330.553 187.067 337.37C189.939 344.294 192.357 351.497 194.332 358.944C196.099 366.491 197.423 374.262 198.307 382.205C198.998 390.22 199.244 398.359 199.063 406.564C198.699 414.764 197.903 422.962 196.681 431.094C195.279 439.13 193.449 447.002 191.193 454.637C188.755 462.078 185.881 469.187 182.567 475.898C179.067 482.335 175.118 488.298 170.728 493.731C166.165 498.835 161.153 503.394 155.729 507.379C150.155 511.062 144.189 514.21 137.858 516.839C131.464 519.311 124.765 521.373 117.808 523.1C110.907 524.876 103.845 526.498 96.6737 528.047C89.6921 529.917 82.7052 531.91 75.7705 534.116C69.1458 536.89 62.656 540.034 56.3417 543.586C50.396 547.856 44.6626 552.586 39.125 557.743C33.9431 563.574 29.0389 569.59 24.3664 575.684C19.9164 582.162 15.5938 588.482 11.3564 594.527C7.16776 600.626 2.97565 606.206 -1.26951 611.172C-5.59545 615.89 -10.03 619.814 -14.5662 622.899C-21.6864 626.406 -36.7266 628.048 -44.5301 626.252C-49.8899 624.319 -55.2316 621.585 -60.5096 618.136C-65.8904 614.34 -71.1653 609.947 -76.2971 605.027C-81.5006 599.915 -86.5426 594.386 -91.3934 588.537C-96.3285 582.641 -101.098 576.508 -105.689 570.221C-110.417 563.996 -115.02 557.704 -119.52 551.379C-124.231 545.225 -128.902 539.09 -133.555 533.026C-138.509 527.19 -143.504 521.447 -148.572 515.832C-153.983 510.458 -159.511 505.206 -165.134 500.095C-171.118 495.214 -177.202 490.446 -183.336 485.775C-189.774 481.284 -196.212 476.853 -202.566 472.448C-209.096 468.146 -215.287 463.896 -221.066 459.688C-226.853 455.465 -232.105 451.21 -236.794 446.919C-241.32 442.522 -245.19 438.019 -248.383 433.429C-251.303 428.675 -253.507 423.795 -254.988 418.803C-256.165 413.61 -256.634 408.295 -256.416 402.878C-255.916 397.252 -254.769 391.525 -253.028 385.725C-251.078 379.714 -248.59 373.641 -245.635 367.521C-242.546 361.2 -239.057 354.838 -235.231 348.47C-231.358 341.905 -227.207 335.335 -222.842 328.772C-218.493 322.027 -213.978 315.294 -209.33 308.602C-204.746 301.753 -200.061 294.941 -195.303 288.21C-190.628 281.343 -185.875 274.566 -181.06 267.925C-176.322 261.195 -171.509 254.627 -166.621 248.258C-161.768 241.879 -156.819 235.739 -151.76 229.902C-146.684 224.117 -141.462 218.685 -136.1 213.651C-130.668 208.75 -125.051 204.292 -119.242 200.335C-113.341 196.569 -107.359 193.413 -101.308 190.861C-95.1495 188.514 -88.9386 186.76 -82.6796 185.572C-76.3175 184.56 -69.9318 184.087 -63.5468 184.126C-57.0758 184.29 -50.6266 184.906 -44.2194 185.955C-37.7635 187.059 -31.3707 188.537 -25.0619 190.349C-18.7295 192.15 -12.486 194.238 -6.36766 196.582C-0.227158 198.854 5.80707 201.343 11.711 204.041C17.6318 206.6 23.4454 209.336 29.1436 212.233C34.8857 214.966 40.536 217.848 46.1022 220.874C51.7239 223.721 57.3012 226.712 62.8142 229.847C68.4225 232.801 73.9945 235.915 79.5461 239.18C85.2053 242.287 90.8564 245.57 96.4759 249.039C102.219 252.363 107.939 255.91 113.625 259.675C119.403 263.332 125.128 267.247 130.767 271.438C136.464 275.568 142.053 280.006 147.479 284.78C152.897 289.539 158.117 294.663 163.103 300.18" stroke="url(#paint5_linear_801_10)" stroke-width="2" stroke-linecap="round" stroke-dasharray="10 3"/>
<path opacity="0.28" d="M161.91 321.316C166.254 326.977 170.202 332.88 173.726 339.009C177.112 345.199 180.058 351.622 182.557 358.26C184.894 364.971 186.76 371.888 188.181 378.983C189.405 386.135 190.181 393.436 190.507 400.838C190.646 408.275 190.341 415.762 189.596 423.239C188.67 430.699 187.314 438.087 185.54 445.34C183.588 452.496 181.214 459.442 178.437 466.11C175.49 472.591 172.135 478.738 168.371 484.465C164.45 489.942 160.133 494.963 155.44 499.482C150.594 503.719 145.38 507.451 139.818 510.657C134.144 513.632 128.161 516.123 121.882 518.163C115.568 520.102 109.021 521.689 102.282 522.992C95.5932 524.389 88.7837 525.666 81.8979 526.878C75.1703 528.429 68.437 530.097 61.7579 531.955C55.3219 534.365 48.9776 537.093 42.7789 540.173C36.8697 543.91 31.1159 548.044 25.53 552.558C20.2123 557.682 15.1569 562.961 10.3209 568.298C5.66549 574.001 1.16357 579.569 -3.21061 584.877C-7.54093 590.263 -11.8014 595.192 -16.043 599.57C-22.4677 605.5 -35.569 613.075 -42.2593 614.512C-49.15 614.438 -63.0137 609.62 -69.8821 605.091C-74.5267 601.519 -79.0678 597.369 -83.4686 592.701C-87.967 587.834 -92.3263 582.558 -96.5342 576.943C-100.85 571.26 -105.039 565.337 -109.092 559.238C-113.306 553.17 -117.435 547.008 -121.488 540.801C-125.763 534.703 -130.024 528.618 -134.282 522.58C-138.831 516.699 -143.43 510.899 -148.083 505.199C-153.073 499.677 -158.152 494.262 -163.304 488.967C-168.794 483.85 -174.349 478.829 -179.932 473.897C-185.791 469.107 -191.625 464.374 -197.366 459.677C-203.274 455.063 -208.841 450.542 -214.027 446.094C-219.224 441.642 -223.918 437.21 -228.093 432.792C-232.129 428.293 -235.556 423.769 -238.362 419.203C-241.881 412.141 -245.212 397.48 -245.04 389.868C-244.451 384.61 -243.263 379.281 -241.521 373.913C-239.564 368.352 -237.1 362.752 -234.183 357.127C-231.126 351.315 -227.674 345.473 -223.889 339.62C-220.031 333.581 -215.895 327.535 -211.533 321.496C-207.162 315.278 -202.601 309.074 -197.896 302.913C-193.234 296.587 -188.447 290.303 -183.56 284.091C-178.736 277.761 -173.824 271.518 -168.855 265.405C-163.922 259.212 -158.925 253.184 -153.847 247.362C-148.804 241.527 -143.662 235.938 -138.44 230.644C-133.208 225.413 -127.854 220.526 -122.389 216.045C-116.87 211.685 -111.202 207.774 -105.4 204.345C-99.4992 201.115 -93.5836 198.47 -87.6563 196.401C-81.6361 194.542 -75.5962 193.257 -69.5588 192.514C-63.4347 191.947 -57.3123 191.904 -51.2293 192.342C-45.0656 192.92 -38.9511 193.936 -32.8964 195.366C-26.7852 196.858 -20.7471 198.711 -14.7965 200.894C-8.80992 203.071 -2.92053 205.532 2.86546 208.243C8.67868 210.883 14.3859 213.745 19.9764 216.803C25.6086 219.736 31.1368 222.851 36.5593 226.1C42.0397 229.216 47.4343 232.467 52.7393 235.845C58.1312 239.068 63.4535 242.419 68.706 245.898C74.0652 249.223 79.3816 252.692 84.64 256.294C90.0204 259.755 95.3651 263.377 100.666 267.163C106.072 270.836 111.433 274.692 116.729 278.752C122.12 282.722 127.424 286.933 132.618 291.377C137.853 295.783 142.952 300.453 147.874 305.424C152.784 310.39 157.477 315.675 161.902 321.3" stroke="url(#paint6_linear_801_10)" stroke-width="2" stroke-linecap="round" stroke-dasharray="4 8"/>
<path opacity="0.32" d="M158.513 341.204C162.311 346.905 165.711 352.786 168.683 358.812C171.536 364.899 173.955 371.141 175.926 377.526C177.743 383.956 179.102 390.523 180.013 397.184C180.74 403.883 181.024 410.656 180.865 417.457C180.526 424.256 179.741 431.045 178.546 437.765C177.164 444.439 175.361 450.991 173.154 457.359C170.787 463.623 168.022 469.645 164.874 475.361C161.571 480.907 157.896 486.096 153.849 490.882C149.677 495.45 145.159 499.576 140.302 503.231C135.338 506.67 130.056 509.639 124.496 512.124C118.852 514.45 112.962 516.357 106.833 517.859C100.689 519.32 94.3647 520.487 87.8974 521.414C81.4667 522.469 74.9523 523.422 68.3867 524.337C61.9354 525.597 55.4891 526.95 49.0806 528.486C42.8517 530.524 36.6966 532.845 30.6576 535.464C24.8259 538.687 19.1252 542.249 13.5467 546.125C8.18008 550.565 3.04323 555.121 -1.86815 559.728C-6.64544 564.682 -11.2518 569.508 -15.7034 574.11C-20.1024 578.806 -24.393 583.096 -28.5936 586.901C-34.8934 592.1 -47.3151 598.742 -53.4498 599.992C-59.6651 599.915 -71.8899 595.505 -77.8364 591.348C-81.8592 588.064 -85.766 584.21 -89.5434 579.877C-93.4321 575.339 -97.1843 570.394 -100.818 565.124C-104.574 559.748 -108.221 554.125 -111.777 548.309C-115.504 542.489 -119.161 536.549 -122.778 530.538C-126.612 524.606 -130.449 518.636 -134.285 512.695C-138.411 506.867 -142.578 501.082 -146.804 495.366C-151.331 489.785 -155.934 484.279 -160.589 478.867C-165.551 473.594 -170.562 468.395 -175.575 463.271C-180.84 458.257 -186.067 453.295 -191.181 448.387C-196.449 443.524 -201.407 438.786 -205.999 434.152C-210.603 429.513 -214.755 424.947 -218.422 420.424C-223.48 413.574 -230.458 399.794 -232.291 392.823C-233.164 385.64 -231.603 370.962 -229.273 363.467C-227.349 358.303 -224.938 353.106 -222.101 347.916C-219.119 342.551 -215.756 337.172 -212.057 331.786C-208.275 326.237 -204.212 320.683 -199.911 315.137C-195.574 309.427 -191.041 303.741 -186.347 298.082C-181.664 292.287 -176.847 286.527 -171.923 280.852C-167.025 275.054 -162.035 269.354 -156.968 263.788C-151.926 258.155 -146.81 252.675 -141.634 247.417C-136.463 242.143 -131.221 237.117 -125.904 232.383C-120.573 227.711 -115.148 223.381 -109.641 219.437C-104.095 215.629 -98.4319 212.25 -92.6742 209.346C-86.8423 206.622 -81.031 204.471 -75.2493 202.867C-69.3874 201.461 -63.5581 200.593 -57.756 200.254C-51.8827 200.086 -46.057 200.416 -40.2824 201.207C-34.4403 202.134 -28.6613 203.489 -22.9605 205.229C-17.2017 207.052 -11.5276 209.217 -5.94732 211.697C-0.324667 214.191 5.20897 216.961 10.6273 219.962C16.098 222.924 21.4724 226.091 26.7248 229.442C32.0427 232.714 37.2631 236.134 42.3829 239.693C47.5645 243.136 52.6706 246.71 57.6868 250.401C62.7983 253.963 67.8312 257.648 72.7992 261.441C77.8709 265.102 82.8837 268.888 87.8376 272.799C92.8981 276.587 97.9058 280.516 102.847 284.601C107.889 288.575 112.871 292.72 117.75 297.053C122.72 301.298 127.58 305.76 132.305 310.422C137.073 315.049 141.681 319.913 146.079 325.031C150.475 330.141 154.629 335.525 158.502 341.199" stroke="url(#paint7_linear_801_10)" stroke-width="2" stroke-linecap="round" stroke-dasharray="1 9"/>
<path opacity="0.35" d="M153.074 359.501C156.334 365.168 159.192 370.948 161.654 376.822C163.995 382.729 165.903 388.731 167.387 394.796C168.715 400.896 169.616 407.052 170.076 413.239C170.372 419.436 170.227 425.637 169.658 431.801C168.926 437.946 167.769 444.017 166.206 449.953C164.482 455.843 162.359 461.56 159.854 467.061C157.197 472.449 154.171 477.572 150.798 482.378C147.29 487.029 143.433 491.327 139.273 495.231C134.989 498.958 130.402 502.264 125.536 505.133C120.588 507.84 115.374 510.125 109.92 511.981C104.417 513.73 98.7015 515.116 92.8145 516.153C86.919 517.193 80.8724 517.991 74.7145 518.589C68.5999 519.341 62.4052 520.005 56.1716 520.661C50.0354 521.631 43.8828 522.706 37.771 523.927C31.7887 525.608 25.8565 527.534 20.0073 529.721C14.3091 532.446 8.70718 535.448 3.20761 538.716C-2.14804 542.495 -7.27518 546.368 -12.1991 550.275C-17.0233 554.503 -21.6572 558.624 -26.1269 562.541C-30.5485 566.565 -34.8273 570.244 -38.9655 573.507C-45.1266 577.992 -56.9529 583.747 -62.6305 584.809C-68.2935 584.743 -79.1734 580.794 -84.3713 577.043C-87.8752 574.078 -91.2697 570.584 -94.527 566.629C-97.8784 562.47 -101.127 557.922 -104.259 553.038C-107.523 548.044 -110.704 542.787 -113.796 537.321C-117.062 531.83 -120.286 526.19 -123.472 520.455C-126.882 514.747 -130.297 508.985 -133.717 503.206C-137.399 497.51 -141.126 491.817 -144.897 486.164C-148.948 480.599 -153.057 475.087 -157.203 469.641C-161.628 464.283 -166.073 458.985 -170.509 453.75C-175.165 448.585 -179.768 443.479 -184.269 438.409C-188.904 433.386 -193.244 428.492 -197.254 423.726C-201.284 418.956 -204.891 414.279 -208.068 409.693C-212.444 402.774 -218.388 389.095 -219.876 382.294C-220.499 375.36 -218.751 361.398 -216.453 354.343C-214.577 349.515 -212.244 344.679 -209.511 339.859C-206.627 334.887 -203.381 329.923 -199.802 324.966C-196.136 319.857 -192.183 314.758 -187.986 309.675C-183.745 304.449 -179.287 299.246 -174.666 294.098C-170.021 288.805 -165.241 283.567 -160.334 278.421C-155.441 273.16 -150.435 268.005 -145.351 262.995C-140.279 257.913 -135.13 253.004 -129.913 248.305C-124.698 243.598 -119.414 239.139 -114.076 234.968C-108.719 230.865 -103.29 227.084 -97.801 223.681C-92.2844 220.408 -86.6867 217.555 -81.0118 215.14C-75.2927 212.916 -69.6269 211.222 -64.0194 210.042C-58.3567 209.058 -52.7437 208.585 -47.2071 208.594C-41.6006 208.786 -36.0667 209.441 -30.6126 210.532C-25.0921 211.761 -19.6635 213.384 -14.3205 215.391C-8.91936 217.473 -3.60976 219.885 1.59259 222.603C6.84961 225.352 12.013 228.358 17.0646 231.588C22.1784 234.81 27.1987 238.224 32.1015 241.809C37.08 245.336 41.964 249.018 46.7465 252.83C51.606 256.557 56.3871 260.397 61.0898 264.351C65.8757 268.209 70.5893 272.169 75.2282 276.225C79.9698 280.186 84.6501 284.258 89.2495 288.435C93.9602 292.516 98.5949 296.719 103.153 301.046C107.8 305.292 112.361 309.692 116.814 314.232C121.334 318.717 125.737 323.372 129.979 328.211C134.265 333.01 138.359 338.01 142.244 343.217C146.116 348.408 149.733 353.838 153.072 359.492" stroke="url(#paint8_linear_801_10)" stroke-width="2" stroke-linecap="round" stroke-dasharray="11 8"/>
<path opacity="0.39" d="M145.84 375.849C148.575 381.43 150.922 387.055 152.884 392.706C154.743 398.378 156.182 404.082 157.224 409.786C158.123 415.502 158.604 421.214 158.679 426.883C158.6 432.556 158.111 438.169 157.22 443.676C156.171 449.16 154.732 454.517 152.914 459.698C150.957 464.818 148.622 469.735 145.937 474.398C143.114 478.963 139.96 483.244 136.497 487.208C132.906 491.035 129.017 494.517 124.851 497.621C120.593 500.582 116.065 503.163 111.303 505.35C106.479 507.414 101.432 509.098 96.1914 510.414C90.9105 511.667 85.4555 512.603 79.8683 513.249C74.2623 513.935 68.5507 514.417 62.7494 514.727C56.9666 515.214 51.126 515.641 45.254 516.047C39.4465 516.766 33.6309 517.577 27.8298 518.502C22.1097 519.863 16.4377 521.414 10.8191 523.18C5.29907 525.423 -0.153459 527.906 -5.51777 530.597C-10.7889 533.739 -15.8527 536.966 -20.7147 540.205C-25.514 543.748 -30.1175 547.187 -34.5464 550.463C-41.0496 555.398 -53.2308 563.479 -58.9368 566.313C-69.7929 568.752 -84.8674 565.662 -89.4739 562.332C-94.051 558.135 -102.708 547.195 -106.842 540.671C-109.677 536.097 -112.442 531.255 -115.143 526.191C-118.001 521.07 -120.829 515.788 -123.619 510.381C-126.618 504.971 -129.626 499.473 -132.642 493.941C-135.897 488.43 -139.182 482.908 -142.492 477.391C-146.064 471.928 -149.67 466.472 -153.301 461.066C-157.176 455.711 -161.061 450.394 -164.918 445.125C-168.973 439.907 -172.967 434.721 -176.852 429.576C-180.851 424.454 -184.593 419.479 -188.027 414.639C-191.481 409.785 -194.566 405.054 -197.249 400.43C-200.955 393.483 -205.879 379.927 -207.017 373.273C-207.4 366.546 -205.451 353.182 -203.188 346.515C-201.366 341.966 -199.124 337.439 -196.493 332.95C-193.727 328.324 -190.612 323.726 -187.175 319.152C-183.647 314.45 -179.833 309.771 -175.778 305.124C-171.657 300.354 -167.331 295.615 -162.82 290.936C-158.279 286.143 -153.587 281.419 -148.762 276.776C-143.926 272.049 -138.986 267.436 -133.952 262.966C-128.912 258.442 -123.789 254.099 -118.607 249.952C-113.424 245.814 -108.173 241.916 -102.874 238.297C-97.5684 234.749 -92.1987 231.514 -86.7921 228.633C-81.35 225.881 -75.8619 223.526 -70.3313 221.598C-64.7648 219.843 -59.2788 218.575 -53.8819 217.796C-48.4388 217.198 -43.071 217.068 -37.8064 217.402C-32.4818 217.897 -27.2571 218.828 -22.1202 220.166C-16.9443 221.651 -11.8547 223.506 -6.86562 225.708C-1.83077 228 3.10691 230.611 7.9385 233.497C12.826 236.434 17.6108 239.62 22.296 243.025C27.0369 246.436 31.6799 250.031 36.2299 253.79C40.839 257.527 45.3671 261.399 49.7952 265.4C54.3117 269.347 58.7418 273.402 63.0858 277.565C67.5231 281.655 71.8897 285.841 76.1665 290.118C80.5454 294.319 84.8537 298.617 89.072 303.005C93.3925 307.318 97.6285 311.748 101.766 316.271C105.992 320.739 110.114 325.319 114.108 330.025C118.175 334.689 122.09 339.493 125.843 344.43C129.628 349.352 133.218 354.422 136.579 359.657C139.928 364.876 143.024 370.275 145.829 375.842" stroke="url(#paint9_linear_801_10)" stroke-width="2" stroke-linecap="round" stroke-dasharray="9 8"/>
<path opacity="0.43" d="M137.096 390.007C139.333 395.432 141.202 400.843 142.71 406.231C144.111 411.625 145.14 416.978 145.779 422.286C146.69 432.905 146.039 443.215 143.904 452.999C141.231 462.631 137.126 471.524 131.725 479.419C125.872 486.946 118.839 493.271 110.806 498.209C102.465 502.714 93.2518 505.843 83.3832 507.619C73.3675 509.299 62.83 510.02 51.9765 510.05C41.162 510.772 30.1646 511.465 19.195 512.432C13.7798 513.47 8.37817 514.675 3.02641 516.053C-2.26894 517.852 -7.52202 519.834 -12.6989 521.984C-17.8305 524.54 -22.767 527.15 -27.5142 529.771C-32.2239 532.672 -36.7496 535.478 -41.0886 538.142C-49.6879 543.791 -57.607 548.24 -64.8104 551.154C-72.0403 553.534 -78.6332 553.924 -84.5486 552.292C-90.6191 549.768 -96.1193 545.289 -101.06 539.109C-106.332 532.257 -111.223 524.048 -115.782 514.838C-120.949 505.36 -126.036 495.21 -131.063 484.712C-136.955 474.231 -142.95 463.576 -148.968 452.952C-152.303 447.683 -155.636 442.423 -158.92 437.192C-162.388 431.994 -165.782 426.814 -169.065 421.663C-172.453 416.527 -175.599 411.528 -178.477 406.663C-181.372 401.8 -183.938 397.064 -186.157 392.442C-190.4 383.118 -192.992 374.172 -193.887 365.608C-194.191 356.785 -192.726 348.218 -189.616 339.905C-185.903 331.225 -180.695 322.693 -174.235 314.352C-167.376 305.591 -159.486 296.978 -150.82 288.62C-141.978 279.906 -132.536 271.533 -122.701 263.688C-112.819 255.73 -102.606 248.506 -92.231 242.288C-87.0264 239.276 -81.7807 236.571 -76.4991 234.201C-71.2109 231.946 -65.8811 230.07 -60.5346 228.586C-55.1647 227.277 -49.8877 226.41 -44.72 225.996C-39.53 225.749 -34.4341 225.935 -29.4435 226.537C-19.3789 228.232 -9.70437 231.49 -0.486718 236.079C8.90157 241.075 17.8938 247.188 26.4494 254.182C35.2399 261.261 43.6681 269.041 51.707 277.32C60.0604 285.477 68.1129 294.059 75.8064 302.966C83.8566 311.665 91.5965 320.718 98.9124 330.078C106.537 339.271 113.671 348.879 120.157 358.851C123.432 363.815 126.519 368.902 129.369 374.093C132.209 379.276 134.796 384.582 137.095 389.999" stroke="url(#paint10_linear_801_10)" stroke-width="2" stroke-linecap="round" stroke-dasharray="8 3"/>
<path opacity="0.47" d="M127.195 401.811C130.664 412.243 132.73 422.417 133.43 432.188C133.711 441.931 132.566 451.178 130.082 459.744C127.135 468.145 122.9 475.693 117.525 482.202C111.766 488.398 104.957 493.416 97.3028 497.145C89.3808 500.563 80.7249 502.756 71.516 503.777C62.1749 504.814 52.3842 505.053 42.3435 504.704C32.2753 505.05 22.0362 505.362 11.8009 505.878C1.6144 507.741 -8.52895 510.152 -18.4522 513.1C-28.2979 517.428 -37.4591 521.767 -45.8843 525.803C-54.2526 530.323 -61.9191 533.849 -68.8304 536.102C-75.7467 537.992 -81.9692 538.194 -87.4817 536.683C-93.101 534.459 -98.1182 530.5 -102.555 525.031C-107.296 518.951 -111.638 511.593 -115.642 503.245C-120.189 494.586 -124.613 485.217 -128.957 475.399C-134.034 465.511 -139.147 455.35 -144.229 445.098C-150.037 434.883 -155.706 424.633 -161.005 414.466C-166.667 404.313 -171.348 394.658 -174.886 385.527C-178.25 376.322 -180.168 367.534 -180.602 359.176C-180.542 350.628 -178.907 342.39 -175.814 334.478C-172.179 326.283 -167.189 318.306 -161.028 310.593C-154.479 302.536 -146.949 294.711 -138.652 287.193C-130.168 279.414 -121.066 272.006 -111.564 265.167C-101.995 258.263 -92.0947 252.101 -82.045 246.916C-71.9692 242.005 -61.7557 238.301 -51.5139 236.044C-41.2345 234.389 -31.3841 234.394 -22.0241 235.931C-12.5905 238.077 -3.59199 241.644 4.93381 246.458C13.5912 251.671 21.8429 257.923 29.65 265.02C37.6699 272.255 45.341 280.159 52.6162 288.551C60.1817 296.897 67.4354 305.654 74.3347 314.708C81.5369 323.637 88.4118 332.87 94.84 342.345C101.519 351.715 107.702 361.391 113.199 371.306C118.764 381.19 123.505 391.383 127.195 401.802" stroke="url(#paint11_linear_801_10)" stroke-width="2" stroke-linecap="round" stroke-dasharray="2 7"/>
<path opacity="0.51" d="M116.508 411.179C119.114 421.085 120.457 430.554 120.571 439.473C120.323 448.336 118.812 456.559 116.119 463.984C113.038 471.255 108.82 477.613 103.618 482.917C98.0814 487.961 91.6494 491.889 84.4911 494.633C77.104 497.171 69.0873 498.623 60.6089 499.06C51.9967 499.611 42.9999 499.477 33.7766 498.853C24.4859 498.885 15.0183 498.871 5.52295 498.998C-4.0083 500.287 -13.534 501.992 -22.9122 504.089C-32.2911 507.373 -41.0581 510.636 -49.1227 513.639C-57.1821 517.111 -64.5436 519.764 -71.1609 521.369C-77.7675 522.752 -83.6713 522.731 -88.8633 521.271C-94.1305 519.252 -98.783 515.739 -102.857 510.884C-107.176 505.504 -111.077 498.939 -114.633 491.42C-118.657 483.586 -122.506 475.01 -126.218 465.92C-130.55 456.701 -134.852 447.119 -139.047 437.36C-143.844 427.579 -148.454 417.676 -152.674 407.784C-157.213 397.89 -160.869 388.455 -163.51 379.515C-166.026 370.524 -167.279 361.959 -167.24 353.839C-166.801 345.59 -164.983 337.706 -161.873 330.178C-158.3 322.45 -153.497 314.997 -147.625 307.873C-141.404 300.503 -134.247 293.415 -126.365 286.697C-118.278 279.803 -109.6 273.322 -100.52 267.437C-91.3593 261.536 -81.8944 256.373 -72.2687 252.151C-62.6451 248.204 -52.9066 245.383 -43.1789 243.919C-33.4554 242.986 -24.1962 243.557 -15.4446 245.516C-6.66194 248.033 1.66698 251.85 9.4994 256.779C17.426 262.118 24.946 268.428 32.0253 275.506C39.2716 282.78 46.167 290.681 52.6863 299.057C59.436 307.454 65.881 316.246 71.9517 325.293C78.2886 334.297 84.2689 343.565 89.7957 352.997C95.5268 362.387 100.751 371.985 105.309 381.702C109.903 391.402 113.698 401.263 116.508 411.179Z" stroke="url(#paint12_linear_801_10)" stroke-width="2" stroke-linecap="round" stroke-dasharray="1 8"/>
<path opacity="0.54" d="M105.377 418.145C107.215 427.439 107.924 436.174 107.556 444.237C106.891 452.231 105.12 459.481 102.331 465.886C99.2247 472.133 95.1339 477.449 90.208 481.738C85.0051 485.819 79.0303 488.861 72.4543 490.842C65.6664 492.691 58.3397 493.59 50.6284 493.615C42.7795 493.806 34.5856 493.41 26.1843 492.598C17.6739 492.381 8.99017 492.107 0.25603 491.909C-8.59067 492.688 -17.4603 493.76 -26.2176 495.098C-35.0616 497.425 -43.3433 499.725 -50.9922 501.782C-58.659 504.291 -65.6678 506.122 -71.9612 507.112C-78.2714 507.976 -83.8779 507.694 -88.7943 506.214C-93.767 504.32 -98.1323 501.148 -101.917 496.814C-105.907 492.036 -109.474 486.18 -112.66 479.438C-116.24 472.38 -119.592 464.585 -122.741 456.245C-126.411 447.74 -129.959 438.818 -133.336 429.642C-137.206 420.401 -140.839 410.974 -144.05 401.492C-147.544 391.995 -150.233 382.892 -152.034 374.249C-153.743 365.578 -154.355 357.314 -153.856 349.502C-153.04 341.616 -151.016 334.093 -147.859 326.979C-144.319 319.726 -139.692 312.799 -134.098 306.241C-128.191 299.53 -121.429 293.153 -113.989 287.203C-106.353 281.135 -98.1589 275.538 -89.5672 270.541C-80.9075 265.585 -71.9581 261.354 -62.8662 258.024C-53.7775 254.96 -44.603 252.953 -35.464 252.187C-26.3632 251.907 -17.7333 252.978 -9.60931 255.28C-1.50664 258.079 6.13842 262.059 13.2949 267.051C20.5017 272.42 27.2914 278.681 33.6516 285.655C40.1372 292.843 46.2729 300.635 52.0279 308.86C57.9716 317.17 63.5932 325.847 68.841 334.752C74.2929 343.664 79.3887 352.806 84.0322 362.046C88.8355 371.289 93.1226 380.652 96.7766 390.036C100.448 399.421 103.371 408.828 105.377 418.145Z" stroke="url(#paint13_linear_801_10)" stroke-width="2" stroke-linecap="round" stroke-dasharray="6 4"/>
<path opacity="0.58" d="M94.1532 422.83C95.2962 431.455 95.4811 439.416 94.7361 446.645C93.7421 453.802 91.8097 460.163 89.0224 465.651C85.9676 471.01 82.0921 475.448 77.5114 478.911C72.7024 482.222 67.2409 484.566 61.2759 485.965C55.1221 487.309 48.5015 487.821 41.5641 487.577C34.4637 487.523 27.0622 486.968 19.4841 486.036C11.7543 485.637 3.84081 485.148 -4.13797 484.676C-12.2567 485.016 -20.4281 485.528 -28.5416 486.192C-36.7715 487.69 -44.5069 489.119 -51.6654 490.348C-58.8831 491.971 -65.499 493.048 -71.4393 493.447C-80.0726 493.513 -94.1507 488.351 -99.76 482.964C-103.483 478.685 -106.766 473.45 -109.642 467.407C-112.832 461.074 -115.754 454.029 -118.405 446.433C-121.486 438.655 -124.366 430.433 -126.994 421.908C-130.031 413.304 -132.773 404.457 -135.077 395.506C-137.609 386.52 -139.411 377.868 -140.434 369.638C-141.399 361.38 -141.42 353.525 -140.475 346.092C-139.28 338.616 -137.051 331.529 -133.844 324.857C-130.327 318.097 -125.855 311.714 -120.528 305.729C-114.937 299.657 -108.579 293.969 -101.601 288.751C-94.4525 283.469 -86.7884 278.695 -78.7602 274.54C-70.6711 270.457 -62.3024 267.08 -53.8121 264.563C-45.341 262.294 -36.8031 261.013 -28.3109 260.872C-19.8907 261.15 -11.9292 262.633 -4.46315 265.206C2.95459 268.22 9.91849 272.287 16.3983 277.249C22.8869 282.571 28.9672 288.701 34.6279 295.476C40.3622 302.478 45.7528 310.037 50.7519 317.995C55.9031 326.074 60.7158 334.497 65.1585 343.115C69.7639 351.785 74.0006 360.641 77.7819 369.545C81.6845 378.477 85.1028 387.47 87.9136 396.39C90.7231 405.319 92.8524 414.182 94.1532 422.83Z" stroke="url(#paint14_linear_801_10)" stroke-width="2" stroke-linecap="round" stroke-dasharray="8 10"/>
<path opacity="0.62" d="M83.1063 425.428C83.6703 433.319 83.4081 440.518 82.3802 446.955C81.1438 453.31 79.1235 458.862 76.404 463.56C71.6618 469.995 58.7962 478.277 50.9755 480.192C45.4537 481.167 39.546 481.429 33.3379 481.043C26.9883 480.843 20.3651 480.2 13.5634 479.218C6.5968 478.69 -0.540789 478.032 -7.75239 477.34C-15.1367 477.3 -22.5942 477.343 -30.0094 477.441C-37.5732 478.206 -44.7091 478.884 -51.3315 479.377C-58.0396 480.214 -64.1955 480.612 -69.7567 480.46C-77.854 479.87 -91.1188 474.476 -96.392 469.494C-99.8672 465.612 -102.895 460.903 -105.506 455.47C-108.354 449.794 -110.889 443.452 -113.107 436.581C-115.658 429.535 -117.946 422.04 -119.916 414.225C-122.208 406.302 -124.162 398.128 -125.656 389.802C-127.339 381.433 -128.362 373.358 -128.683 365.639C-128.983 357.906 -128.454 350.531 -127.1 343.567C-125.571 336.596 -123.154 329.997 -119.894 323.812C-116.4 317.599 -112.074 311.77 -107.02 306.377C-101.747 300.941 -95.7963 295.929 -89.3021 291.411C-82.6771 286.877 -75.5719 282.877 -68.1499 279.492C-60.6828 276.191 -52.9634 273.59 -45.1438 271.802C-37.3485 270.245 -29.5001 269.589 -21.72 269.972C-14.0142 270.729 -6.75265 272.54 0.0320991 275.308C6.7492 278.46 13.0232 282.539 18.8311 287.405C24.6214 292.594 30.0043 298.509 34.9781 304.996C40.0007 311.712 44.6556 318.936 48.9476 326.524C53.329 334.241 57.3764 342.274 61.0496 350.478C64.8343 358.752 68.2487 367.18 71.2439 375.614C74.3112 384.092 76.914 392.575 78.9564 400.923C80.995 409.289 82.4144 417.499 83.1063 425.428Z" stroke="url(#paint15_linear_801_10)" stroke-width="2" stroke-linecap="round" stroke-dasharray="5 4"/>
<path opacity="0.66" d="M72.4771 426.205C72.5489 433.341 71.9362 439.763 70.6942 445.443C68.2726 453.462 60.1973 465.391 54.7244 469.252C48.5472 472.219 34.0514 474.479 25.9337 474.091C20.2879 473.821 14.3994 473.155 8.34926 472.163C2.13743 471.558 -4.24782 470.79 -10.7122 469.915C-17.3558 469.578 -24.0759 469.219 -30.7714 468.839C-37.6351 468.992 -44.1237 469.035 -50.1608 468.898C-56.2977 469.065 -61.9614 468.854 -67.0864 468.203C-74.5846 467.011 -86.944 461.277 -91.8691 456.578C-95.087 453.009 -97.8642 448.738 -100.215 443.846C-102.753 438.74 -104.941 433.054 -106.771 426.883C-108.848 420.546 -110.614 413.784 -112.013 406.696C-113.663 399.515 -114.934 392.059 -115.733 384.447C-116.674 376.784 -117.022 369.362 -116.739 362.249C-116.457 355.136 -115.466 348.346 -113.768 341.942C-111.948 335.537 -109.369 329.499 -106.089 323.872C-102.632 318.243 -98.4704 313.01 -93.6916 308.22C-88.7447 303.424 -83.2258 299.067 -77.2307 295.223C-71.1421 291.407 -64.6359 288.113 -57.858 285.427C-51.046 282.844 -44.0277 280.933 -36.9098 279.774C-29.8442 278.821 -22.735 278.713 -15.6891 279.531C-8.73702 280.662 -2.19885 282.716 3.88875 285.597C9.88849 288.803 15.4792 292.822 20.6235 297.53C25.7256 302.504 30.439 308.129 34.7531 314.256C39.0768 320.597 43.0445 327.388 46.6578 334.498C50.3146 341.742 53.638 349.265 56.6042 356.932C59.6265 364.689 62.3043 372.547 64.5694 380.392C66.8753 388.287 68.7481 396.146 70.1274 403.829C71.4821 411.532 72.2974 419.028 72.4771 426.205Z" stroke="url(#paint16_linear_801_10)" stroke-width="2" stroke-linecap="round" stroke-dasharray="2 7"/>
<path opacity="0.7" d="M62.4038 425.442C61.6452 434.64 57.3104 449.452 53.833 454.981C49.7033 459.676 39.2388 465.394 33.0748 466.565C26.4273 467.185 11.7191 466.167 3.79059 464.883C-1.69674 464.235 -7.34762 463.392 -13.0771 462.407C-18.9682 461.824 -24.9514 461.16 -30.9168 460.398C-37.0469 460.047 -42.8521 459.564 -48.2719 458.913C-56.3466 458.141 -70.3817 454.962 -76.2429 452.24C-81.7087 448.872 -90.4269 439.104 -93.781 432.723C-96.0127 428.14 -97.8741 423.051 -99.3487 417.54C-101.006 411.885 -102.32 405.847 -103.238 399.514C-104.329 393.086 -105.032 386.407 -105.245 379.563C-105.583 372.671 -105.363 365.98 -104.603 359.568C-103.84 353.149 -102.46 347.028 -100.499 341.249C-98.4491 335.485 -95.7728 330.071 -92.509 325.059C-89.1248 320.053 -85.1531 315.45 -80.6706 311.276C-76.0772 307.134 -70.9959 303.432 -65.5244 300.228C-59.9845 297.068 -54.1114 294.432 -47.9946 292.381C-41.8821 290.441 -35.5861 289.121 -29.2135 288.501C-22.9014 288.068 -16.5513 288.388 -10.2868 289.537C-4.11087 290.947 1.6859 293.161 7.07364 296.083C12.3613 299.271 17.2628 303.156 21.7544 307.626C26.1864 312.328 30.2492 317.584 33.9355 323.284C37.6038 329.158 40.9312 335.434 43.9 341.982C46.8946 348.663 49.5578 355.569 51.8795 362.603C54.2175 369.718 56.2328 376.911 57.8539 384.069C59.5039 391.275 60.7525 398.416 61.5543 405.359C62.3333 412.313 62.6354 419.049 62.4038 425.442Z" stroke="url(#paint17_linear_801_10)" stroke-width="2" stroke-linecap="round" stroke-dasharray="4 4"/>
<path opacity="0.73" d="M52.9692 423.462C51.6531 434.575 48.529 443.149 43.9986 449.095C39.0567 454.833 32.7124 458.062 25.4319 458.978C17.701 460.066 9.02053 459.401 -0.160107 457.383C-9.90542 456.296 -20.2132 454.502 -30.5218 452.073C-41.4127 450.888 -51.1195 448.912 -59.3021 445.997C-67.722 443.344 -74.5461 439.025 -79.5751 433.072C-84.9029 426.709 -88.7009 418.483 -90.8718 408.82C-93.5609 398.714 -94.7917 387.346 -94.2111 375.329C-93.9651 363.147 -91.6118 351.731 -87.3655 341.565C-82.9265 331.469 -76.3628 322.672 -68.1215 315.573C-59.6131 308.636 -49.5813 303.415 -38.7412 300.361C-27.9322 297.693 -16.6328 297.416 -5.58097 300.011C5.10039 303.412 14.4226 309.534 22.2009 317.698C29.7015 326.592 35.9012 337.318 40.6894 349.034C45.4521 361.187 49.0091 374.073 51.1692 386.814C53.3183 399.707 54.0275 412.23 52.9692 423.462Z" stroke="url(#paint18_linear_801_10)" stroke-width="2" stroke-linecap="round" stroke-dasharray="5 1"/>
<path opacity="0.77" d="M44.1851 420.565C42.4655 430.116 39.3346 437.448 35.1157 442.505C30.6008 447.419 24.9807 450.201 18.6257 451.023C11.9039 451.997 4.38756 451.434 -3.52568 449.622C-11.9173 448.498 -20.774 446.563 -29.6368 443.846C-38.9819 442.027 -47.3455 439.432 -54.4097 436.053C-61.7172 432.915 -67.6499 428.469 -72.0206 422.796C-76.6191 416.857 -79.8023 409.48 -81.4159 400.992C-83.3896 392.166 -83.912 382.315 -82.6738 371.964C-81.692 361.472 -78.8597 351.662 -74.4515 342.978C-69.9586 334.362 -63.7345 326.957 -56.2128 321.113C-48.555 315.446 -39.7009 311.394 -30.2514 309.317C-20.8749 307.594 -11.1544 307.991 -1.68788 310.898C7.44539 314.431 15.3616 320.238 21.8887 327.73C28.1571 335.768 33.2172 345.326 36.9894 355.685C40.6687 366.398 43.2147 377.702 44.5026 388.812C45.7343 400.042 45.6991 410.891 44.1851 420.565Z" stroke="url(#paint19_linear_801_10)" stroke-width="2" stroke-linecap="round" stroke-dasharray="9 9"/>
<path opacity="0.81" d="M35.9869 416.998C34.0467 425.038 31.0043 431.187 27.1303 435.451C23.0482 439.612 18.1217 442.006 12.6207 442.755C6.83678 443.649 0.429156 443.202 -6.27957 441.602C-13.3642 440.488 -20.8289 438.506 -28.2531 435.676C-36.0803 433.472 -43.0665 430.501 -48.9737 426.887C-55.1015 423.468 -60.07 419.035 -63.7004 413.703C-67.5028 408.228 -70.0387 401.671 -71.1365 394.322C-72.469 386.747 -72.4369 378.396 -70.7848 369.707C-69.3041 360.908 -66.2372 352.74 -61.905 345.587C-57.5426 338.485 -51.8202 332.481 -45.1337 327.877C-38.3957 323.423 -30.7566 320.434 -22.7184 319.2C-14.7815 318.238 -6.61604 319.132 1.28091 322.161C8.88988 325.638 15.4268 330.975 20.768 337.662C25.8671 344.742 29.884 353.043 32.7451 361.96C35.5022 371.138 37.2166 380.771 37.8163 390.204C38.351 399.721 37.7856 408.868 35.9869 416.998Z" stroke="url(#paint20_linear_801_10)" stroke-width="2" stroke-linecap="round" stroke-dasharray="8 2"/>
<path opacity="0.85" d="M28.2852 412.991C24.8447 422.054 14.2002 432.544 7.39722 434.25C2.5135 435.035 -2.83571 434.695 -8.39147 433.316C-14.2377 432.25 -20.3258 430.339 -26.3615 427.558C-32.6804 425.186 -38.3033 422.106 -43.0401 418.494C-47.947 415.02 -51.906 410.782 -54.7522 405.916C-57.7297 400.974 -59.6121 395.279 -60.2451 389.069C-61.0201 382.709 -60.5775 375.831 -58.7273 368.789C-56.9854 361.655 -53.9469 355.127 -49.9077 349.48C-45.8809 343.879 -40.8233 339.239 -35.0731 335.803C-29.3246 332.488 -22.9439 330.444 -16.3242 329.885C-9.81438 329.532 -3.17729 330.724 3.1865 333.673C9.31654 336.933 14.5366 341.66 18.7469 347.426C22.7536 353.449 25.8339 360.428 27.9146 367.855C29.8856 375.443 30.9509 383.383 31.0497 391.12C31.0848 398.897 30.1889 406.366 28.2852 412.991Z" stroke="url(#paint21_linear_801_10)" stroke-width="2" stroke-linecap="round" stroke-dasharray="3 4"/>
<path opacity="0.89" d="M20.9456 408.677C17.0439 418.852 10.52 424.402 2.94102 425.535C-5.19101 426.928 -14.7554 424.855 -23.8915 419.495C-33.8386 415.087 -41.3409 407.988 -45.3593 399.531C-49.7395 390.936 -50.5642 380.236 -46.773 369.404C-43.2634 358.328 -35.6657 349.639 -26.2288 344.827C-16.9126 340.344 -6.02532 340.116 3.90376 345.317C13.1775 351.276 19.4998 361.609 22.4276 373.32C25.0055 385.407 24.6126 398.3 20.9456 408.677Z" stroke="url(#paint22_linear_801_10)" stroke-width="2" stroke-linecap="round"/>
<path opacity="0.92" d="M13.85 404.153C10.4781 411.593 5.20113 415.733 -0.739588 416.633C-6.99974 417.679 -14.1547 415.98 -20.788 411.535C-27.9031 407.573 -33.0974 401.508 -35.6856 394.624C-38.4996 387.69 -38.5953 379.535 -35.2554 371.7C-32.0536 363.728 -25.9838 357.787 -18.8055 354.829C-11.7523 352.058 -3.77208 352.502 3.32493 356.896C10.0027 361.711 14.4104 369.583 16.2371 378.286C17.8259 387.178 17.09 396.582 13.85 404.153Z" stroke="url(#paint23_linear_801_10)" stroke-width="2" stroke-linecap="round" stroke-dasharray="5 10"/>
<path opacity="0.96" d="M6.8806 399.415C1.70921 408.998 -8.68205 410.444 -16.9655 403.728C-26.1389 397.8 -29.6913 385.705 -24.5142 375.764C-19.5699 365.555 -7.76275 361.889 1.36382 368.222C9.68161 375.261 11.8374 389.571 6.8806 399.415Z" stroke="url(#paint24_linear_801_10)" stroke-width="2" stroke-linecap="round" stroke-dasharray="9 5"/>
<defs>
<linearGradient id="paint0_linear_801_10" x1="151.018" y1="198.714" x2="-204.181" y2="593.475" gradientUnits="userSpaceOnUse">
<stop stop-color="#1F89DB"/>
<stop offset="1" stop-color="#F42A8B"/>
</linearGradient>
<linearGradient id="paint1_linear_801_10" x1="156.77" y1="217.73" x2="-210.935" y2="572.566" gradientUnits="userSpaceOnUse">
<stop stop-color="#1F89DB"/>
<stop offset="1" stop-color="#F42A8B"/>
</linearGradient>
<linearGradient id="paint2_linear_801_10" x1="160.75" y1="236.561" x2="-215.629" y2="551.704" gradientUnits="userSpaceOnUse">
<stop stop-color="#1F89DB"/>
<stop offset="1" stop-color="#F42A8B"/>
</linearGradient>
<linearGradient id="paint3_linear_801_10" x1="163.01" y1="255.045" x2="-218.316" y2="531.075" gradientUnits="userSpaceOnUse">
<stop stop-color="#1F89DB"/>
<stop offset="1" stop-color="#F42A8B"/>
</linearGradient>
<linearGradient id="paint4_linear_801_10" x1="163.59" y1="272.996" x2="-219.119" y2="510.838" gradientUnits="userSpaceOnUse">
<stop stop-color="#1F89DB"/>
<stop offset="1" stop-color="#F42A8B"/>
</linearGradient>
<linearGradient id="paint5_linear_801_10" x1="162.59" y1="290.273" x2="-218.088" y2="491.148" gradientUnits="userSpaceOnUse">
<stop stop-color="#1F89DB"/>
<stop offset="1" stop-color="#F42A8B"/>
</linearGradient>
<linearGradient id="paint6_linear_801_10" x1="159.97" y1="306.429" x2="-215.241" y2="471.758" gradientUnits="userSpaceOnUse">
<stop stop-color="#1F89DB"/>
<stop offset="1" stop-color="#F42A8B"/>
</linearGradient>
<linearGradient id="paint7_linear_801_10" x1="156.24" y1="322.234" x2="-210.525" y2="453.841" gradientUnits="userSpaceOnUse">
<stop stop-color="#1F89DB"/>
<stop offset="1" stop-color="#F42A8B"/>
</linearGradient>
<linearGradient id="paint8_linear_801_10" x1="151.235" y1="337.036" x2="-204.543" y2="437.038" gradientUnits="userSpaceOnUse">
<stop stop-color="#1F89DB"/>
<stop offset="1" stop-color="#F42A8B"/>
</linearGradient>
<linearGradient id="paint9_linear_801_10" x1="145.005" y1="350.405" x2="-197.183" y2="421.017" gradientUnits="userSpaceOnUse">
<stop stop-color="#1F89DB"/>
<stop offset="1" stop-color="#F42A8B"/>
</linearGradient>
<linearGradient id="paint10_linear_801_10" x1="137.875" y1="363.131" x2="-188.408" y2="406.78" gradientUnits="userSpaceOnUse">
<stop stop-color="#1F89DB"/>
<stop offset="1" stop-color="#F42A8B"/>
</linearGradient>
<linearGradient id="paint11_linear_801_10" x1="129.817" y1="374.434" x2="-178.445" y2="393.718" gradientUnits="userSpaceOnUse">
<stop stop-color="#1F89DB"/>
<stop offset="1" stop-color="#F42A8B"/>
</linearGradient>
<linearGradient id="paint12_linear_801_10" x1="121.014" y1="384.366" x2="-167.467" y2="382.048" gradientUnits="userSpaceOnUse">
<stop stop-color="#1F89DB"/>
<stop offset="1" stop-color="#F42A8B"/>
</linearGradient>
<linearGradient id="paint13_linear_801_10" x1="111.592" y1="392.963" x2="-155.621" y2="371.931" gradientUnits="userSpaceOnUse">
<stop stop-color="#1F89DB"/>
<stop offset="1" stop-color="#F42A8B"/>
</linearGradient>
<linearGradient id="paint14_linear_801_10" x1="101.774" y1="399.807" x2="-143.021" y2="363.046" gradientUnits="userSpaceOnUse">
<stop stop-color="#1F89DB"/>
<stop offset="1" stop-color="#F42A8B"/>
</linearGradient>
<linearGradient id="paint15_linear_801_10" x1="91.6082" y1="405.721" x2="-129.937" y2="356.279" gradientUnits="userSpaceOnUse">
<stop stop-color="#1F89DB"/>
<stop offset="1" stop-color="#F42A8B"/>
</linearGradient>
<linearGradient id="paint16_linear_801_10" x1="81.1927" y1="410.272" x2="-116.552" y2="351.245" gradientUnits="userSpaceOnUse">
<stop stop-color="#1F89DB"/>
<stop offset="1" stop-color="#F42A8B"/>
</linearGradient>
<linearGradient id="paint17_linear_801_10" x1="70.1093" y1="413.339" x2="-103.073" y2="348.035" gradientUnits="userSpaceOnUse">
<stop stop-color="#1F89DB"/>
<stop offset="1" stop-color="#F42A8B"/>
</linearGradient>
<linearGradient id="paint18_linear_801_10" x1="60.3" y1="415.633" x2="-89.7093" y2="346.636" gradientUnits="userSpaceOnUse">
<stop stop-color="#1F89DB"/>
<stop offset="1" stop-color="#F42A8B"/>
</linearGradient>
<linearGradient id="paint19_linear_801_10" x1="50.185" y1="416.235" x2="-76.5328" y2="346.743" gradientUnits="userSpaceOnUse">
<stop stop-color="#1F89DB"/>
<stop offset="1" stop-color="#F42A8B"/>
</linearGradient>
<linearGradient id="paint20_linear_801_10" x1="40.3577" y1="415.626" x2="-63.8214" y2="348.538" gradientUnits="userSpaceOnUse">
<stop stop-color="#1F89DB"/>
<stop offset="1" stop-color="#F42A8B"/>
</linearGradient>
<linearGradient id="paint21_linear_801_10" x1="29.7475" y1="412.968" x2="-51.7646" y2="351.944" gradientUnits="userSpaceOnUse">
<stop stop-color="#1F89DB"/>
<stop offset="1" stop-color="#F42A8B"/>
</linearGradient>
<linearGradient id="paint22_linear_801_10" x1="21.7389" y1="411.013" x2="-40.6778" y2="357.022" gradientUnits="userSpaceOnUse">
<stop stop-color="#1F89DB"/>
<stop offset="1" stop-color="#F42A8B"/>
</linearGradient>
<linearGradient id="paint23_linear_801_10" x1="13.4485" y1="407.007" x2="-30.4211" y2="363.29" gradientUnits="userSpaceOnUse">
<stop stop-color="#1F89DB"/>
<stop offset="1" stop-color="#F42A8B"/>
</linearGradient>
<linearGradient id="paint24_linear_801_10" x1="5.7364" y1="401.992" x2="-21.3722" y2="370.872" gradientUnits="userSpaceOnUse">
<stop stop-color="#1F89DB"/>
<stop offset="1" stop-color="#F42A8B"/>
</linearGradient>
</defs>
</svg>
