<svg width="316" height="630" viewBox="0 0 316 630" fill="none" xmlns="http://www.w3.org/2000/svg">
<path opacity="0.05" d="M297.39 21.6481C306.89 19.5581 316.46 18.1681 326.08 17.5081C335.72 17.1181 345.44 17.5181 355.23 18.6781C365.08 20.1781 375.03 22.4581 385.09 25.4781C395.24 28.8281 405.53 32.8881 415.94 37.5981C426.47 42.5681 437.13 48.1381 447.9 54.2281C458.76 60.4981 469.69 67.2181 480.62 74.3381C491.54 81.5181 502.37 89.0381 512.98 96.8181C523.4 104.588 533.43 112.588 542.91 120.768C551.94 128.868 560.22 137.128 567.56 145.528C574.18 153.818 579.68 162.228 583.93 170.758C587.31 179.168 589.36 187.708 590.06 196.358C589.98 204.918 588.68 213.608 586.27 222.448C583.49 231.198 579.96 240.118 575.93 249.208C572.19 258.238 568.46 267.458 564.99 276.868C562.55 286.248 560.84 295.838 560.04 305.638C560.74 315.418 562.53 325.418 565.39 335.628C569.66 345.838 574.62 356.008 579.99 366.128C586.04 376.238 591.9 386.288 597.28 396.218C602.46 406.138 606.61 415.928 609.52 425.518C611.58 435.068 612.1 444.388 611.05 453.428C608.88 462.358 605.13 470.958 599.93 479.138C593.73 487.158 586.28 494.708 577.8 501.718C568.67 508.508 558.81 514.698 548.42 520.228C537.79 525.498 526.89 530.088 515.89 533.958C504.97 537.558 494.11 540.468 483.4 542.688C472.95 544.718 462.7 546.148 452.68 546.998C442.97 547.858 433.45 548.288 424.12 548.388C415.05 548.738 406.09 548.958 397.22 549.138C388.53 549.838 379.85 550.708 371.14 551.818C362.54 553.688 353.84 555.928 345.05 558.588C336.29 562.068 327.39 565.968 318.35 570.238C309.31 575.198 300.11 580.378 290.76 585.628C281.41 591.238 272.14 596.478 262.98 601.218C253.83 605.848 244.81 609.658 235.96 612.558C227.14 614.968 218.52 616.268 210.13 616.418C201.8 615.878 193.73 614.138 185.96 611.228C178.26 607.608 170.88 602.898 163.85 597.178C156.89 590.878 150.28 583.728 144.05 575.828C137.85 567.558 132.01 558.718 126.53 549.428C121.03 539.968 115.86 530.208 110.99 520.238C106.03 510.268 101.32 500.178 96.8601 490.058C92.2201 480.038 87.7601 470.018 83.4901 460.048C78.9701 450.208 74.5901 440.428 70.3501 430.708C65.8601 421.118 61.5001 411.578 57.3201 402.068C52.9101 392.678 48.7101 383.288 44.7701 373.908C40.7001 364.598 36.9601 355.258 33.6201 345.898C30.2801 336.568 27.4301 327.178 25.1301 317.758C22.9801 308.338 21.4801 298.858 20.6701 289.338C20.1301 279.818 20.3601 270.468 21.3201 261.328C22.5801 252.188 24.5601 243.248 27.2201 234.558C30.1101 225.868 33.6301 217.428 37.7001 209.278C41.9001 201.138 46.59 193.298 51.68 185.788C56.77 178.308 62.1901 171.158 67.8901 164.368C73.4601 157.618 79.23 151.218 85.18 145.208C90.91 139.198 96.7901 133.558 102.78 128.298C108.53 122.998 114.41 118.048 120.4 113.438C126.17 108.738 132.1 104.338 138.18 100.208C144.09 95.9381 150.2 91.8781 156.53 88.0381C162.74 83.9681 169.21 80.0581 175.94 76.2981C182.6 72.2581 189.56 68.3281 196.81 64.5081C204.02 60.3981 211.54 56.3981 219.36 52.5281C227.17 48.4081 235.27 44.4481 243.67 40.7181C252.06 36.8081 260.74 33.1981 269.7 29.9581C278.64 26.6881 287.87 23.8981 297.38 21.6581" stroke="url(#paint0_linear_802_49)" stroke-width="2" stroke-linecap="round"/>
<path opacity="0.09" d="M321.271 32.3841C330.624 30.9595 340.02 30.2196 349.446 30.1836C358.884 30.3991 368.359 31.369 377.883 33.0742C387.434 35.0922 397.043 37.866 406.71 41.3658C416.426 45.1698 426.214 49.6705 436.066 54.8074C445.97 60.2086 455.932 66.2054 465.909 72.7144C475.912 79.4058 485.883 86.5561 495.757 94.0904C505.544 101.709 515.138 109.655 524.413 117.868C533.448 126.065 542.007 134.469 549.954 143.03C557.446 151.499 564.137 160.092 569.891 168.749C574.982 177.289 578.987 185.872 581.817 194.493C583.876 202.959 584.739 211.461 584.377 219.987C583.373 228.387 581.303 236.832 578.277 245.33C575.005 253.75 571.106 262.267 566.797 270.895C562.841 279.497 558.923 288.273 555.264 297.218C552.574 306.21 550.55 315.421 549.332 324.858C549.481 334.383 550.575 344.154 552.605 354.162C555.922 364.261 559.852 374.333 564.148 384.34C569.093 394.383 573.885 404.316 578.278 414.069C582.543 423.804 585.922 433.306 588.229 442.511C589.823 451.606 590.056 460.364 588.896 468.703C586.754 476.883 583.182 484.59 578.283 491.793C572.457 498.77 565.466 505.203 557.476 511.025C548.851 516.611 539.489 521.564 529.571 525.866C519.36 529.916 508.836 533.303 498.156 536.038C487.473 538.551 476.803 540.444 466.227 541.722C455.828 542.893 445.597 543.543 435.57 543.717C425.779 543.958 416.182 543.852 406.774 543.498C397.566 543.429 388.494 543.27 379.534 543.098C370.707 543.457 361.908 543.978 353.114 544.721C344.38 546.169 335.584 547.944 326.731 550.075C317.866 552.958 308.886 556.193 299.815 559.723C290.709 563.882 281.482 568.202 272.173 572.547C262.829 577.231 253.641 581.564 244.637 585.429C235.648 589.215 226.86 592.274 218.343 594.489C209.865 596.296 201.678 597.102 193.805 596.866C186.024 596.026 178.582 594.097 171.515 591.112C164.543 587.482 157.944 582.835 151.761 577.266C145.647 571.15 139.921 564.219 134.595 556.595C129.296 548.582 124.357 540.012 119.781 530.998C115.17 521.77 110.872 512.223 106.861 502.446C102.733 492.611 98.836 482.642 95.1645 472.598C91.2999 462.591 87.5871 452.564 84.0424 442.57C80.242 432.648 76.5692 422.764 73.0325 412.941C69.2294 403.198 65.5525 393.515 62.0523 383.885C58.3263 374.329 54.8084 364.807 51.5484 355.324C48.1638 345.902 45.0991 336.493 42.4227 327.121C39.7642 317.78 37.5759 308.453 35.9269 299.154C34.4369 289.876 33.5667 280.621 33.3855 271.406C33.4637 262.208 34.2759 253.263 35.7909 244.588C37.5944 235.944 40.0906 227.569 43.2376 219.491C46.6239 211.429 50.5898 203.679 55.0945 196.248C59.7282 188.836 64.8296 181.758 70.3081 175.017C75.8045 168.308 81.6082 161.931 87.6665 155.923C93.6237 149.928 99.7671 144.277 106.065 138.997C112.174 133.684 118.399 128.731 124.72 124.114C130.814 119.442 137.006 115.088 143.297 111.041C149.364 106.888 155.554 102.994 161.865 99.3699C168.009 95.5633 174.308 91.9681 180.792 88.5866C187.154 84.9557 193.733 81.5007 200.543 78.1923C207.283 74.6082 214.274 71.1422 221.536 67.8255C228.758 64.2154 236.261 60.7553 244.043 57.4454C251.813 53.894 259.859 50.5325 268.189 47.4317C276.5 44.1591 285.088 41.2169 293.942 38.6442C302.786 36.0609 311.897 33.9475 321.261 32.3833" stroke="url(#paint1_linear_802_49)" stroke-width="2" stroke-linecap="round" stroke-dasharray="2 3"/>
<path opacity="0.13" d="M344.139 45.0669C353.299 44.2867 362.486 44.1769 371.66 44.7218C380.829 45.5185 389.999 47.0222 399.179 49.2345C408.347 51.7481 417.535 54.9715 426.715 58.8907C435.904 63.1041 445.11 67.9865 454.288 73.4811C463.472 79.229 472.624 85.5482 481.705 92.3723C490.741 99.3718 499.653 106.818 508.371 114.631C516.955 122.536 525.243 130.753 533.135 139.196C540.743 147.639 547.823 156.25 554.24 164.978C560.206 173.612 565.363 182.324 569.6 191.036C573.229 199.621 575.842 208.183 577.358 216.711C578.221 225.076 577.998 233.407 576.693 241.675C574.891 249.813 572.163 257.93 568.618 266.042C564.932 274.074 560.733 282.164 556.212 290.32C552.073 298.489 547.993 306.808 544.172 315.295C541.265 323.892 538.942 332.713 537.324 341.766C536.943 350.994 537.384 360.48 538.64 370.203C541.043 380.099 543.996 389.962 547.273 399.75C551.165 409.615 554.956 419.334 558.397 428.822C561.801 438.284 564.44 447.436 566.164 456.215C567.31 464.862 567.277 473.059 566.024 480.749C563.932 488.229 560.565 495.155 556 501.486C550.612 507.559 544.132 513.012 536.734 517.81C528.716 522.348 519.973 526.238 510.666 529.472C501.039 532.469 491.06 534.819 480.885 536.556C470.633 538.121 460.343 539.104 450.097 539.559C439.94 539.955 429.898 539.903 420.045 539.444C410.325 539.114 400.785 538.507 391.427 537.694C382.204 537.203 373.11 536.659 364.135 536.132C355.23 536.111 346.373 536.247 337.557 536.591C328.729 537.59 319.89 538.881 311.008 540.468C302.081 542.736 293.072 545.295 284.018 548.1C274.885 551.46 265.694 554.943 256.472 558.431C247.2 562.205 238.142 565.677 229.327 568.718C220.529 571.711 212.017 574.038 203.822 575.632C195.687 576.871 187.922 577.212 180.539 576.639C173.262 575.535 166.386 573.458 159.948 570.423C153.612 566.817 147.71 562.292 142.252 556.912C136.866 551.026 131.909 544.394 127.36 537.092C122.845 529.411 118.699 521.187 114.91 512.518C111.073 503.62 107.535 494.391 104.285 484.911C100.909 475.321 97.7487 465.57 94.7942 455.717C91.639 445.855 88.6336 435.934 85.7682 426.023C82.6568 416.138 79.6656 406.259 76.7974 396.439C73.6804 386.664 70.6879 376.936 67.8482 367.271C64.8205 357.65 61.9766 348.086 59.3746 338.596C56.6765 329.143 54.2925 319.754 52.2719 310.438C50.2867 301.157 48.747 291.939 47.7378 282.826C46.8771 273.735 46.6189 264.74 47.0114 255.857C47.6711 247.011 49.0128 238.485 51.0238 230.297C53.3204 222.159 56.258 214.344 59.8025 206.878C63.5946 199.447 67.9329 192.367 72.7763 185.641C77.7584 178.935 83.1735 172.593 88.9411 166.614C94.7483 160.641 100.849 155.023 107.171 149.759C113.433 144.497 119.859 139.571 126.417 134.998C132.821 130.372 139.329 126.074 145.913 122.1C152.298 118.037 158.762 114.268 165.287 110.781C171.629 107.156 178.057 103.786 184.573 100.641C190.934 97.3118 197.427 94.1935 204.066 91.2574C210.587 88.0825 217.288 85.0643 224.186 82.2157C231.014 79.0843 238.063 76.1055 245.344 73.2707C252.602 70.1701 260.1 67.2248 267.855 64.4673C275.591 61.4851 283.578 58.7204 291.832 56.2156C300.065 53.5766 308.554 51.2668 317.279 49.3542C325.988 47.419 334.941 45.9631 344.129 45.0655" stroke="url(#paint2_linear_802_49)" stroke-width="2" stroke-linecap="round" stroke-dasharray="5 6"/>
<path opacity="0.16" d="M365.599 59.5837C374.52 59.4333 383.43 59.9045 392.295 61.0105C401.134 62.3358 409.937 64.3491 418.692 67.0168C427.408 69.9624 436.089 73.596 444.703 77.87C453.288 82.424 461.8 87.6066 470.227 93.3745C478.603 99.377 486.874 105.919 494.971 112.936C502.98 120.128 510.779 127.724 518.288 135.668C525.618 143.686 532.581 151.983 539.081 160.487C545.276 168.977 550.899 177.61 555.834 186.3C560.336 194.917 564.048 203.539 566.867 212.132C569.156 220.571 570.495 228.959 570.835 237.235C570.635 245.354 569.465 253.377 567.354 261.3C564.865 269.081 561.58 276.804 557.612 284.471C553.593 292.087 549.17 299.729 544.484 307.406C540.205 315.14 536.01 323.005 532.046 331.031C528.93 339.209 526.336 347.622 524.346 356.267C523.471 365.152 523.299 374.289 523.822 383.668C525.38 393.269 527.416 402.84 529.75 412.311C532.66 421.906 535.489 431.309 538.056 440.452C540.628 449.576 542.574 458.329 543.752 466.652C544.472 474.826 544.188 482.487 542.86 489.576C540.817 496.419 537.667 502.657 533.454 508.227C528.513 513.517 522.599 518.149 515.822 522.083C508.477 525.753 500.438 528.752 491.856 531.092C482.923 533.204 473.621 534.704 464.09 535.603C454.425 536.361 444.658 536.596 434.894 536.34C425.144 536.067 415.457 535.408 405.903 534.41C396.423 533.55 387.078 532.484 377.881 531.256C368.748 530.348 359.731 529.424 350.829 528.535C341.948 528.122 333.116 527.861 324.324 527.794C315.496 528.322 306.655 529.103 297.809 530.149C288.875 531.79 279.908 533.68 270.909 535.767C261.825 538.347 252.722 541.015 243.643 543.668C234.495 546.592 225.614 549.226 217.026 551.494C208.459 553.715 200.22 555.361 192.374 556.367C184.581 557.076 177.213 556.998 170.285 556.113C163.455 554.769 157.096 552.565 151.206 549.51C145.423 545.957 140.107 541.563 135.271 536.412C130.515 530.789 126.195 524.471 122.306 517.53C118.442 510.236 114.957 502.409 111.832 494.149C108.657 485.643 105.791 476.794 103.186 467.684C100.459 458.425 97.9563 448.979 95.6319 439.418C93.1281 429.788 90.7626 420.085 88.527 410.348C86.068 400.605 83.7227 390.855 81.4851 381.128C79.0274 371.426 76.6968 361.751 74.5024 352.156C72.141 342.577 69.971 333.059 68.0349 323.643C66.0024 314.247 64.2765 304.947 62.9158 295.757C61.576 286.611 60.6742 277.571 60.2604 268.686C60.0129 259.836 60.3261 251.138 61.2644 242.626C62.4471 234.165 64.2756 226.079 66.7144 218.39C69.4389 210.751 72.7561 203.496 76.6326 196.637C80.7459 189.819 85.3793 183.388 90.4722 177.343C95.7235 171.321 101.364 165.68 107.342 160.418C113.369 155.166 119.669 150.259 126.186 145.727C132.651 141.152 139.285 136.931 146.034 133.031C152.665 129.065 159.381 125.414 166.158 122.051C172.774 118.583 179.454 115.385 186.18 112.451C192.745 109.361 199.384 106.501 206.08 103.848C212.644 101.002 219.311 98.3429 226.091 95.8714C232.77 93.1532 239.599 90.6 246.578 88.2018C253.509 85.5481 260.623 83.0459 267.937 80.7094C275.225 78.1117 282.728 75.7033 290.446 73.4843C298.147 71.0571 306.082 68.8746 314.233 66.9735C322.38 64.9489 330.741 63.2568 339.313 61.9677C347.875 60.6766 356.632 59.857 365.59 59.5816" stroke="url(#paint3_linear_802_49)" stroke-width="2" stroke-linecap="round" stroke-dasharray="1 10"/>
<path opacity="0.2" d="M385.24 75.7716C393.884 76.194 402.457 77.2207 410.952 78.839C419.398 80.6618 427.765 83.1176 436.024 86.198C444.233 89.524 452.331 93.4842 460.307 98.0443C468.21 102.854 475.983 108.261 483.583 114.19C491.097 120.345 498.415 126.995 505.494 134.075C512.434 141.312 519.088 148.925 525.387 156.83C531.474 164.82 537.13 173.039 542.273 181.411C547.115 189.779 551.347 198.242 554.893 206.734C558.04 215.132 560.414 223.503 561.956 231.8C563.039 239.954 563.248 248 562.559 255.911C561.437 263.665 559.467 271.288 556.676 278.766C553.623 286.138 549.903 293.41 545.602 300.597C541.336 307.773 536.741 314.937 531.948 322.138C527.566 329.426 523.274 336.835 519.204 344.38C515.911 352.15 513.057 360.131 510.74 368.341C509.394 376.832 508.662 385.573 508.521 394.538C509.293 403.768 510.481 412.962 511.95 422.05C513.94 431.278 515.887 440.296 517.645 449.031C519.451 457.748 520.746 466.067 521.407 473.921C521.716 481.621 521.198 488.76 519.787 495.285C517.799 501.57 514.86 507.184 510.996 512.113C506.506 516.757 501.149 520.691 495.024 523.935C488.376 526.901 481.083 529.182 473.271 530.812C465.105 532.225 456.573 533.032 447.769 533.271C438.792 533.387 429.675 533.015 420.512 532.193C411.295 531.375 402.094 530.218 392.969 528.761C383.847 527.471 374.813 525.988 365.895 524.393C356.979 523.111 348.149 521.823 339.409 520.581C330.646 519.781 321.913 519.124 313.235 518.64C304.474 518.693 295.725 518.959 286.971 519.452C278.116 520.478 269.243 521.707 260.38 523.085C251.407 524.909 242.459 526.794 233.558 528.66C224.593 530.747 215.932 532.61 207.609 534.134C199.292 535.639 191.36 536.641 183.846 537.097C176.394 537.302 169.4 536.826 162.888 535.658C156.471 534.09 150.553 531.771 145.14 528.713C139.829 525.196 135.018 520.96 130.689 516.03C126.451 510.679 122.659 504.687 119.309 498.136C115.981 491.227 113.044 483.827 110.468 476.011C107.843 467.931 105.524 459.513 103.47 450.829C101.311 441.967 99.3562 432.905 97.5913 423.69C95.655 414.383 93.8661 404.963 92.2024 395.507C90.3369 385.991 88.5842 376.446 86.9468 366.935C85.1117 357.387 83.4015 347.875 81.8365 338.437C80.1288 328.988 78.5952 319.621 77.2934 310.352C75.9228 301.106 74.8417 291.974 74.0923 282.99C73.3855 274.04 73.0805 265.248 73.2543 256.636C73.5665 248.085 74.4247 239.734 75.8521 231.61C77.5292 223.559 79.7927 215.927 82.6053 208.736C85.6924 201.603 89.3219 194.898 93.4621 188.623C97.8453 182.407 102.694 176.597 107.964 171.201C113.394 165.83 119.187 160.855 125.293 156.274C131.463 151.69 137.891 147.472 144.509 143.601C151.115 139.706 157.875 136.136 164.734 132.876C171.517 129.553 178.377 126.502 185.287 123.746C192.078 120.862 198.913 118.22 205.79 115.83C212.533 113.255 219.336 110.905 226.175 108.754C232.917 106.397 239.733 104.218 246.635 102.21C253.448 99.9673 260.391 97.8875 267.458 95.958C274.477 93.7961 281.65 91.7832 288.983 89.9411C296.299 87.8655 303.791 85.976 311.469 84.307C319.14 82.4484 326.997 80.8418 335.031 79.5258C343.064 78.1053 351.281 77.0194 359.659 76.3447C368.031 75.6577 376.555 75.4519 385.23 75.7688" stroke="url(#paint4_linear_802_49)" stroke-width="2" stroke-linecap="round" stroke-dasharray="8 8"/>
<path opacity="0.24" d="M402.685 93.3361C410.998 94.3168 419.186 95.8378 427.253 97.9213C435.258 100.174 443.127 103.026 450.833 106.437C458.466 110.077 465.929 114.293 473.205 119.048C480.381 124.043 487.355 129.56 494.089 135.554C500.716 141.754 507.064 148.394 513.102 155.411C518.985 162.562 524.503 170.037 529.615 177.778C534.503 185.576 538.908 193.558 542.777 201.662C546.347 209.742 549.301 217.872 551.585 226.001C553.508 234.039 554.695 242.02 555.114 249.888C555.138 257.612 554.375 265.216 552.833 272.651C550.938 279.945 548.31 287.087 544.985 294.068C541.489 300.965 537.426 307.75 532.895 314.447C528.449 321.144 523.75 327.833 518.906 334.543C514.462 341.379 510.106 348.322 505.956 355.404C502.493 362.729 499.423 370.262 496.809 378.006C495.045 386.073 493.805 394.365 493.053 402.868C493.107 411.668 493.534 420.413 494.214 429.049C495.37 437.839 496.514 446.401 497.521 454.667C498.611 462.942 499.306 470.785 499.493 478.153C499.426 485.373 498.668 492.01 497.192 498.02C493.867 506.333 482.493 519.058 474.594 523.44C468.641 525.864 462.099 527.602 455.07 528.692C447.693 529.569 439.955 529.865 431.94 529.611C423.719 529.251 415.319 528.419 406.837 527.174C398.251 525.954 389.623 524.41 381.029 522.601C372.367 520.948 363.76 519.145 355.213 517.237C346.619 515.631 338.073 514.01 329.595 512.436C321.038 511.28 312.516 510.233 304.029 509.348C295.437 508.925 286.838 508.692 278.266 508.649C269.565 509.07 260.866 509.663 252.197 510.373C243.409 511.466 234.667 512.608 226.015 513.708C217.293 515.028 208.894 516.135 200.874 516.967C192.834 517.792 185.22 518.187 178.049 518.127C170.936 517.854 164.293 516.998 158.152 515.559C152.117 513.775 146.585 511.346 141.577 508.278C136.672 504.811 132.268 500.708 128.364 496C124.537 490.905 121.178 485.237 118.262 479.06C115.362 472.548 112.865 465.577 110.726 458.216C108.547 450.584 106.673 442.617 105.075 434.389C103.37 425.962 101.893 417.32 100.602 408.523C99.159 399.585 97.8656 390.532 96.7134 381.413C95.3898 372.21 94.1783 362.963 93.0898 353.729C91.8289 344.443 90.7003 335.173 89.7278 325.971C88.623 316.753 87.7024 307.613 86.9967 298.584C86.2525 289.572 85.7701 280.689 85.6083 271.978C85.4993 263.296 85.7801 254.8 86.4778 246.533C87.3351 238.324 88.6818 230.348 90.5675 222.646C92.675 215.035 95.3096 207.875 98.4586 201.17C101.851 194.554 105.737 188.397 110.089 182.678C114.661 177.029 119.659 171.815 125.042 167.029C130.592 162.284 136.465 157.934 142.63 153.979C148.877 150.034 155.353 146.449 162.011 143.209C168.68 139.941 175.491 136.981 182.391 134.33C189.255 131.602 196.193 129.137 203.18 126.944C210.075 124.623 217.015 122.53 223.979 120.66C230.857 118.619 237.769 116.772 244.721 115.11C251.583 113.256 258.517 111.556 265.505 110.025C272.437 108.27 279.46 106.677 286.578 105.226C293.669 103.562 300.885 102.051 308.215 100.72C315.54 99.1739 323.013 97.8318 330.622 96.6995C338.226 95.4057 345.981 94.3697 353.872 93.6289C361.766 92.7933 369.801 92.2975 377.954 92.207C386.088 92.1096 394.331 92.4681 402.676 93.3327" stroke="url(#paint5_linear_802_49)" stroke-width="2" stroke-linecap="round" stroke-dasharray="10 3"/>
<path opacity="0.28" d="M417.624 111.958C425.538 113.427 433.303 115.399 440.883 117.88C448.393 120.515 455.71 123.678 462.815 127.36C469.837 131.224 476.622 135.616 483.167 140.493C489.59 145.568 495.75 151.105 501.609 157.066C507.336 163.198 512.73 169.706 517.747 176.539C522.599 183.494 527.037 190.712 531.022 198.133C534.785 205.607 538.035 213.222 540.737 220.909C543.156 228.568 544.981 236.255 546.146 243.897C546.99 251.449 547.159 258.917 546.633 266.247C545.766 273.457 544.209 280.521 541.964 287.406C539.451 294.182 536.313 300.785 532.587 307.234C528.755 313.625 524.463 319.895 519.795 326.073C515.24 332.291 510.493 338.5 505.633 344.713C501.161 351.089 496.774 357.569 492.575 364.167C488.996 371.043 485.734 378.118 482.86 385.378C480.724 392.971 479.018 400.779 477.741 408.78C477.147 417.088 476.891 425.33 476.863 433.455C477.262 441.75 477.688 449.816 478.026 457.568C478.458 465.352 478.604 472.699 478.35 479.571C477.438 489.392 472.167 505.63 467.64 511.883C461.807 517.021 446.545 523.441 437.368 524.825C430.778 525.335 423.838 525.281 416.626 524.687C409.181 524 401.544 522.865 393.779 521.331C385.872 519.822 377.89 518.016 369.888 515.959C361.777 514.051 353.664 511.999 345.583 509.852C337.396 507.964 329.232 506.076 321.104 504.226C312.853 502.726 304.619 501.333 296.417 500.063C288.066 499.198 279.721 498.49 271.405 497.937C262.939 497.788 254.493 497.769 246.09 497.846C237.562 498.25 229.098 498.683 220.74 499.076C212.305 499.665 204.224 500.074 196.52 500.257C188.802 500.445 181.522 500.27 174.687 499.715C167.908 498.988 161.62 497.78 155.821 496.068C147.543 492.801 133.687 483.02 128.087 476.507C124.614 471.653 121.59 466.288 118.999 460.472C116.445 454.332 114.285 447.778 112.487 440.859C110.665 433.678 109.152 426.175 107.91 418.411C106.588 410.435 105.495 402.244 104.596 393.888C103.57 385.377 102.713 376.733 102.01 368.016C101.146 359.193 100.419 350.311 99.8291 341.415C99.0988 332.466 98.5075 323.525 98.0621 314.65C97.5255 305.733 97.1672 296.908 97.0327 288.195C96.8586 279.496 96.9539 270.93 97.3387 262.549C97.7791 254.215 98.581 246.077 99.7828 238.195C101.121 230.375 102.923 222.819 105.202 215.565C107.713 208.405 110.678 201.723 114.087 195.515C117.733 189.414 121.828 183.778 126.331 178.601C131.038 173.504 136.14 168.848 141.572 164.626C147.176 160.46 153.071 156.698 159.227 153.328C165.477 149.968 171.939 146.967 178.576 144.307C185.239 141.615 192.035 139.236 198.933 137.143C205.8 134.971 212.745 133.064 219.741 131.41C226.677 129.62 233.663 128.061 240.662 126.694C247.609 125.172 254.586 123.828 261.583 122.658C268.537 121.292 275.528 120.086 282.558 119.04C289.561 117.784 296.637 116.682 303.764 115.735C310.888 114.578 318.102 113.582 325.405 112.757C332.709 111.758 340.115 110.947 347.619 110.356C355.136 109.617 362.761 109.146 370.47 108.954C378.185 108.699 385.984 108.767 393.862 109.221C401.727 109.681 409.65 110.572 417.605 111.95" stroke="url(#paint6_linear_802_49)" stroke-width="2" stroke-linecap="round" stroke-dasharray="4 8"/>
<path opacity="0.32" d="M429.782 131.198C437.268 133.114 444.557 135.479 451.596 138.29C458.581 141.241 465.32 144.651 471.79 148.518C478.166 152.539 484.26 157.021 490.051 161.919C495.715 166.988 501.064 172.454 506.062 178.277C510.908 184.234 515.373 190.52 519.441 197.057C523.318 203.697 526.75 210.551 529.704 217.557C532.446 224.596 534.671 231.732 536.344 238.9C537.759 246.043 538.592 253.168 538.81 260.235C538.758 267.213 538.082 274.083 536.767 280.813C535.199 287.442 533.01 293.917 530.223 300.196C527.245 306.406 523.744 312.449 519.738 318.334C515.688 324.194 511.265 329.945 506.541 335.602C501.945 341.339 497.201 347.054 492.385 352.775C487.926 358.7 483.541 364.698 479.326 370.822C475.64 377.231 472.23 383.822 469.142 390.575C466.684 397.678 464.591 404.966 462.837 412.426C461.687 420.199 460.817 427.895 460.175 435.464C459.906 443.223 459.686 450.746 459.425 457.964C459.279 465.221 458.918 472.056 458.267 478.417C456.907 487.53 451.502 502.473 447.301 508.15C442.03 512.775 428.451 518.301 420.328 519.302C414.476 519.583 408.292 519.299 401.855 518.516C395.17 517.645 388.292 516.329 381.269 514.651C374.062 512.977 366.761 511.014 359.391 508.82C351.873 506.751 344.325 504.53 336.757 502.218C329.065 500.136 321.344 498.026 313.643 495.938C305.786 494.164 297.927 492.457 290.069 490.852C282.063 489.588 274.048 488.444 266.061 487.418C257.92 486.74 249.795 486.161 241.725 485.647C233.527 485.414 225.399 485.198 217.407 484.941C209.321 484.837 201.588 484.606 194.24 484.185C186.88 483.767 179.952 483.072 173.464 482.046C164.054 480.118 147.805 473.828 141.008 469.365C134.856 464 125.09 450.513 121.389 442.47C119.106 436.688 117.206 430.51 115.668 424.017C114.121 417.269 112.882 410.221 111.92 402.912C110.906 395.406 110.121 387.682 109.543 379.786C108.872 371.726 108.383 363.537 108.05 355.25C107.603 346.856 107.297 338.391 107.144 329.917C106.877 321.359 106.761 312.814 106.81 304.324C106.787 295.795 106.942 287.339 107.316 279.024C107.673 270.7 108.276 262.53 109.163 254.548C110.108 246.608 111.391 238.883 113.032 231.42C114.81 224.042 117.01 216.936 119.647 210.156C122.482 203.472 125.732 197.283 129.37 191.575C133.225 185.973 137.459 180.847 142.068 176.184C146.867 171.612 152.001 167.493 157.441 163.799C163.039 160.168 168.907 156.944 175.001 154.102C181.206 151.285 187.597 148.819 194.149 146.688C200.745 144.537 207.476 142.685 214.284 141.113C221.107 139.469 228.003 138.069 234.937 136.917C241.865 135.648 248.823 134.576 255.802 133.698C262.745 132.676 269.724 131.82 276.715 131.13C283.689 130.26 290.69 129.553 297.718 128.985C304.734 128.228 311.794 127.621 318.9 127.162C326.001 126.521 333.166 126.037 340.391 125.734C347.618 125.262 354.924 124.979 362.285 124.931C369.655 124.74 377.098 124.816 384.577 125.16C392.068 125.443 399.602 126.044 407.152 127.017C414.693 127.986 422.24 129.366 429.769 131.202" stroke="url(#paint7_linear_802_49)" stroke-width="2" stroke-linecap="round" stroke-dasharray="1 9"/>
<path opacity="0.35" d="M439.026 150.646C446.036 152.94 452.795 155.63 459.291 158.698C465.712 161.885 471.84 165.478 477.661 169.445C483.378 173.558 488.778 178.04 493.832 182.882C498.756 187.856 503.314 193.165 507.487 198.763C511.51 204.468 515.121 210.433 518.289 216.591C521.288 222.83 523.821 229.226 525.871 235.729C527.709 242.252 529.037 248.832 529.835 255.407C530.402 261.955 530.411 268.469 529.868 274.882C529.088 281.24 527.736 287.473 525.82 293.55C523.714 299.554 521.065 305.404 517.891 311.076C514.597 316.695 510.849 322.17 506.695 327.482C502.536 332.802 498.067 338.033 493.355 343.181C488.794 348.426 484.101 353.657 479.368 358.911C474.954 364.354 470.606 369.898 466.402 375.534C462.654 381.458 459.132 387.548 455.878 393.796C453.156 400.381 450.723 407.125 448.577 414.015C446.938 421.226 445.56 428.341 444.379 435.333C443.524 442.52 442.747 449.471 441.955 456.129C441.283 462.839 440.471 469.154 439.463 475.012C437.68 483.422 432.105 497.172 428.145 502.346C423.347 506.564 411.243 511.461 404.054 512.238C398.878 512.395 393.396 512.027 387.68 511.168C381.731 510.209 375.575 508.847 369.264 507.114C362.759 505.389 356.124 503.38 349.407 501.13C342.525 498.989 335.565 496.692 328.566 494.288C321.4 492.073 314.188 489.818 306.96 487.553C299.574 485.554 292.153 483.593 284.725 481.698C277.13 480.087 269.525 478.566 261.939 477.127C254.185 475.973 246.46 474.884 238.789 473.841C230.988 473.024 223.276 472.215 215.676 471.359C207.999 470.644 200.666 469.815 193.707 468.844C186.729 467.884 180.175 466.684 174.051 465.236C165.16 462.735 149.854 455.749 143.474 451.169C137.72 445.824 128.65 432.797 125.255 425.146C123.185 419.683 121.492 413.867 120.148 407.763C118.814 401.416 117.79 394.805 117.052 387.948C116.27 380.897 115.739 373.639 115.422 366.208C115.036 358.627 114.848 350.9 114.839 343.096C114.741 335.153 114.796 327.153 115.029 319.135C115.163 311.031 115.471 302.931 115.953 294.894C116.373 286.805 116.986 278.803 117.815 270.926C118.637 263.044 119.703 255.317 121.032 247.792C122.429 240.31 124.128 233.042 126.164 226.047C128.32 219.14 130.862 212.523 133.799 206.217C136.916 200.036 140.389 194.34 144.201 189.119C148.207 184.022 152.558 179.39 157.207 175.22C162.054 171.151 167.188 167.524 172.586 164.324C178.142 161.189 183.92 158.454 189.914 156.105C196.015 153.776 202.287 151.792 208.701 150.146C215.183 148.485 221.781 147.109 228.455 146.006C235.174 144.849 241.96 143.924 248.776 143.231C255.613 142.432 262.487 141.835 269.374 141.423C276.261 140.881 283.168 140.494 290.095 140.262C297.019 139.886 303.96 139.65 310.91 139.551C317.876 139.295 324.873 139.178 331.881 139.21C338.911 139.078 345.97 139.106 353.057 139.294C360.158 139.349 367.302 139.597 374.462 140.045C381.636 140.395 388.841 140.977 396.05 141.834C403.265 142.624 410.471 143.728 417.658 145.162C424.822 146.595 431.951 148.419 439.018 150.641" stroke="url(#paint8_linear_802_49)" stroke-width="2" stroke-linecap="round" stroke-dasharray="11 8"/>
<path opacity="0.39" d="M445.295 169.815C451.801 172.431 458.013 175.378 463.922 178.635C469.76 181.99 475.272 185.687 480.449 189.685C485.516 193.8 490.23 198.226 494.57 202.924C498.785 207.74 502.61 212.817 506.017 218.106C509.275 223.498 512.111 229.075 514.496 234.792C516.718 240.562 518.47 246.447 519.737 252.384C520.814 258.342 521.399 264.311 521.486 270.249C521.363 276.168 520.729 282.022 519.578 287.769C518.24 293.465 516.392 299.045 514.048 304.472C511.56 309.843 508.598 315.063 505.197 320.122C501.714 325.157 497.845 330.058 493.647 334.815C489.464 339.621 485.038 344.334 480.407 348.972C475.925 353.744 471.349 358.509 466.732 363.28C462.404 368.264 458.139 373.333 453.972 378.486C450.203 383.944 446.616 389.524 443.237 395.244C440.301 401.291 437.602 407.487 435.134 413.791C433.085 420.403 431.273 426.93 429.639 433.315C428.288 439.907 427.023 446.264 425.781 452.354C424.051 461.399 419.933 477.367 417.286 484.049C410.023 494.286 395.051 503.069 388.675 503.752C381.67 503.686 366.156 501.044 357.766 498.693C351.937 496.997 345.965 495.022 339.879 492.814C333.618 490.675 327.261 488.38 320.842 485.951C314.245 483.678 307.574 481.337 300.871 478.972C293.983 476.808 287.062 474.655 280.122 472.527C273.005 470.64 265.865 468.786 258.74 466.993C251.45 465.426 244.18 463.898 236.971 462.39C229.633 461.074 222.37 459.738 215.23 458.356C208.012 457.078 201.12 455.729 194.589 454.261C188.029 452.798 181.872 451.158 176.134 449.305C167.784 446.275 153.426 438.623 147.451 433.902C142.054 428.55 133.604 415.872 130.471 408.574C128.567 403.385 127.032 397.896 125.851 392.147C124.68 386.181 123.823 379.974 123.253 373.545C122.665 366.94 122.332 360.139 122.226 353.181C122.083 346.072 122.134 338.833 122.387 331.507C122.579 324.061 122.948 316.559 123.491 309.024C123.979 301.412 124.642 293.815 125.491 286.27C126.303 278.672 127.322 271.165 128.539 263.778C129.763 256.396 131.225 249.165 132.938 242.132C134.71 235.153 136.772 228.389 139.132 221.894C141.619 215.479 144.445 209.364 147.628 203.573C150.971 197.901 154.615 192.699 158.553 187.973C162.666 183.365 167.07 179.205 171.737 175.514C176.575 171.91 181.659 168.749 186.977 165.996C192.437 163.335 198.105 161.05 203.95 159.132C209.902 157.255 216.013 155.719 222.242 154.493C228.557 153.269 234.973 152.33 241.471 151.65C248.021 150.934 254.627 150.445 261.279 150.164C267.964 149.82 274.683 149.65 281.415 149.665C288.181 149.566 294.955 149.624 301.74 149.838C308.547 149.919 315.367 150.134 322.18 150.494C329.022 150.713 335.878 151.066 342.727 151.563C349.604 151.92 356.499 152.438 363.381 153.109C370.296 153.668 377.209 154.398 384.11 155.331C391.04 156.173 397.947 157.248 404.819 158.557C411.707 159.827 418.543 161.371 425.312 163.224C432.058 165.075 438.728 167.265 445.281 169.817" stroke="url(#paint9_linear_802_49)" stroke-width="2" stroke-linecap="round" stroke-dasharray="9 8"/>
<path opacity="0.43" d="M448.647 188.284C454.616 191.145 460.266 194.273 465.596 197.653C470.84 201.119 475.743 204.832 480.283 208.801C489.06 217.019 496.293 226.155 501.885 235.97C506.911 246.065 510.18 256.62 511.608 267.317C512.379 278.044 511.253 288.655 508.243 298.857C504.648 308.929 499.283 318.505 492.347 327.441C485.216 336.407 476.923 344.962 467.844 353.177C459.32 361.943 450.621 370.822 442.151 379.91C438.393 384.866 434.773 389.952 431.325 395.146C428.242 400.65 425.332 406.276 422.613 411.985C420.238 418.001 418.068 423.914 416.064 429.694C414.304 435.681 412.626 441.448 410.998 446.957C408.049 458.182 404.765 467.889 400.923 475.767C396.656 483.218 391.422 488.52 385.229 491.615C378.234 494.079 370.243 494.473 361.436 493.018C351.844 491.25 341.549 488.056 330.777 483.773C319.292 479.724 307.367 475.051 295.231 470.04C282.382 465.697 269.315 461.286 256.251 456.917C249.479 455.015 242.715 453.119 236.014 451.21C229.184 449.469 222.429 447.685 215.79 445.843C209.073 444.092 202.663 442.274 196.579 440.366C190.482 438.473 184.756 436.436 179.408 434.235C168.814 429.618 159.89 424.072 152.677 417.565C145.766 410.396 140.53 402.106 136.865 392.789C133.429 382.708 131.36 371.623 130.483 359.755C129.624 347.232 129.742 334.057 130.702 320.508C131.542 306.529 133.142 292.383 135.471 278.384C137.753 264.253 140.866 250.489 144.875 237.447C146.966 230.994 149.324 224.767 151.965 218.794C154.698 212.913 157.753 207.319 161.116 202.04C164.632 196.891 168.403 192.182 172.424 187.935C176.59 183.812 181.003 180.123 185.643 176.862C195.361 170.689 205.933 166.121 217.125 163.014C228.767 160.12 240.921 158.461 253.373 157.871C266.086 157.174 279.024 157.339 292.013 158.216C305.173 158.754 318.401 159.874 331.573 161.539C344.887 162.759 358.209 164.51 371.406 166.839C384.737 168.796 397.97 171.47 410.933 174.938C417.425 176.629 423.852 178.567 430.158 180.769C436.45 182.973 442.624 185.47 448.639 188.277" stroke="url(#paint10_linear_802_49)" stroke-width="2" stroke-linecap="round" stroke-dasharray="8 3"/>
<path opacity="0.47" d="M449.249 205.653C460.029 211.785 469.439 218.757 477.398 226.423C484.986 234.382 491.003 242.999 495.384 252.057C499.251 261.326 501.395 270.851 501.799 280.365C501.645 289.906 499.721 299.252 496.116 308.155C492.052 316.998 486.448 325.369 479.496 333.173C472.445 341.091 464.415 348.68 455.732 355.963C447.55 363.85 439.199 371.838 431.005 379.993C423.868 389.242 417.181 398.917 411.084 408.877C406.094 419.936 401.685 430.487 397.665 440.228C394.058 450.333 390.29 459.075 386.194 466.179C381.82 472.982 376.755 477.847 370.992 480.739C364.601 483.114 357.407 483.58 349.56 482.342C340.995 480.82 331.803 477.926 322.147 473.947C311.799 470.117 301.021 465.597 289.969 460.642C278.251 456.181 266.297 451.518 254.299 446.756C241.721 442.572 229.233 438.254 217.118 433.726C204.709 429.484 193.498 424.92 183.641 419.932C173.875 414.752 165.635 408.829 158.965 402.148C152.566 394.934 147.72 386.793 144.344 377.824C141.21 368.209 139.375 357.754 138.722 346.637C138.134 334.94 138.544 322.695 139.829 310.131C141.074 297.206 143.117 284.126 145.926 271.221C148.74 258.21 152.393 245.574 156.908 233.642C161.652 221.921 167.422 211.109 174.308 201.488C181.679 192.344 189.943 184.916 198.952 179.142C208.482 173.823 218.72 170.025 229.501 167.628C240.696 165.468 252.333 164.485 264.234 164.545C276.418 164.56 288.816 165.401 301.248 166.948C313.89 168.239 326.581 170.109 339.198 172.496C351.975 174.549 364.707 177.105 377.247 180.2C389.918 183.018 402.405 186.467 414.495 190.634C426.62 194.723 438.287 199.693 449.242 205.646" stroke="url(#paint11_linear_802_49)" stroke-width="2" stroke-linecap="round" stroke-dasharray="2 7"/>
<path opacity="0.51" d="M447.356 221.573C457.016 227.913 465.287 234.841 472.113 242.234C478.592 249.854 483.53 257.89 486.874 266.148C489.777 274.57 491.037 283.084 490.677 291.457C489.839 299.865 487.41 308.012 483.477 315.715C479.198 323.417 473.57 330.683 466.79 337.447C459.984 344.408 452.338 351.083 444.133 357.52C436.366 364.557 428.416 371.689 420.55 378.96C413.529 387.233 406.828 395.85 400.545 404.685C395.159 414.516 390.269 423.867 385.771 432.47C381.633 441.463 377.462 449.243 373.123 455.581C368.627 461.726 363.66 466.163 358.204 468.857C352.264 471.138 345.712 471.703 338.632 470.705C330.951 469.452 322.726 466.89 314.07 463.268C304.785 459.735 295.086 455.448 285.114 450.626C274.525 446.164 263.687 441.375 252.807 436.356C241.404 431.774 230.065 426.947 219.062 421.836C207.79 416.964 197.605 411.811 188.645 406.307C179.751 400.666 172.238 394.428 166.144 387.59C160.287 380.341 155.863 372.357 152.791 363.697C149.956 354.521 148.36 344.648 147.909 334.242C147.564 323.368 148.219 312.024 149.759 300.443C151.339 288.56 153.725 276.577 156.9 264.791C160.129 252.93 164.17 241.459 169.057 230.655C174.148 220.083 180.187 210.37 187.239 201.802C194.69 193.683 202.885 187.175 211.702 182.214C220.966 177.698 230.831 174.614 241.119 172.838C251.794 171.334 262.861 170.952 274.138 171.545C285.704 172.178 297.448 173.6 309.235 175.706C321.231 177.654 333.27 180.164 345.187 183.17C357.295 185.939 369.303 189.198 381.055 192.938C392.946 196.488 404.569 200.595 415.723 205.304C426.895 209.972 437.518 215.378 447.356 221.573Z" stroke="url(#paint12_linear_802_49)" stroke-width="2" stroke-linecap="round" stroke-dasharray="1 8"/>
<path opacity="0.54" d="M443.278 235.814C451.832 242.221 459.017 249.011 464.792 256.05C470.267 263.256 474.252 270.672 476.746 278.148C478.855 285.73 479.435 293.274 478.541 300.588C477.257 307.936 474.542 314.996 470.523 321.619C466.226 328.291 460.76 334.573 454.312 340.412C447.874 346.495 440.704 352.346 433.046 358.004C425.746 364.244 418.257 370.566 410.783 376.99C403.953 384.319 397.323 391.91 390.989 399.64C385.329 408.265 380.119 416.443 375.257 423.939C370.721 431.828 366.225 438.652 361.694 444.23C357.054 449.716 352.141 453.711 346.901 456.179C341.301 458.342 335.248 458.977 328.803 458.198C321.852 457.201 314.442 454.982 306.683 451.733C298.356 448.515 289.663 444.507 280.729 439.89C271.234 435.527 261.527 430.722 251.771 425.576C241.553 420.746 231.394 415.582 221.546 410.053C211.451 404.726 202.327 399.121 194.296 393.232C186.319 387.251 179.57 380.782 174.094 373.854C168.829 366.626 164.849 358.79 162.128 350.442C159.625 341.688 158.278 332.388 158.02 322.668C157.911 312.583 158.77 302.133 160.519 291.53C162.343 280.68 164.992 269.803 168.426 259.13C171.949 248.44 176.261 238.139 181.373 228.486C186.683 219.059 192.861 210.453 199.947 202.915C207.368 195.814 215.413 190.2 223.963 186C232.869 182.233 242.284 179.803 252.051 178.589C262.146 177.653 272.564 177.78 283.16 178.83C294.022 179.964 305.047 181.869 316.079 184.423C327.334 186.908 338.595 189.942 349.715 193.45C361.012 196.81 372.183 200.631 383.049 204.876C394.051 209.003 404.711 213.619 414.856 218.732C425.017 223.832 434.566 229.514 443.278 235.814Z" stroke="url(#paint13_linear_802_49)" stroke-width="2" stroke-linecap="round" stroke-dasharray="6 4"/>
<path opacity="0.58" d="M437.401 248.212C444.867 254.582 451.029 261.118 455.859 267.743C460.426 274.494 463.605 281.286 465.409 287.992C466.891 294.791 466.99 301.437 465.761 307.797C464.227 314.203 461.416 320.289 457.469 325.963C453.323 331.734 448.157 337.158 442.155 342.188C436.161 347.501 429.534 352.62 422.476 357.557C415.693 363.055 408.688 368.615 401.641 374.24C395.09 380.651 388.624 387.246 382.321 393.925C376.55 401.391 371.141 408.426 366.065 414.858C361.237 421.666 356.502 427.561 351.821 432.377C344.632 438.947 328.931 445.241 320.162 444.956C313.812 444.177 307.108 442.264 300.137 439.366C292.683 436.463 284.917 432.759 276.962 428.39C268.51 424.192 259.891 419.47 251.255 414.304C242.215 409.381 233.241 404.03 224.555 398.262C215.651 392.638 207.611 386.742 200.544 380.612C193.504 374.416 187.558 367.844 182.743 360.898C178.104 353.727 174.626 346.102 172.281 338.087C170.129 329.765 169.063 321.038 169.014 311.999C169.121 302.689 170.161 293.122 172.076 283.481C174.085 273.658 176.909 263.871 180.507 254.329C184.209 244.802 188.679 235.655 193.9 227.138C199.291 218.843 205.484 211.327 212.499 204.801C219.77 198.681 227.565 193.916 235.768 190.441C244.263 187.372 253.171 185.527 262.349 184.799C271.806 184.366 281.53 184.919 291.39 186.329C301.481 187.874 311.706 190.146 321.902 193.047C332.318 195.935 342.71 199.367 352.938 203.242C363.342 207.037 373.577 211.267 383.467 215.881C393.479 220.426 403.131 225.388 412.219 230.748C421.312 236.115 429.784 241.941 437.401 248.212Z" stroke="url(#paint14_linear_802_49)" stroke-width="2" stroke-linecap="round" stroke-dasharray="8 10"/>
<path opacity="0.62" d="M430.098 258.725C436.525 264.917 441.737 271.152 445.732 277.326C449.49 283.587 451.986 289.768 453.249 295.759C454.128 304.734 449.589 321.387 444.475 328.894C440.58 333.878 435.824 338.555 430.326 342.915C424.851 347.539 418.812 351.998 412.367 356.306C406.126 361.12 399.645 365.954 393.075 370.815C386.852 376.353 380.631 382.017 374.487 387.694C368.721 394.042 363.248 399.995 358.067 405.406C353.073 411.169 348.211 416.147 343.433 420.217C336.198 425.832 321.004 431.317 312.822 431.118C306.979 430.485 300.888 428.821 294.598 426.235C287.927 423.624 281.015 420.218 273.971 416.13C266.516 412.147 258.942 407.587 251.393 402.521C243.493 397.606 235.686 392.226 228.151 386.37C220.425 380.623 213.474 374.623 207.38 368.391C201.294 362.133 196.173 355.549 192.054 348.688C188.076 341.689 185.123 334.331 183.191 326.685C181.432 318.838 180.662 310.686 180.831 302.349C181.151 293.813 182.36 285.12 184.397 276.431C186.531 267.63 189.471 258.914 193.141 250.476C196.912 242.072 201.423 234.067 206.631 226.667C211.993 219.479 218.08 213.008 224.893 207.458C231.926 202.279 239.382 198.319 247.16 195.52C255.171 193.095 263.511 191.782 272.053 191.48C280.823 191.462 289.801 192.361 298.866 194.048C308.146 195.89 317.5 198.435 326.825 201.56C336.322 204.726 345.778 208.408 355.048 212.516C364.465 216.599 373.688 221.09 382.563 225.903C391.532 230.698 400.115 235.847 408.128 241.307C416.15 246.785 423.534 252.598 430.098 258.725Z" stroke="url(#paint15_linear_802_49)" stroke-width="2" stroke-linecap="round" stroke-dasharray="5 4"/>
<path opacity="0.66" d="M421.771 267.399C427.215 273.328 431.547 279.176 434.791 284.876C438.811 293.428 441.04 309.525 439.364 316.893C436.423 324.042 425.972 336.874 418.872 342.674C413.934 346.708 408.493 350.592 402.671 354.326C397.005 358.505 391.071 362.679 384.99 366.823C379.165 371.554 373.259 376.323 367.357 381.057C361.717 386.364 356.308 391.296 351.142 395.737C346.121 400.507 341.213 404.604 336.424 407.925C329.236 412.582 314.545 417.1 306.87 416.876C301.478 416.311 295.927 414.825 290.264 412.496C284.284 410.129 278.158 407.012 271.967 403.219C265.443 399.472 258.861 395.133 252.339 390.245C245.537 385.468 238.845 380.174 232.431 374.394C225.86 368.678 219.969 362.717 214.838 356.539C209.708 350.361 205.415 343.919 202.008 337.267C198.701 330.524 196.308 323.513 194.813 316.32C193.464 308.992 193.005 301.463 193.398 293.84C193.928 286.085 195.269 278.268 197.396 270.52C199.622 262.726 202.592 255.054 206.25 247.688C210.013 240.382 214.457 233.484 219.551 227.141C224.757 221.01 230.637 215.556 237.163 210.925C243.847 206.628 250.879 203.417 258.158 201.239C265.608 199.401 273.329 198.553 281.196 198.62C289.227 198.941 297.424 200.102 305.664 201.984C314.075 204.039 322.526 206.74 330.922 209.976C339.454 213.291 347.917 217.093 356.189 221.284C364.577 225.508 372.752 230.077 380.571 234.947C388.462 239.828 395.962 245.005 402.916 250.407C409.865 255.845 416.205 261.516 421.771 267.399Z" stroke="url(#paint16_linear_802_49)" stroke-width="2" stroke-linecap="round" stroke-dasharray="2 7"/>
<path opacity="0.7" d="M412.748 274.358C419.051 282.644 426.593 298.336 427.848 305.596C427.928 312.65 423.467 325.34 419.182 330.974C414.075 336.509 400.973 346.754 393.355 351.659C388.265 355.256 382.89 358.814 377.342 362.31C371.962 366.267 366.443 370.224 360.866 374.086C355.461 378.418 350.228 382.393 345.191 385.936C337.838 391.382 323.67 399.306 316.701 401.446C309.576 402.746 294.895 401.133 287.267 398.313C281.937 396.153 276.537 393.291 271.142 389.782C265.485 386.29 259.828 382.218 254.279 377.599C248.514 373.033 242.885 367.962 237.541 362.383C232.057 356.859 227.194 351.082 222.993 345.132C218.789 339.173 215.327 332.999 212.612 326.673C209.982 320.293 208.141 313.733 207.096 307.067C206.157 300.316 206.014 293.459 206.624 286.576C207.35 279.637 208.818 272.699 210.989 265.883C213.25 259.053 216.187 252.411 219.768 246.076C223.431 239.837 227.714 233.979 232.59 228.651C237.557 223.525 243.123 219.002 249.244 215.239C255.486 211.761 262.018 209.244 268.741 207.629C275.581 206.312 282.622 205.872 289.762 206.231C297.027 206.83 304.399 208.172 311.792 210.171C319.3 212.329 326.826 215.081 334.256 218.332C341.808 221.675 349.253 225.457 356.507 229.603C363.837 233.806 370.954 238.317 377.714 243.096C384.535 247.895 390.97 252.94 396.882 258.158C402.782 263.402 408.118 268.823 412.748 274.358Z" stroke="url(#paint17_linear_802_49)" stroke-width="2" stroke-linecap="round" stroke-dasharray="4 4"/>
<path opacity="0.73" d="M403.341 279.816C410.623 290.129 414.473 299.676 415.16 308.081C415.346 316.622 412.462 324.116 407.047 330.377C401.386 337.124 393.604 343.115 384.383 348.351C375.391 354.793 365.393 361.066 354.915 366.807C344.889 374.031 335.257 379.698 326.196 383.428C317.133 387.556 308.151 389.083 299.443 387.886C290.174 386.57 280.782 382.538 271.67 376.072C261.789 369.626 252.18 361.023 243.599 350.507C234.614 340.106 227.973 328.757 223.864 317.028C219.968 305.212 218.834 292.882 220.389 280.711C222.29 268.474 226.763 256.526 233.549 245.785C240.6 235.392 249.867 226.634 261.093 220.471C272.616 215.263 285.053 213.363 297.735 214.34C310.737 216.139 324.029 220.456 336.884 226.668C350.048 233.265 362.754 241.388 374.18 250.442C385.71 259.632 395.754 269.599 403.341 279.816Z" stroke="url(#paint18_linear_802_49)" stroke-width="2" stroke-linecap="round" stroke-dasharray="5 1"/>
<path opacity="0.77" d="M393.789 284.015C399.554 293.322 402.461 301.833 402.738 309.256C402.66 316.784 400.046 323.358 395.337 328.842C390.436 334.731 383.708 339.93 375.704 344.382C367.819 349.771 358.932 354.831 349.45 359.24C340.24 364.766 331.269 368.9 322.796 371.398C314.3 374.28 305.97 375.028 298.024 373.569C289.687 372.058 281.451 368.274 273.694 362.373C265.378 356.461 257.508 348.594 250.735 338.98C243.642 329.441 238.615 319.077 235.759 308.469C233.025 297.853 232.658 286.947 234.556 276.371C236.701 265.84 241.069 255.762 247.426 246.89C253.989 238.37 262.44 231.369 272.572 226.663C282.897 222.734 293.917 221.631 305.043 222.988C316.365 224.999 327.821 229.197 338.8 235.037C349.969 241.244 360.633 248.803 370.096 257.147C379.603 265.636 387.759 274.76 393.789 284.015Z" stroke="url(#paint19_linear_802_49)" stroke-width="2" stroke-linecap="round" stroke-dasharray="9 9"/>
<path opacity="0.81" d="M384.223 287.211C388.662 295.417 390.751 302.869 390.719 309.367C390.436 315.937 388.111 321.663 384.063 326.441C379.887 331.555 374.177 336.015 367.344 339.735C360.562 344.146 352.807 348.117 344.445 351.346C336.218 355.403 328.119 358.184 320.438 359.61C312.72 361.367 305.208 361.398 298.14 359.666C290.821 357.944 283.746 354.359 277.28 349.024C270.448 343.678 264.173 336.651 259.003 328.118C253.605 319.621 250.013 310.458 248.249 301.191C246.549 291.943 246.817 282.59 248.95 273.685C251.24 264.865 255.391 256.595 261.201 249.495C267.13 242.699 274.652 237.287 283.56 233.869C292.564 231.043 302.073 230.587 311.598 232.164C321.216 234.254 330.848 238.184 339.976 243.503C349.213 249.119 357.919 255.904 365.54 263.361C373.169 270.939 379.597 279.036 384.223 287.211Z" stroke="url(#paint20_linear_802_49)" stroke-width="2" stroke-linecap="round" stroke-dasharray="8 2"/>
<path opacity="0.85" d="M374.741 289.661C378.694 299.857 377.684 316.686 373.266 323.25C369.763 327.593 365.021 331.344 359.321 334.379C353.614 337.897 347.066 340.888 339.907 343.111C332.818 345.889 325.779 347.549 319.081 348.094C312.345 348.883 305.827 348.317 299.769 346.384C293.543 344.486 287.668 341.131 282.451 336.401C277.002 331.652 272.184 325.55 268.422 318.249C264.499 310.952 262.121 303.185 261.248 295.402C260.399 287.667 261.138 279.959 263.368 272.739C265.687 265.622 269.496 259.093 274.625 253.629C279.818 248.421 286.283 244.413 293.845 242.084C301.445 240.193 309.39 240.218 317.271 241.876C325.175 243.904 333.024 247.432 340.373 252.09C347.751 256.966 354.636 262.821 360.557 269.234C366.455 275.73 371.339 282.669 374.741 289.661Z" stroke="url(#paint21_linear_802_49)" stroke-width="2" stroke-linecap="round" stroke-dasharray="3 4"/>
<path opacity="0.89" d="M365.331 291.582C369.737 303.058 368.454 312.635 362.953 319.304C357.184 326.608 347.6 332.086 335.894 334.485C324.227 338.294 312.579 338.002 302.827 333.942C292.669 330.039 283.904 321.689 278.91 309.745C273.496 297.808 273.311 284.789 277.594 273.633C282.024 262.845 290.981 254.438 303.232 251.308C315.506 249.308 328.604 253.202 339.895 260.813C351.177 269.004 360.576 280.113 365.331 291.582Z" stroke="url(#paint22_linear_802_49)" stroke-width="2" stroke-linecap="round"/>
<path opacity="0.92" d="M355.967 293.141C358.754 301.925 357.452 309.378 353.15 314.616C348.689 320.216 341.407 324.19 332.49 325.467C323.534 327.514 314.602 326.347 307.237 322.527C299.645 318.836 293.412 312.069 290.301 302.979C286.97 293.877 287.578 284.316 291.365 276.419C295.19 268.774 302.217 263.124 311.484 261.454C320.717 260.453 330.352 263.728 338.451 269.649C346.493 275.906 352.971 284.347 355.967 293.141Z" stroke="url(#paint23_linear_802_49)" stroke-width="2" stroke-linecap="round" stroke-dasharray="5 10"/>
<path opacity="0.96" d="M346.548 294.428C349.442 306.367 341.819 315.42 329.806 316.038C317.64 317.988 305.535 310.527 302.375 298.284C298.818 285.992 305.953 274.008 318.385 272.433C330.671 272.059 343.277 282.433 346.548 294.428Z" stroke="url(#paint24_linear_802_49)" stroke-width="2" stroke-linecap="round" stroke-dasharray="9 5"/>
<defs>
<linearGradient id="paint0_linear_802_49" x1="315.981" y1="17.3633" x2="315.981" y2="616.418" gradientUnits="userSpaceOnUse">
<stop stop-color="#FC7EFF"/>
<stop offset="1" stop-color="#6FDCFF"/>
</linearGradient>
<linearGradient id="paint1_linear_802_49" x1="335.153" y1="28.9706" x2="294.541" y2="603.981" gradientUnits="userSpaceOnUse">
<stop stop-color="#FC7EFF"/>
<stop offset="1" stop-color="#6FDCFF"/>
</linearGradient>
<linearGradient id="paint2_linear_802_49" x1="352.699" y1="41.7595" x2="274.864" y2="590.03" gradientUnits="userSpaceOnUse">
<stop stop-color="#FC7EFF"/>
<stop offset="1" stop-color="#6FDCFF"/>
</linearGradient>
<linearGradient id="paint3_linear_802_49" x1="368.542" y1="55.5537" x2="257.045" y2="574.756" gradientUnits="userSpaceOnUse">
<stop stop-color="#FC7EFF"/>
<stop offset="1" stop-color="#6FDCFF"/>
</linearGradient>
<linearGradient id="paint4_linear_802_49" x1="382.573" y1="70.1695" x2="241.101" y2="558.392" gradientUnits="userSpaceOnUse">
<stop stop-color="#FC7EFF"/>
<stop offset="1" stop-color="#6FDCFF"/>
</linearGradient>
<linearGradient id="paint5_linear_802_49" x1="394.77" y1="85.4116" x2="227.109" y2="541.102" gradientUnits="userSpaceOnUse">
<stop stop-color="#FC7EFF"/>
<stop offset="1" stop-color="#6FDCFF"/>
</linearGradient>
<linearGradient id="paint6_linear_802_49" x1="404.765" y1="100.938" x2="214.866" y2="522.694" gradientUnits="userSpaceOnUse">
<stop stop-color="#FC7EFF"/>
<stop offset="1" stop-color="#6FDCFF"/>
</linearGradient>
<linearGradient id="paint7_linear_802_49" x1="413.562" y1="117.005" x2="205.302" y2="504.11" gradientUnits="userSpaceOnUse">
<stop stop-color="#FC7EFF"/>
<stop offset="1" stop-color="#6FDCFF"/>
</linearGradient>
<linearGradient id="paint8_linear_802_49" x1="420.534" y1="133.196" x2="197.64" y2="485.507" gradientUnits="userSpaceOnUse">
<stop stop-color="#FC7EFF"/>
<stop offset="1" stop-color="#6FDCFF"/>
</linearGradient>
<linearGradient id="paint9_linear_802_49" x1="425.396" y1="149.108" x2="191.723" y2="466.518" gradientUnits="userSpaceOnUse">
<stop stop-color="#FC7EFF"/>
<stop offset="1" stop-color="#6FDCFF"/>
</linearGradient>
<linearGradient id="paint10_linear_802_49" x1="429.02" y1="165.158" x2="188.339" y2="447.957" gradientUnits="userSpaceOnUse">
<stop stop-color="#FC7EFF"/>
<stop offset="1" stop-color="#6FDCFF"/>
</linearGradient>
<linearGradient id="paint11_linear_802_49" x1="430.791" y1="180.717" x2="186.837" y2="429.487" gradientUnits="userSpaceOnUse">
<stop stop-color="#FC7EFF"/>
<stop offset="1" stop-color="#6FDCFF"/>
</linearGradient>
<linearGradient id="paint12_linear_802_49" x1="430.903" y1="195.687" x2="187.238" y2="411.416" gradientUnits="userSpaceOnUse">
<stop stop-color="#FC7EFF"/>
<stop offset="1" stop-color="#6FDCFF"/>
</linearGradient>
<linearGradient id="paint13_linear_802_49" x1="429.488" y1="210.008" x2="189.538" y2="393.995" gradientUnits="userSpaceOnUse">
<stop stop-color="#FC7EFF"/>
<stop offset="1" stop-color="#6FDCFF"/>
</linearGradient>
<linearGradient id="paint14_linear_802_49" x1="426.42" y1="223.154" x2="193.4" y2="377.036" gradientUnits="userSpaceOnUse">
<stop stop-color="#FC7EFF"/>
<stop offset="1" stop-color="#6FDCFF"/>
</linearGradient>
<linearGradient id="paint15_linear_802_49" x1="422.357" y1="235.784" x2="199.266" y2="361.489" gradientUnits="userSpaceOnUse">
<stop stop-color="#FC7EFF"/>
<stop offset="1" stop-color="#6FDCFF"/>
</linearGradient>
<linearGradient id="paint16_linear_802_49" x1="417.057" y1="247.461" x2="206.692" y2="347.169" gradientUnits="userSpaceOnUse">
<stop stop-color="#FC7EFF"/>
<stop offset="1" stop-color="#6FDCFF"/>
</linearGradient>
<linearGradient id="paint17_linear_802_49" x1="410.077" y1="258.395" x2="215.574" y2="334.306" gradientUnits="userSpaceOnUse">
<stop stop-color="#FC7EFF"/>
<stop offset="1" stop-color="#6FDCFF"/>
</linearGradient>
<linearGradient id="paint18_linear_802_49" x1="403.582" y1="267.72" x2="225.724" y2="323.048" gradientUnits="userSpaceOnUse">
<stop stop-color="#FC7EFF"/>
<stop offset="1" stop-color="#6FDCFF"/>
</linearGradient>
<linearGradient id="paint19_linear_802_49" x1="395.553" y1="275.856" x2="236.854" y2="313.196" gradientUnits="userSpaceOnUse">
<stop stop-color="#FC7EFF"/>
<stop offset="1" stop-color="#6FDCFF"/>
</linearGradient>
<linearGradient id="paint20_linear_802_49" x1="386.853" y1="282.762" x2="248.869" y2="305.111" gradientUnits="userSpaceOnUse">
<stop stop-color="#FC7EFF"/>
<stop offset="1" stop-color="#6FDCFF"/>
</linearGradient>
<linearGradient id="paint21_linear_802_49" x1="375.951" y1="288.539" x2="261.55" y2="298.869" gradientUnits="userSpaceOnUse">
<stop stop-color="#FC7EFF"/>
<stop offset="1" stop-color="#6FDCFF"/>
</linearGradient>
<linearGradient id="paint22_linear_802_49" x1="367.759" y1="292.942" x2="274.678" y2="294.762" gradientUnits="userSpaceOnUse">
<stop stop-color="#FC7EFF"/>
<stop offset="1" stop-color="#6FDCFF"/>
</linearGradient>
<linearGradient id="paint23_linear_802_49" x1="357.784" y1="295.838" x2="288.009" y2="292.278" gradientUnits="userSpaceOnUse">
<stop stop-color="#FC7EFF"/>
<stop offset="1" stop-color="#6FDCFF"/>
</linearGradient>
<linearGradient id="paint24_linear_802_49" x1="347.533" y1="297.452" x2="301.319" y2="291.811" gradientUnits="userSpaceOnUse">
<stop stop-color="#FC7EFF"/>
<stop offset="1" stop-color="#6FDCFF"/>
</linearGradient>
</defs>
</svg>
