<svg width="45" height="58" viewBox="0 0 45 58" fill="none" xmlns="http://www.w3.org/2000/svg">
<path d="M13.7068 30.2516V41.011C13.7068 41.611 13.2135 42.1043 12.6135 42.1043C12.4135 42.1043 12.2268 42.0509 12.0535 41.9443L9.25345 40.2644C8.42677 39.7711 7.9201 38.8778 7.9201 37.9178V33.3448C7.9201 32.3848 7.41343 31.4915 6.58675 30.9982L1.33335 27.8251C0.506673 27.3318 0 26.4385 0 25.4786V1.09327C0 0.493305 0.480006 0 1.09335 0C1.29335 0 1.50669 0.0533303 1.68002 0.159991L3.60004 1.35992C4.40005 1.86656 4.89339 2.74651 4.89339 3.69312V21.8388C4.89339 22.7987 5.40007 23.692 6.22674 24.1853L12.4002 27.8917C13.2002 28.3984 13.7068 29.2917 13.7068 30.2516Z" stroke="white" stroke-width="2" stroke-miterlimit="10"/>
<path d="M19.707 10.9727L8.98685 4.53308C8.46684 4.22643 7.80017 4.38642 7.4935 4.90639C7.38683 5.07971 7.3335 5.26637 7.3335 5.46636V18.4123C7.3335 19.3722 7.84017 20.2655 8.66685 20.7588L14.8269 24.4653C15.6536 24.9586 16.1603 25.8519 16.1603 26.8118V54.2102C16.1603 55.1702 16.6669 56.0635 17.4936 56.5568L19.387 57.6901C19.907 57.9967 20.5737 57.8367 20.8803 57.3167C20.987 57.1434 21.0403 56.9568 21.0403 56.7568V13.3059C21.0403 12.3726 20.5337 11.4793 19.707 10.9727Z" stroke="white" stroke-width="2" stroke-miterlimit="10"/>
<path d="M30.8135 30.2516V41.011C30.8135 41.611 31.3068 42.1043 31.9068 42.1043C32.1068 42.1043 32.2935 42.0509 32.4668 41.9443L35.2669 40.2644C36.0935 39.7711 36.6002 38.8778 36.6002 37.9178V33.3581C36.6002 32.3982 37.1069 31.5049 37.9336 31.0116L43.187 27.8517C44.0136 27.3584 44.5203 26.4652 44.5203 25.5052V1.09327C44.5203 0.493305 44.0403 0 43.427 0C43.2136 0 43.0136 0.0533303 42.8403 0.159991L40.9203 1.35992C40.1203 1.86656 39.6269 2.74651 39.6269 3.69312V21.8388C39.6269 22.7987 39.1202 23.692 38.2936 24.1853L32.1335 27.8917C31.3335 28.3984 30.8135 29.2917 30.8135 30.2516Z" stroke="white" stroke-width="2" stroke-miterlimit="10"/>
<path d="M24.8138 10.9728L35.5339 4.53319C36.054 4.21321 36.7206 4.38653 37.0406 4.89317C37.1473 5.06649 37.2006 5.26648 37.2006 5.46647V18.4124C37.2006 19.3723 36.694 20.2656 35.8673 20.7589L29.7072 24.4654C28.8805 24.9587 28.3739 25.852 28.3739 26.8119V54.2104C28.3739 55.1703 27.8672 56.0636 27.0405 56.5569L25.1472 57.6902C24.6271 57.9968 23.9605 57.8368 23.6538 57.3169C23.5471 57.1435 23.4938 56.9569 23.4938 56.7569L23.4805 13.3327C23.4805 12.3727 23.9871 11.4795 24.8138 10.9728Z" stroke="white" stroke-width="2" stroke-miterlimit="10"/>
</svg>
