<svg width="24" height="25" viewBox="0 0 24 25" fill="none" xmlns="http://www.w3.org/2000/svg">
<path d="M17 21.494V19.4973C17 18.4382 16.5786 17.4224 15.8284 16.6735C15.0783 15.9246 14.0609 15.5039 13 15.5039H5C3.93913 15.5039 2.92172 15.9246 2.17157 16.6735C1.42143 17.4224 1 18.4382 1 19.4973V21.494" stroke="white" stroke-width="2" stroke-linecap="round" stroke-linejoin="round"/>
<path d="M9 11.5102C11.2091 11.5102 13 9.7223 13 7.51681C13 5.31133 11.2091 3.52344 9 3.52344C6.79086 3.52344 5 5.31133 5 7.51681C5 9.7223 6.79086 11.5102 9 11.5102Z" stroke="white" stroke-width="2" stroke-linecap="round" stroke-linejoin="round"/>
<path d="M23 21.4931V19.4964C22.9993 18.6116 22.7044 17.7521 22.1614 17.0528C21.6184 16.3535 20.8581 15.854 20 15.6328" stroke="white" stroke-width="2" stroke-linecap="round" stroke-linejoin="round"/>
<path d="M16 3.65234C16.8604 3.87228 17.623 4.37185 18.1676 5.0723C18.7122 5.77275 19.0078 6.63423 19.0078 7.52093C19.0078 8.40763 18.7122 9.26911 18.1676 9.96956C17.623 10.67 16.8604 11.1696 16 11.3895" stroke="white" stroke-width="2" stroke-linecap="round" stroke-linejoin="round"/>
</svg>
