<svg width="330" height="451" viewBox="0 0 330 451" fill="none" xmlns="http://www.w3.org/2000/svg">
<path opacity="0.05" d="M2.39008 -157.35C11.8901 -159.44 21.46 -160.83 31.08 -161.49C40.72 -161.88 50.4401 -161.48 60.2301 -160.32C70.0801 -158.82 80.0301 -156.54 90.0901 -153.52C100.24 -150.17 110.53 -146.11 120.94 -141.4C131.47 -136.43 142.13 -130.86 152.9 -124.77C163.76 -118.5 174.69 -111.78 185.62 -104.66C196.54 -97.4799 207.37 -89.9599 217.98 -82.1799C228.4 -74.4099 238.43 -66.4099 247.91 -58.2299C256.94 -50.1299 265.22 -41.8699 272.56 -33.4699C279.18 -25.1799 284.68 -16.7699 288.93 -8.2399C292.31 0.170101 294.36 8.71008 295.06 17.3601C294.98 25.9201 293.68 34.6101 291.27 43.4501C288.49 52.2001 284.96 61.1201 280.93 70.2101C277.19 79.2401 273.46 88.4601 269.99 97.8701C267.55 107.25 265.84 116.84 265.04 126.64C265.74 136.42 267.53 146.42 270.39 156.63C274.66 166.84 279.62 177.01 284.99 187.13C291.04 197.24 296.9 207.29 302.28 217.22C307.46 227.14 311.61 236.93 314.52 246.52C316.58 256.07 317.1 265.39 316.05 274.43C313.88 283.36 310.13 291.96 304.93 300.14C298.73 308.16 291.28 315.71 282.8 322.72C273.67 329.51 263.81 335.7 253.42 341.23C242.79 346.5 231.89 351.09 220.89 354.96C209.97 358.56 199.11 361.47 188.4 363.69C177.95 365.72 167.7 367.15 157.68 368C147.97 368.86 138.45 369.29 129.12 369.39C120.05 369.74 111.09 369.96 102.22 370.14C93.5301 370.84 84.8501 371.71 76.1401 372.82C67.5401 374.69 58.84 376.93 50.05 379.59C41.29 383.07 32.3901 386.97 23.3501 391.24C14.3101 396.2 5.11007 401.38 -4.23993 406.63C-13.5899 412.24 -22.8599 417.48 -32.0199 422.22C-41.1699 426.85 -50.19 430.66 -59.04 433.56C-67.86 435.97 -76.4799 437.27 -84.8699 437.42C-93.1999 436.88 -101.27 435.14 -109.04 432.23C-116.74 428.61 -124.12 423.9 -131.15 418.18C-138.11 411.88 -144.72 404.73 -150.95 396.83C-157.15 388.56 -162.99 379.72 -168.47 370.43C-173.97 360.97 -179.14 351.21 -184.01 341.24C-188.97 331.27 -193.68 321.18 -198.14 311.06C-202.78 301.04 -207.24 291.02 -211.51 281.05C-216.03 271.21 -220.41 261.43 -224.65 251.71C-229.14 242.12 -233.5 232.58 -237.68 223.07C-242.09 213.68 -246.29 204.29 -250.23 194.91C-254.3 185.6 -258.04 176.26 -261.38 166.9C-264.72 157.57 -267.57 148.18 -269.87 138.76C-272.02 129.34 -273.52 119.86 -274.33 110.34C-274.87 100.82 -274.64 91.4701 -273.68 82.3301C-272.42 73.1901 -270.44 64.2501 -267.78 55.5601C-264.89 46.8701 -261.37 38.4301 -257.3 30.2801C-253.1 22.1401 -248.41 14.3001 -243.32 6.7901C-238.23 -0.6899 -232.81 -7.83991 -227.11 -14.6299C-221.54 -21.3799 -215.77 -27.7799 -209.82 -33.7899C-204.09 -39.7999 -198.21 -45.4399 -192.22 -50.6999C-186.47 -55.9999 -180.59 -60.9499 -174.6 -65.5599C-168.83 -70.2599 -162.9 -74.6599 -156.82 -78.7899C-150.91 -83.0599 -144.8 -87.1199 -138.47 -90.9599C-132.26 -95.0299 -125.79 -98.9399 -119.06 -102.7C-112.4 -106.74 -105.44 -110.67 -98.19 -114.49C-90.98 -118.6 -83.46 -122.6 -75.64 -126.47C-67.83 -130.59 -59.7299 -134.55 -51.3299 -138.28C-42.9399 -142.19 -34.2599 -145.8 -25.2999 -149.04C-16.3599 -152.31 -7.12993 -155.1 2.38007 -157.34" stroke="url(#paint0_linear_145_428)" stroke-width="2" stroke-linecap="round"/>
<path opacity="0.09" d="M26.2707 -146.615C35.6243 -148.039 45.0198 -148.779 54.4457 -148.815C63.884 -148.6 73.3592 -147.63 82.8827 -145.924C92.4343 -143.906 102.043 -141.133 111.71 -137.633C121.426 -133.829 131.214 -129.328 141.066 -124.191C150.97 -118.79 160.932 -112.793 170.909 -106.284C180.912 -99.5928 190.883 -92.4426 200.757 -84.9082C210.544 -77.2897 220.138 -69.344 229.413 -61.1302C238.448 -52.9333 247.007 -44.5294 254.954 -35.9683C262.446 -27.4994 269.137 -18.9067 274.891 -10.2497C279.982 -1.70984 283.987 6.87368 286.817 15.4945C288.876 23.9605 289.739 32.4625 289.377 40.9882C288.373 49.3883 286.303 57.8334 283.277 66.3313C280.005 74.7518 276.106 83.2682 271.797 91.8961C267.841 100.499 263.923 109.275 260.264 118.219C257.574 127.212 255.55 136.422 254.332 145.86C254.481 155.384 255.575 165.155 257.605 175.163C260.922 185.262 264.852 195.334 269.148 205.341C274.093 215.385 278.885 225.317 283.278 235.071C287.543 244.805 290.922 254.307 293.229 263.513C294.823 272.607 295.056 281.366 293.896 289.705C291.754 297.884 288.182 305.591 283.283 312.794C277.457 319.771 270.466 326.205 262.476 332.026C253.851 337.612 244.489 342.565 234.571 346.867C224.36 350.918 213.836 354.305 203.156 357.039C192.473 359.553 181.803 361.446 171.227 362.724C160.828 363.894 150.597 364.545 140.57 364.719C130.779 364.959 121.182 364.853 111.774 364.499C102.566 364.43 93.4943 364.271 84.5342 364.099C75.7069 364.458 66.9084 364.98 58.1142 365.722C49.3805 367.17 40.5836 368.945 31.7314 371.077C22.8663 373.959 13.886 377.194 4.81483 380.724C-4.29079 384.883 -13.5181 389.204 -22.8274 393.549C-32.1706 398.232 -41.3587 402.565 -50.3634 406.431C-59.3525 410.217 -68.1398 413.275 -76.657 415.491C-85.1354 417.298 -93.3225 418.103 -101.195 417.868C-108.976 417.027 -116.418 415.098 -123.485 412.113C-130.457 408.483 -137.056 403.836 -143.239 398.267C-149.353 392.151 -155.079 385.22 -160.405 377.596C-165.704 369.583 -170.643 361.014 -175.219 351.999C-179.83 342.771 -184.128 333.225 -188.139 323.448C-192.267 313.612 -196.164 303.643 -199.836 293.599C-203.7 283.592 -207.413 273.566 -210.958 263.571C-214.758 253.649 -218.431 243.765 -221.967 233.942C-225.771 224.2 -229.448 214.517 -232.948 204.886C-236.674 195.33 -240.192 185.808 -243.452 176.325C-246.836 166.903 -249.901 157.494 -252.577 148.122C-255.236 138.782 -257.424 129.454 -259.073 120.155C-260.563 110.877 -261.433 101.623 -261.614 92.407C-261.536 83.2096 -260.724 74.2646 -259.209 65.5898C-257.406 56.9454 -254.909 48.5705 -251.762 40.4921C-248.376 32.4306 -244.41 24.6808 -239.905 17.2497C-235.272 9.83772 -230.17 2.75954 -224.692 -3.98123C-219.196 -10.6907 -213.392 -17.0676 -207.333 -23.0757C-201.376 -29.0709 -195.233 -34.7221 -188.935 -40.0016C-182.826 -45.3143 -176.601 -50.2681 -170.28 -54.8843C-164.186 -59.5565 -157.994 -63.9111 -151.703 -67.9579C-145.636 -72.1108 -139.446 -76.0044 -133.135 -79.6287C-126.991 -83.4354 -120.692 -87.0305 -114.208 -90.4121C-107.846 -94.0429 -101.267 -97.4979 -94.4567 -100.806C-87.7174 -104.39 -80.7258 -107.857 -73.4641 -111.173C-66.2418 -114.783 -58.7394 -118.243 -50.9569 -121.553C-43.1874 -125.105 -35.1406 -128.466 -26.8114 -131.567C-18.5002 -134.84 -9.91154 -137.782 -1.05829 -140.354C7.78569 -142.938 16.8972 -145.051 26.2607 -146.615" stroke="url(#paint1_linear_145_428)" stroke-width="2" stroke-linecap="round" stroke-dasharray="2 3"/>
<path opacity="0.13" d="M49.1387 -133.933C58.2993 -134.713 67.4859 -134.823 76.6604 -134.278C85.8294 -133.482 94.9991 -131.978 104.179 -129.765C113.347 -127.252 122.535 -124.028 131.715 -120.109C140.904 -115.896 150.11 -111.014 159.288 -105.519C168.472 -99.771 177.624 -93.4518 186.705 -86.6277C195.741 -79.6282 204.653 -72.1817 213.371 -64.3687C221.955 -56.4637 230.243 -48.2473 238.135 -39.8042C245.743 -31.361 252.823 -22.7503 259.24 -14.0218C265.206 -5.38755 270.363 3.32374 274.6 12.0358C278.229 20.6212 280.842 29.1834 282.358 37.7112C283.221 46.0755 282.998 54.4068 281.693 62.6755C279.891 70.813 277.163 78.9301 273.618 87.0424C269.932 95.0741 265.733 103.164 261.212 111.32C257.073 119.489 252.993 127.808 249.172 136.295C246.265 144.892 243.942 153.713 242.324 162.766C241.943 171.994 242.384 181.48 243.64 191.203C246.043 201.099 248.996 210.962 252.273 220.75C256.165 230.615 259.956 240.334 263.397 249.822C266.801 259.284 269.44 268.436 271.164 277.215C272.31 285.862 272.277 294.059 271.024 301.749C268.932 309.229 265.565 316.155 261 322.486C255.612 328.559 249.132 334.012 241.734 338.81C233.716 343.348 224.973 347.238 215.666 350.472C206.039 353.469 196.06 355.819 185.885 357.556C175.633 359.121 165.343 360.104 155.097 360.559C144.94 360.955 134.898 360.903 125.045 360.444C115.325 360.114 105.785 359.507 96.4266 358.694C87.2041 358.203 78.1102 357.659 69.1351 357.132C60.2298 357.111 51.3727 357.247 42.5568 357.591C33.7287 358.59 24.8896 359.881 16.0083 361.468C7.08096 363.736 -1.92817 366.295 -10.9823 369.1C-20.1152 372.46 -29.306 375.943 -38.5278 379.431C-47.8004 383.205 -56.8582 386.677 -65.6732 389.718C-74.4712 392.711 -82.9827 395.038 -91.1781 396.632C-99.313 397.871 -107.078 398.212 -114.461 397.639C-121.738 396.535 -128.614 394.458 -135.052 391.423C-141.388 387.817 -147.29 383.292 -152.748 377.912C-158.134 372.026 -163.091 365.394 -167.64 358.092C-172.155 350.411 -176.301 342.187 -180.09 333.518C-183.927 324.62 -187.465 315.391 -190.715 305.911C-194.091 296.321 -197.251 286.57 -200.206 276.717C-203.361 266.855 -206.366 256.934 -209.232 247.023C-212.343 237.138 -215.334 227.259 -218.203 217.439C-221.32 207.664 -224.312 197.936 -227.152 188.271C-230.18 178.65 -233.023 169.086 -235.625 159.596C-238.323 150.143 -240.708 140.754 -242.728 131.438C-244.713 122.157 -246.253 112.939 -247.262 103.826C-248.123 94.7352 -248.381 85.7396 -247.989 76.8565C-247.329 68.0115 -245.987 59.4854 -243.976 51.2968C-241.68 43.1588 -238.742 35.3441 -235.197 27.8782C-231.405 20.4474 -227.067 13.3669 -222.224 6.64091C-217.242 -0.0654064 -211.826 -6.40725 -206.059 -12.3859C-200.252 -18.359 -194.151 -23.9773 -187.829 -29.2409C-181.567 -34.503 -175.141 -39.4287 -168.583 -44.0023C-162.179 -48.6282 -155.671 -52.926 -149.087 -56.9001C-142.702 -60.963 -136.238 -64.7319 -129.713 -68.2194C-123.371 -71.8439 -116.943 -75.2139 -110.427 -78.3592C-104.066 -81.6882 -97.5728 -84.8065 -90.9342 -87.7426C-84.4132 -90.9175 -77.7125 -93.9357 -70.8136 -96.7843C-63.9857 -99.9157 -56.937 -102.895 -49.6563 -105.729C-42.3984 -108.83 -34.9 -111.775 -27.1455 -114.533C-19.4095 -117.515 -11.4216 -120.28 -3.16758 -122.784C5.06508 -125.423 13.554 -127.733 22.2794 -129.646C30.9879 -131.581 39.9414 -133.037 49.1288 -133.935" stroke="url(#paint2_linear_145_428)" stroke-width="2" stroke-linecap="round" stroke-dasharray="5 6"/>
<path opacity="0.16" d="M70.5992 -119.415C79.5196 -119.565 88.4293 -119.094 97.2947 -117.988C106.133 -116.663 114.937 -114.649 123.692 -111.982C132.408 -109.036 141.088 -105.403 149.703 -101.129C158.288 -96.5745 166.8 -91.3919 175.227 -85.6241C183.603 -79.6216 191.874 -73.0792 199.971 -66.0627C207.98 -58.8709 215.778 -51.2741 223.288 -43.3304C230.618 -35.3127 237.581 -27.0157 244.08 -18.5116C250.276 -10.0215 255.899 -1.38854 260.834 7.30141C265.335 15.9185 269.048 24.5402 271.866 33.1335C274.156 41.5723 275.494 49.9603 275.834 58.2362C275.635 66.3553 274.465 74.3784 272.354 82.3018C269.865 90.0826 266.58 97.8051 262.612 105.473C258.593 113.089 254.17 120.731 249.484 128.408C245.205 136.142 241.01 144.006 237.046 152.033C233.93 160.211 231.335 168.624 229.346 177.269C228.471 186.153 228.299 195.291 228.821 204.669C230.38 214.271 232.416 223.841 234.75 233.312C237.66 242.907 240.489 252.311 243.056 261.454C245.628 270.577 247.573 279.331 248.752 287.654C249.472 295.827 249.187 303.488 247.859 310.577C245.817 317.421 242.667 323.659 238.454 329.228C233.513 334.519 227.598 339.15 220.821 343.085C213.477 346.755 205.438 349.754 196.856 352.094C187.923 354.205 178.621 355.706 169.09 356.605C159.425 357.362 149.658 357.597 139.894 357.341C130.144 357.068 120.457 356.409 110.903 355.411C101.422 354.551 92.0778 353.486 82.8807 352.257C73.7478 351.35 64.7307 350.426 55.8289 349.537C46.9479 349.123 38.1156 348.863 29.3238 348.795C20.4961 349.324 11.655 350.105 2.80826 351.151C-6.12539 352.792 -15.092 354.681 -24.0908 356.768C-33.175 359.348 -42.2781 362.017 -51.3575 364.669C-60.5054 367.594 -69.3864 370.228 -77.9739 372.495C-86.5411 374.716 -94.7805 376.363 -102.626 377.368C-110.419 378.078 -117.787 377.999 -124.716 377.114C-131.546 375.771 -137.905 373.566 -143.795 370.512C-149.577 366.958 -154.893 362.564 -159.73 357.414C-164.485 351.79 -168.805 345.472 -172.694 338.531C-176.559 331.237 -180.043 323.411 -183.169 315.151C-186.343 306.644 -189.209 297.795 -191.815 288.685C-194.541 279.426 -197.044 269.98 -199.368 260.419C-201.872 250.789 -204.238 241.086 -206.473 231.35C-208.932 221.606 -211.277 211.856 -213.515 202.13C-215.973 192.427 -218.303 182.753 -220.498 173.158C-222.859 163.579 -225.029 154.061 -226.965 144.644C-228.998 135.248 -230.724 125.949 -232.084 116.758C-233.424 107.613 -234.326 98.572 -234.74 89.6871C-234.987 80.8379 -234.674 72.1398 -233.736 63.627C-232.553 55.1668 -230.725 47.0804 -228.286 39.3911C-225.561 31.7529 -222.244 24.4976 -218.368 17.6387C-214.254 10.8203 -209.621 4.38981 -204.528 -1.65566C-199.277 -7.6773 -193.637 -13.3188 -187.658 -18.581C-181.631 -23.8326 -175.331 -28.7391 -168.814 -33.2718C-162.349 -37.8465 -155.715 -42.0677 -148.966 -45.9675C-142.335 -49.9338 -135.619 -53.585 -128.842 -56.9471C-122.226 -60.4154 -115.546 -63.614 -108.82 -66.5473C-102.255 -69.6377 -95.6165 -72.4976 -88.9201 -75.1508C-82.3564 -77.9961 -75.6894 -80.6556 -68.9094 -83.1272C-62.2298 -85.8453 -55.4015 -88.3986 -48.4225 -90.7967C-41.4908 -93.4505 -34.3768 -95.9526 -27.0632 -98.2891C-19.7754 -100.887 -12.2725 -103.295 -4.55453 -105.514C3.14673 -107.941 11.0818 -110.124 19.2327 -112.025C27.3794 -114.05 35.741 -115.742 44.3127 -117.031C52.8746 -118.322 61.6319 -119.141 70.5894 -119.417" stroke="url(#paint3_linear_145_428)" stroke-width="2" stroke-linecap="round" stroke-dasharray="1 10"/>
<path opacity="0.2" d="M90.2396 -103.227C98.8836 -102.805 107.457 -101.778 115.952 -100.16C124.398 -98.3372 132.765 -95.8814 141.024 -92.8011C149.233 -89.475 157.331 -85.5148 165.307 -80.9547C173.21 -76.1449 180.983 -70.7381 188.583 -64.8086C196.097 -58.6541 203.415 -52.0045 210.494 -44.9245C217.434 -37.687 224.088 -30.0742 230.387 -22.1688C236.474 -14.1791 242.13 -5.96014 247.273 2.41208C252.115 10.7804 256.347 19.2426 259.893 27.7352C263.04 36.1329 265.414 44.5044 266.956 52.8013C268.039 60.955 268.248 69.0011 267.559 76.9119C266.437 84.6659 264.467 92.2889 261.676 99.7674C258.623 107.139 254.903 114.411 250.602 121.598C246.336 128.774 241.741 135.938 236.948 143.139C232.566 150.427 228.274 157.836 224.204 165.381C220.911 173.151 218.057 181.132 215.74 189.342C214.394 197.833 213.662 206.574 213.521 215.539C214.293 224.769 215.481 233.963 216.95 243.051C218.94 252.279 220.887 261.297 222.645 270.032C224.451 278.749 225.746 287.068 226.407 294.922C226.716 302.622 226.198 309.761 224.787 316.285C222.799 322.571 219.86 328.185 215.996 333.114C211.506 337.758 206.149 341.692 200.024 344.936C193.376 347.902 186.083 350.183 178.271 351.813C170.105 353.226 161.573 354.033 152.769 354.272C143.792 354.388 134.675 354.016 125.512 353.194C116.295 352.376 107.094 351.219 97.9687 349.762C88.8472 348.472 79.813 346.989 70.8946 345.394C61.9791 344.112 53.1489 342.824 44.4091 341.582C35.6457 340.782 26.9133 340.125 18.2352 339.641C9.47412 339.694 0.724578 339.96 -8.02857 340.453C-16.884 341.479 -25.7567 342.708 -34.6203 344.086C-43.5927 345.91 -52.5406 347.795 -61.4417 349.661C-70.4069 351.748 -79.0677 353.611 -87.3906 355.135C-95.708 356.64 -103.64 357.642 -111.154 358.098C-118.606 358.302 -125.6 357.827 -132.112 356.659C-138.529 355.091 -144.447 352.772 -149.86 349.714C-155.171 346.197 -159.982 341.961 -164.311 337.031C-168.549 331.68 -172.341 325.688 -175.691 319.137C-179.019 312.228 -181.956 304.828 -184.532 297.012C-187.157 288.932 -189.476 280.514 -191.53 271.829C-193.689 262.968 -195.644 253.906 -197.409 244.691C-199.345 235.384 -201.134 225.964 -202.798 216.508C-204.663 206.992 -206.416 197.447 -208.053 187.936C-209.888 178.388 -211.599 168.876 -213.163 159.438C-214.871 149.989 -216.405 140.622 -217.707 131.353C-219.077 122.107 -220.158 112.975 -220.908 103.991C-221.615 95.041 -221.919 86.2487 -221.746 77.6368C-221.433 69.0859 -220.575 60.7348 -219.148 52.611C-217.471 44.5597 -215.207 36.9282 -212.395 29.7368C-209.308 22.6042 -205.678 15.8995 -201.538 9.62381C-197.155 3.40813 -192.306 -2.40197 -187.036 -7.7984C-181.606 -13.1695 -175.813 -18.1436 -169.707 -22.7251C-163.537 -27.3091 -157.109 -31.5268 -150.491 -35.3975C-143.885 -39.2931 -137.125 -42.8625 -130.266 -46.1225C-123.483 -49.446 -116.623 -52.4972 -109.713 -55.2529C-102.922 -58.1368 -96.0868 -60.7787 -89.2098 -63.1692C-82.4667 -65.7442 -75.664 -68.0937 -68.8249 -70.2452C-62.0826 -72.6018 -55.2668 -74.781 -48.3651 -76.7894C-41.5519 -79.0317 -34.6087 -81.1115 -27.5424 -83.041C-20.5234 -85.2029 -13.3497 -87.2159 -6.01733 -89.0579C1.29945 -91.1335 8.79136 -93.023 16.4693 -94.692C24.1396 -96.5506 31.9972 -98.1572 40.0309 -99.4733C48.0636 -100.894 56.2806 -101.98 64.6594 -102.654C73.0314 -103.341 81.5555 -103.547 90.23 -103.23" stroke="url(#paint4_linear_145_428)" stroke-width="2" stroke-linecap="round" stroke-dasharray="8 8"/>
<path opacity="0.24" d="M107.685 -85.6625C115.998 -84.6819 124.186 -83.1609 132.253 -81.0773C140.258 -78.8248 148.127 -75.9722 155.833 -72.5615C163.466 -68.922 170.929 -64.7057 178.205 -59.9509C185.381 -54.9556 192.355 -49.4383 199.089 -43.4442C205.716 -37.2446 212.064 -30.6044 218.102 -23.5877C223.985 -16.4366 229.503 -8.96141 234.615 -1.22032C239.503 6.57717 243.908 14.5591 247.777 22.6637C251.347 30.7433 254.301 38.8735 256.585 47.002C258.508 55.0403 259.695 63.0211 260.114 70.8897C260.138 78.6132 259.375 86.2176 257.833 93.6524C255.938 100.947 253.31 108.089 249.985 115.07C246.489 121.967 242.426 128.751 237.895 135.448C233.449 142.145 228.75 148.834 223.906 155.544C219.462 162.38 215.106 169.323 210.956 176.405C207.493 183.731 204.423 191.264 201.809 199.007C200.045 207.074 198.805 215.366 198.053 223.87C198.107 232.67 198.534 241.415 199.214 250.051C200.37 258.841 201.514 267.402 202.521 275.669C203.611 283.944 204.306 291.786 204.493 299.154C204.426 306.375 203.668 313.011 202.192 319.021C198.867 327.334 187.493 340.06 179.594 344.442C173.641 346.865 167.099 348.603 160.07 349.693C152.693 350.57 144.955 350.866 136.94 350.613C128.719 350.252 120.319 349.42 111.837 348.175C103.251 346.955 94.623 345.411 86.0289 343.602C77.3668 341.95 68.76 340.147 60.2133 338.238C51.6194 336.632 43.0733 335.011 34.5954 333.437C26.0382 332.281 17.5156 331.234 9.02918 330.349C0.436735 329.926 -8.16156 329.693 -16.7341 329.65C-25.4348 330.072 -34.1345 330.664 -42.803 331.375C-51.5908 332.468 -60.3327 333.609 -68.9847 334.709C-77.7068 336.029 -86.106 337.137 -94.1265 337.968C-102.166 338.793 -109.78 339.188 -116.951 339.129C-124.064 338.856 -130.707 337.999 -136.848 336.56C-142.883 334.777 -148.415 332.347 -153.423 329.279C-158.328 325.812 -162.732 321.709 -166.636 317.001C-170.463 311.907 -173.822 306.238 -176.738 300.061C-179.638 293.549 -182.135 286.579 -184.274 279.217C-186.453 271.585 -188.327 263.618 -189.925 255.39C-191.63 246.963 -193.107 238.322 -194.398 229.525C-195.841 220.587 -197.134 211.533 -198.287 202.415C-199.61 193.212 -200.822 183.964 -201.91 174.731C-203.171 165.444 -204.3 156.174 -205.272 146.972C-206.377 137.754 -207.298 128.614 -208.003 119.585C-208.747 110.574 -209.23 101.691 -209.392 92.979C-209.501 84.2974 -209.22 75.8018 -208.522 67.5342C-207.665 59.3253 -206.318 51.3498 -204.432 43.6472C-202.325 36.0368 -199.69 28.8761 -196.541 22.171C-193.149 15.5557 -189.263 9.39848 -184.911 3.67961C-180.339 -1.96922 -175.341 -7.18414 -169.958 -11.9696C-164.408 -16.715 -158.535 -21.0646 -152.37 -25.0192C-146.123 -28.9649 -139.647 -32.5492 -132.989 -35.7894C-126.32 -39.0577 -119.509 -42.0179 -112.609 -44.6685C-105.745 -47.3962 -98.8072 -49.8621 -91.8205 -52.0544C-84.9246 -54.3761 -77.9853 -56.4687 -71.0211 -58.339C-64.1435 -60.3797 -57.2306 -62.2263 -50.2792 -63.8882C-43.4168 -65.7426 -36.4832 -67.4431 -29.4947 -68.9741C-22.5625 -70.7284 -15.5405 -72.3217 -8.42155 -73.7728C-1.33087 -75.4367 5.88483 -76.9481 13.2152 -78.2788C20.5395 -79.8248 28.0126 -81.1669 35.6216 -82.2992C43.226 -83.5929 50.9807 -84.629 58.8719 -85.3698C66.7659 -86.2053 74.8014 -86.7012 82.9541 -86.7917C91.088 -86.889 99.3313 -86.5306 107.676 -85.666" stroke="url(#paint5_linear_145_428)" stroke-width="2" stroke-linecap="round" stroke-dasharray="10 3"/>
<path opacity="0.28" d="M122.624 -67.0408C130.538 -65.5718 138.303 -63.5999 145.883 -61.1193C153.393 -58.4836 160.71 -55.3208 167.815 -51.6392C174.837 -47.7753 181.622 -43.3825 188.167 -38.5055C194.59 -33.4311 200.75 -27.894 206.609 -21.9329C212.336 -15.8008 217.73 -9.29263 222.747 -2.46035C227.599 4.495 232.037 11.7134 236.022 19.1336C239.785 26.6076 243.035 34.2233 245.737 41.9105C248.156 49.5688 249.981 57.2558 251.146 64.898C251.99 72.4502 252.159 79.918 251.633 87.2484C250.766 94.4583 249.209 101.522 246.964 108.407C244.451 115.183 241.313 121.787 237.587 128.235C233.755 134.626 229.463 140.896 224.795 147.074C220.24 153.293 215.493 159.501 210.633 165.714C206.161 172.09 201.774 178.57 197.575 185.168C193.996 192.045 190.734 199.119 187.86 206.379C185.724 213.972 184.018 221.78 182.741 229.781C182.147 238.089 181.891 246.331 181.863 254.456C182.262 262.751 182.688 270.817 183.026 278.569C183.458 286.353 183.604 293.701 183.35 300.572C182.438 310.394 177.167 326.631 172.64 332.884C166.807 338.022 151.545 344.442 142.368 345.826C135.778 346.336 128.838 346.282 121.626 345.688C114.181 345.001 106.544 343.866 98.7791 342.333C90.8717 340.823 82.8896 339.017 74.8883 336.96C66.7768 335.052 58.6638 333 50.5828 330.853C42.396 328.965 34.2315 327.077 26.1044 325.227C17.8528 323.727 9.61885 322.334 1.41685 321.064C-6.93434 320.199 -15.2792 319.491 -23.5953 318.938C-32.0607 318.789 -40.5073 318.77 -48.9098 318.847C-57.4377 319.251 -65.9018 319.684 -74.2601 320.077C-82.6955 320.666 -90.7757 321.075 -98.4801 321.258C-106.198 321.446 -113.478 321.271 -120.313 320.716C-127.092 319.989 -133.38 318.781 -139.179 317.069C-147.457 313.802 -161.313 304.021 -166.913 297.508C-170.386 292.654 -173.41 287.29 -176.001 281.473C-178.555 275.333 -180.715 268.779 -182.513 261.86C-184.335 254.679 -185.848 247.176 -187.09 239.412C-188.412 231.436 -189.505 223.245 -190.404 214.889C-191.43 206.378 -192.287 197.734 -192.99 189.017C-193.854 180.194 -194.581 171.312 -195.171 162.416C-195.901 153.467 -196.493 144.526 -196.938 135.651C-197.475 126.734 -197.833 117.909 -197.967 109.196C-198.141 100.497 -198.046 91.9311 -197.661 83.5502C-197.221 75.2162 -196.419 67.0779 -195.217 59.1965C-193.879 51.3766 -192.077 43.8199 -189.798 36.566C-187.287 29.4057 -184.322 22.7238 -180.913 16.5161C-177.267 10.4153 -173.172 4.77954 -168.669 -0.398301C-163.962 -5.49493 -158.86 -10.151 -153.428 -14.373C-147.824 -18.5393 -141.929 -22.301 -135.773 -25.6706C-129.523 -29.0306 -123.061 -32.0322 -116.424 -34.6918C-109.761 -37.3837 -102.965 -39.7633 -96.0674 -41.856C-89.2002 -44.0281 -82.2551 -45.9349 -75.2593 -47.5885C-68.3229 -49.3785 -61.3368 -50.9377 -54.3384 -52.305C-47.3911 -53.8269 -40.4141 -55.171 -33.4167 -56.3413C-26.463 -57.7068 -19.4715 -58.9127 -12.4422 -59.959C-5.43929 -61.2146 1.63702 -62.3165 8.76435 -63.2638C15.8876 -64.4213 23.1025 -65.4169 30.4049 -66.2416C37.7091 -67.2409 45.115 -68.0518 52.6193 -68.643C60.1356 -69.3823 67.7612 -69.853 75.4697 -70.0452C83.1846 -70.3002 90.9842 -70.232 98.8622 -69.7775C106.727 -69.318 114.65 -68.4268 122.605 -67.049" stroke="url(#paint6_linear_145_428)" stroke-width="2" stroke-linecap="round" stroke-dasharray="4 8"/>
<path opacity="0.32" d="M134.782 -47.7999C142.268 -45.8846 149.557 -43.5188 156.596 -40.7085C163.581 -37.7567 170.32 -34.347 176.79 -30.48C183.166 -26.4593 189.26 -21.9772 195.051 -17.0791C200.715 -12.0103 206.064 -6.54385 211.062 -0.721008C215.908 5.23599 220.373 11.5216 224.441 18.0593C228.318 24.6987 231.75 31.553 234.704 38.5584C237.446 45.5978 239.671 52.7335 241.344 59.902C242.759 67.0448 243.592 74.1702 243.81 81.237C243.758 88.215 243.082 95.085 241.767 101.815C240.199 108.443 238.01 114.919 235.223 121.198C232.245 127.408 228.744 133.451 224.738 139.335C220.688 145.196 216.265 150.947 211.541 156.604C206.945 162.341 202.201 168.056 197.385 173.777C192.926 179.702 188.541 185.7 184.326 191.824C180.64 198.232 177.23 204.824 174.142 211.577C171.684 218.68 169.591 225.968 167.837 233.428C166.687 241.2 165.817 248.897 165.175 256.466C164.906 264.225 164.686 271.748 164.425 278.966C164.279 286.223 163.918 293.058 163.267 299.418C161.907 308.532 156.502 323.475 152.301 329.152C147.03 333.777 133.451 339.303 125.328 340.304C119.476 340.585 113.292 340.301 106.855 339.518C100.17 338.647 93.2923 337.331 86.269 335.653C79.062 333.979 71.7609 332.015 64.3906 329.822C56.8733 327.753 49.3248 325.532 41.7567 323.22C34.0653 321.138 26.3435 319.027 18.6434 316.94C10.7862 315.166 2.92707 313.458 -4.9307 311.854C-12.9373 310.59 -20.9521 309.446 -28.939 308.419C-37.0796 307.742 -45.2052 307.163 -53.2745 306.648C-61.4731 306.416 -69.6007 306.2 -77.5927 305.943C-85.6789 305.839 -93.4122 305.608 -100.76 305.186C-108.12 304.769 -115.048 304.074 -121.536 303.048C-130.946 301.119 -147.195 294.83 -153.992 290.367C-160.144 285.002 -169.91 271.515 -173.611 263.472C-175.894 257.69 -177.794 251.512 -179.332 245.019C-180.879 238.27 -182.118 231.222 -183.08 223.914C-184.094 216.407 -184.879 208.684 -185.457 200.788C-186.128 192.728 -186.617 184.539 -186.95 176.252C-187.397 167.858 -187.703 159.393 -187.856 150.919C-188.123 142.361 -188.239 133.816 -188.19 125.326C-188.213 116.797 -188.058 108.341 -187.684 100.026C-187.327 91.7014 -186.724 83.5318 -185.837 75.5497C-184.892 67.6095 -183.609 59.8853 -181.968 52.4223C-180.19 45.044 -177.99 37.9378 -175.353 31.1579C-172.518 24.4734 -169.268 18.2846 -165.63 12.5771C-161.775 6.97458 -157.541 1.8487 -152.932 -2.81405C-148.133 -7.38611 -142.999 -11.5052 -137.559 -15.199C-131.961 -18.83 -126.093 -22.0546 -119.999 -24.8967C-113.794 -27.713 -107.403 -30.1793 -100.851 -32.3097C-94.2547 -34.4611 -87.5238 -36.3132 -80.7163 -37.8857C-73.8932 -39.5292 -66.9969 -40.9289 -60.0633 -42.0815C-53.1351 -43.3505 -46.1771 -44.4218 -39.198 -45.3C-32.2548 -46.3225 -25.2764 -47.1785 -18.285 -47.8684C-11.3106 -48.7379 -4.30982 -49.4455 2.71817 -50.0136C9.7339 -50.7699 16.7944 -51.3773 23.8996 -51.8357C31.0014 -52.4776 38.1656 -52.9611 45.3914 -53.2637C52.6179 -53.7364 59.9236 -54.0188 67.285 -54.0668C74.6552 -54.2578 82.0979 -54.1826 89.5773 -53.8378C97.0675 -53.5554 104.602 -52.954 112.152 -51.9808C119.693 -51.0123 127.24 -49.632 134.769 -47.7959" stroke="url(#paint7_linear_145_428)" stroke-width="2" stroke-linecap="round" stroke-dasharray="1 9"/>
<path opacity="0.35" d="M144.026 -28.3529C151.036 -26.0598 157.795 -23.3694 164.291 -20.3011C170.712 -17.1144 176.84 -13.5212 182.661 -9.55447C188.377 -5.44097 193.778 -0.959249 198.832 3.88309C203.756 8.85615 208.313 14.1653 212.487 19.7639C216.51 25.4688 220.12 31.4331 223.289 37.5912C226.287 43.831 228.821 50.2262 230.871 56.7301C232.708 63.2529 234.036 69.8322 234.835 76.4076C235.402 82.9553 235.411 89.4691 234.868 95.8824C234.087 102.24 232.736 108.473 230.82 114.55C228.713 120.554 226.065 126.405 222.891 132.077C219.596 137.696 215.849 143.17 211.695 148.482C207.536 153.803 203.067 159.034 198.354 164.182C193.794 169.426 189.1 174.657 184.368 179.911C179.954 185.355 175.606 190.899 171.402 196.534C167.654 202.458 164.132 208.549 160.877 214.797C158.155 221.381 155.723 228.126 153.576 235.015C151.937 242.226 150.559 249.342 149.378 256.334C148.524 263.52 147.747 270.472 146.954 277.13C146.283 283.84 145.471 290.154 144.462 296.013C142.68 304.423 137.105 318.172 133.145 323.347C128.347 327.565 116.243 332.462 109.054 333.239C103.878 333.396 98.3956 333.028 92.6794 332.168C86.7306 331.209 80.5751 329.847 74.2638 328.115C67.7584 326.389 61.1242 324.381 54.4065 322.131C47.525 319.99 40.5648 317.693 33.566 315.289C26.3998 313.074 19.1882 310.819 11.9597 308.553C4.57387 306.555 -2.84712 304.593 -10.2748 302.699C-17.8705 301.088 -25.4752 299.567 -33.0612 298.128C-40.8152 296.973 -48.5399 295.885 -56.2108 294.842C-64.0123 294.024 -71.7247 293.215 -79.3246 292.36C-87.0015 291.644 -94.3344 290.815 -101.293 289.844C-108.271 288.885 -114.825 287.685 -120.95 286.236C-129.84 283.736 -145.146 276.75 -151.526 272.169C-157.28 266.825 -166.35 253.798 -169.746 246.147C-171.815 240.684 -173.508 234.868 -174.853 228.763C-176.186 222.417 -177.21 215.805 -177.948 208.948C-178.73 201.898 -179.261 194.639 -179.578 187.209C-179.964 179.628 -180.152 171.9 -180.161 164.096C-180.26 156.153 -180.204 148.154 -179.971 140.136C-179.838 132.032 -179.529 123.932 -179.047 115.894C-178.628 107.805 -178.015 99.8036 -177.185 91.9269C-176.363 84.0449 -175.297 76.318 -173.968 68.7928C-172.571 61.3104 -170.872 54.0428 -168.837 47.0473C-166.68 40.1404 -164.139 33.524 -161.202 27.2171C-158.084 21.0363 -154.611 15.3409 -150.799 10.12C-146.793 5.02215 -142.443 0.390445 -137.793 -3.77956C-132.946 -7.84884 -127.812 -11.4756 -122.415 -14.6758C-116.858 -17.8105 -111.081 -20.5454 -105.086 -22.8943C-98.9856 -25.2236 -92.7132 -27.2074 -86.2995 -28.8534C-79.8169 -30.5149 -73.2192 -31.8906 -66.5457 -32.9934C-59.8263 -34.1501 -53.0403 -35.0753 -46.2238 -35.7683C-39.3876 -36.5671 -32.5133 -37.1643 -25.6263 -37.5759C-18.7396 -38.1179 -11.8325 -38.5051 -4.90508 -38.7373C2.01888 -39.1138 8.96007 -39.3491 15.9101 -39.4488C22.8758 -39.7042 29.8725 -39.8216 36.8811 -39.7894C43.9108 -39.9215 50.9693 -39.8933 58.0566 -39.705C65.1573 -39.6501 72.3015 -39.402 79.4615 -38.9546C86.6359 -38.6046 93.8408 -38.0223 101.05 -37.1655C108.265 -36.3753 115.471 -35.2715 122.658 -33.8371C129.822 -32.4049 136.951 -30.5807 144.018 -28.3582" stroke="url(#paint8_linear_145_428)" stroke-width="2" stroke-linecap="round" stroke-dasharray="11 8"/>
<path opacity="0.39" d="M150.295 -9.18499C156.8 -6.56878 163.013 -3.62193 168.922 -0.364389C174.76 2.98979 180.271 6.68687 185.449 10.685C190.516 14.8 195.23 19.2263 199.57 23.9238C203.785 28.7405 207.61 33.8167 211.017 39.1065C214.275 44.4978 217.111 50.0748 219.496 55.7918C221.717 61.5622 223.47 67.4468 224.737 73.3838C225.814 79.3425 226.399 85.3115 226.486 91.2489C226.362 97.1683 225.729 103.022 224.578 108.769C223.24 114.465 221.392 120.045 219.048 125.472C216.56 130.843 213.598 136.063 210.197 141.122C206.714 146.157 202.845 151.058 198.647 155.815C194.464 160.621 190.038 165.334 185.407 169.972C180.925 174.744 176.349 179.509 171.731 184.28C167.404 189.265 163.139 194.333 158.972 199.486C155.203 204.944 151.616 210.524 148.237 216.244C145.301 222.291 142.602 228.487 140.134 234.791C138.085 241.404 136.273 247.93 134.639 254.315C133.288 260.907 132.022 267.265 130.781 273.354C129.051 282.4 124.933 298.367 122.286 305.049C115.023 315.286 100.051 324.069 93.6745 324.752C86.6697 324.686 71.1555 322.044 62.7663 319.693C56.937 317.997 50.9651 316.022 44.8792 313.814C38.618 311.676 32.2613 309.38 25.8414 306.951C19.2449 304.678 12.5738 302.337 5.87054 299.973C-1.017 297.808 -7.93845 295.655 -14.8777 293.527C-21.9947 291.64 -29.1355 289.786 -36.2597 287.993C-43.55 286.426 -50.8199 284.898 -58.0296 283.391C-65.3676 282.074 -72.6298 280.738 -79.7704 279.356C-86.988 278.078 -93.8803 276.729 -100.412 275.261C-106.971 273.798 -113.128 272.158 -118.866 270.305C-127.216 267.276 -141.574 259.623 -147.549 254.902C-152.947 249.55 -161.396 236.873 -164.529 229.574C-166.433 224.385 -167.968 218.896 -169.149 213.147C-170.32 207.181 -171.177 200.974 -171.747 194.545C-172.336 187.94 -172.668 181.139 -172.774 174.181C-172.917 167.072 -172.866 159.834 -172.613 152.507C-172.421 145.061 -172.052 137.559 -171.509 130.024C-171.021 122.412 -170.358 114.816 -169.509 107.27C-168.697 99.6721 -167.678 92.1648 -166.461 84.7776C-165.237 77.3964 -163.775 70.1652 -162.062 63.1316C-160.29 56.1536 -158.228 49.389 -155.868 42.8937C-153.381 36.4793 -150.555 30.3639 -147.372 24.5734C-144.029 18.9014 -140.385 13.6988 -136.447 8.97354C-132.334 4.36475 -127.93 0.205396 -123.263 -3.48629C-118.425 -7.08948 -113.341 -10.2509 -108.023 -13.0043C-102.563 -15.665 -96.8948 -17.9495 -91.0497 -19.8676C-85.0981 -21.7446 -78.9876 -23.2811 -72.7582 -24.5066C-66.4429 -25.7308 -60.027 -26.67 -53.5288 -27.3498C-46.9789 -28.0661 -40.373 -28.5549 -33.7212 -28.8361C-27.036 -29.1797 -20.3172 -29.3494 -13.5848 -29.3354C-6.81945 -29.4336 -0.0446631 -29.3759 6.73951 -29.1622C13.5465 -29.0808 20.3667 -28.8655 27.1801 -28.5061C34.0224 -28.287 40.8778 -27.934 47.7265 -27.4369C54.6039 -27.0801 61.4988 -26.5615 68.381 -25.8907C75.2963 -25.3322 82.2091 -24.6017 89.1096 -23.669C96.0394 -22.8267 102.947 -21.7521 109.819 -20.4432C116.707 -19.1725 123.543 -17.6292 130.312 -15.7754C137.058 -13.9254 143.728 -11.7346 150.281 -9.18284" stroke="url(#paint9_linear_145_428)" stroke-width="2" stroke-linecap="round" stroke-dasharray="9 8"/>
<path opacity="0.43" d="M153.646 9.28559C159.615 12.1466 165.266 15.2744 170.596 18.655C175.84 22.1205 180.743 25.8334 185.283 29.8025C194.06 38.0205 201.293 47.1572 206.885 56.9722C211.911 67.0668 215.179 77.622 216.607 88.3183C217.378 99.0461 216.253 109.657 213.243 119.859C209.648 129.931 204.282 139.506 197.347 148.442C190.215 157.408 181.923 165.964 172.844 174.179C164.32 182.944 155.621 191.823 147.151 200.911C143.393 205.867 139.773 210.954 136.324 216.148C133.242 221.652 130.332 227.278 127.613 232.987C125.238 239.002 123.068 244.916 121.064 250.695C119.304 256.682 117.626 262.45 115.998 267.958C113.049 279.184 109.765 288.89 105.923 296.769C101.656 304.22 96.4213 309.522 90.229 312.616C83.234 315.08 75.2425 315.475 66.4354 314.02C56.8441 312.252 46.5492 309.058 35.7765 304.775C24.292 300.726 12.3671 296.053 0.230626 291.042C-12.6183 286.699 -25.6855 282.288 -38.7493 277.919C-45.521 276.016 -52.2851 274.12 -58.9863 272.212C-65.816 270.47 -72.571 268.687 -79.2102 266.845C-85.9271 265.094 -92.3374 263.276 -98.4214 261.367C-104.518 259.474 -110.244 257.438 -115.592 255.236C-126.186 250.619 -135.11 245.073 -142.323 238.567C-149.235 231.398 -154.47 223.108 -158.135 213.79C-161.571 203.71 -163.641 192.625 -164.517 180.757C-165.376 168.234 -165.258 155.058 -164.298 141.51C-163.458 127.531 -161.858 113.385 -159.53 99.3854C-157.247 85.2551 -154.134 71.4907 -150.125 58.4488C-148.034 51.9953 -145.676 45.7687 -143.035 39.7959C-140.302 33.9151 -137.248 28.3205 -133.884 23.0416C-130.369 17.8923 -126.597 13.1836 -122.576 8.93709C-118.411 4.81376 -113.997 1.12452 -109.357 -2.136C-99.6389 -8.30931 -89.0676 -12.8771 -77.8751 -15.9838C-66.2328 -18.8784 -54.0796 -20.5373 -41.6276 -21.1277C-28.9146 -21.8242 -15.9762 -21.6593 -2.98758 -20.7819C10.1723 -20.2445 23.4004 -19.1239 36.5729 -17.4597C49.8871 -16.2396 63.2085 -14.488 76.4061 -12.159C89.737 -10.2025 102.969 -7.52863 115.932 -4.05988C122.425 -2.36893 128.852 -0.431542 135.158 1.77094C141.45 3.97455 147.624 6.47145 153.639 9.27911" stroke="url(#paint10_linear_145_428)" stroke-width="2" stroke-linecap="round" stroke-dasharray="8 3"/>
<path opacity="0.47" d="M154.249 26.6538C165.029 32.7854 174.439 39.7578 182.398 47.4232C189.986 55.3821 196.003 63.9999 200.384 73.058C204.251 82.3262 206.394 91.8516 206.799 101.366C206.644 110.907 204.72 120.253 201.116 129.155C197.052 137.999 191.448 146.37 184.495 154.174C177.445 162.092 169.415 169.68 160.732 176.964C152.549 184.851 144.198 192.838 136.005 200.994C128.868 210.242 122.181 219.918 116.084 229.877C111.094 240.936 106.685 251.487 102.665 261.229C99.0581 271.334 95.2896 280.075 91.194 287.18C86.8197 293.983 81.7546 298.848 75.9913 301.74C69.6008 304.115 62.4067 304.581 54.5595 303.342C45.9953 301.821 36.8024 298.926 27.1464 294.948C16.7989 291.117 6.02033 286.598 -5.03121 281.643C-16.7497 277.182 -28.7035 272.519 -40.7008 267.757C-53.2792 263.573 -65.7671 259.254 -77.8823 254.727C-90.2916 250.485 -101.502 245.92 -111.359 240.932C-121.126 235.753 -129.365 229.83 -136.035 223.149C-142.434 215.935 -147.28 207.793 -150.656 198.824C-153.791 189.21 -155.625 178.755 -156.279 167.638C-156.867 155.94 -156.456 143.696 -155.172 131.132C-153.926 118.207 -151.883 105.126 -149.074 92.2217C-146.26 79.2111 -142.607 66.5741 -138.092 54.643C-133.349 42.9217 -127.578 32.1097 -120.693 22.4889C-113.322 13.3443 -105.057 5.9163 -96.0479 0.142835C-86.5182 -5.17608 -76.2806 -8.97448 -65.4989 -11.371C-54.3047 -13.5311 -42.6677 -14.5147 -30.766 -14.4542C-18.5818 -14.4389 -6.18448 -13.5984 6.24804 -12.051C18.8902 -10.7603 31.5804 -8.89026 44.1979 -6.50323C56.9748 -4.45012 69.7071 -1.89448 82.2467 1.20045C94.9179 4.0183 107.404 7.46731 119.495 11.6344C131.62 15.7234 143.287 20.6937 154.242 26.6468" stroke="url(#paint11_linear_145_428)" stroke-width="2" stroke-linecap="round" stroke-dasharray="2 7"/>
<path opacity="0.51" d="M152.356 42.5748C162.016 48.9145 170.287 55.8428 177.113 63.2358C183.592 70.8556 188.53 78.8917 191.874 87.1498C194.776 95.5722 196.037 104.086 195.676 112.459C194.839 120.866 192.41 129.014 188.477 136.716C184.198 144.419 178.57 151.685 171.79 158.449C164.984 165.409 157.338 172.085 149.133 178.522C141.366 185.558 133.416 192.69 125.549 199.962C118.529 208.234 111.828 216.852 105.545 225.687C100.158 235.518 95.2684 244.869 90.771 253.472C86.6325 262.465 82.4614 270.245 78.123 276.583C73.6264 282.728 68.6597 287.165 63.2041 289.858C57.2635 292.139 50.7118 292.704 43.6316 291.707C35.9507 290.454 27.7259 287.892 19.0698 284.27C9.78482 280.737 0.0853222 276.449 -9.88638 271.628C-20.475 267.166 -31.313 262.376 -42.1936 257.358C-53.5967 252.775 -64.9353 247.949 -75.9378 242.838C-87.2099 237.966 -97.3952 232.812 -106.355 227.309C-115.25 221.667 -122.762 215.43 -128.856 208.591C-134.713 201.342 -139.137 193.359 -142.209 184.699C-145.045 175.523 -146.64 165.65 -147.091 155.244C-147.436 144.37 -146.782 133.026 -145.241 121.445C-143.662 109.562 -141.275 97.5787 -138.1 85.7925C-134.871 73.9317 -130.83 62.4603 -125.944 51.6566C-120.852 41.085 -114.813 31.3715 -107.761 22.8035C-100.311 14.6848 -92.1152 8.17697 -83.2983 3.21586C-74.034 -1.30008 -64.1695 -4.38393 -53.8816 -6.15982C-43.2064 -7.66421 -32.139 -8.04674 -20.8618 -7.45303C-9.29641 -6.82056 2.44757 -5.39796 14.2351 -3.29265C26.2305 -1.34471 38.2696 1.16555 50.1865 4.17133C62.2949 6.94081 74.3026 10.2001 86.0545 13.9396C97.9454 17.4893 109.569 21.5965 120.723 26.3057C131.894 30.9734 142.518 36.38 152.356 42.5748Z" stroke="url(#paint12_linear_145_428)" stroke-width="2" stroke-linecap="round" stroke-dasharray="1 8"/>
<path opacity="0.54" d="M148.277 56.8144C156.832 63.2217 164.017 70.0116 169.792 77.0505C175.267 84.2566 179.252 91.6726 181.746 99.1485C183.855 106.73 184.435 114.275 183.541 121.589C182.257 128.937 179.542 135.996 175.523 142.619C171.225 149.291 165.76 155.574 159.312 161.413C152.874 167.496 145.704 173.346 138.046 179.004C130.746 185.244 123.257 191.566 115.783 197.99C108.952 205.32 102.323 212.911 95.9889 220.641C90.3284 229.265 85.1192 237.443 80.2567 244.939C75.7204 252.828 71.2249 259.652 66.694 265.231C62.0542 270.717 57.1404 274.711 51.9004 277.179C46.3011 279.343 40.2476 279.977 33.8029 279.198C26.8519 278.202 19.4418 275.983 11.6828 272.733C3.35605 269.516 -5.33711 265.508 -14.2708 260.891C-23.7658 256.528 -33.4735 251.723 -43.2289 246.576C-53.4469 241.747 -63.6064 236.583 -73.4538 231.053C-83.5491 225.727 -92.6733 220.121 -100.705 214.233C-108.681 208.251 -115.43 201.783 -120.906 194.855C-126.171 187.626 -130.151 179.79 -132.872 171.443C-135.375 162.689 -136.722 153.389 -136.98 143.669C-137.089 133.583 -136.231 123.134 -134.481 112.53C-132.657 101.68 -130.008 90.8036 -126.574 80.1304C-123.052 69.4403 -118.739 59.1398 -113.627 49.4868C-108.318 40.0597 -102.139 31.4535 -95.0527 23.9156C-87.6319 16.8142 -79.5872 11.2002 -71.0374 7.0009C-62.1311 3.23385 -52.7164 0.803456 -42.9488 -0.410619C-32.8541 -1.34616 -22.4362 -1.21907 -11.8404 -0.169839C-0.977752 0.964558 10.0472 2.86927 21.079 5.42395C32.3341 7.90825 43.595 10.9425 54.715 14.4503C66.0114 17.8102 77.1828 21.6315 88.0486 25.876C99.0511 30.0031 109.711 34.6199 119.856 39.7321C130.017 44.8322 139.566 50.5148 148.277 56.8144Z" stroke="url(#paint13_linear_145_428)" stroke-width="2" stroke-linecap="round" stroke-dasharray="6 4"/>
<path opacity="0.58" d="M142.401 69.2125C149.867 75.5826 156.029 82.119 160.859 88.7438C165.426 95.4951 168.605 102.287 170.409 108.993C171.891 115.792 171.989 122.438 170.761 128.798C169.227 135.204 166.416 141.29 162.469 146.964C158.322 152.735 153.157 158.159 147.155 163.189C141.16 168.502 134.534 173.621 127.476 178.557C120.693 184.056 113.688 189.616 106.641 195.241C100.09 201.652 93.6234 208.247 87.3205 214.926C81.5495 222.392 76.1409 229.427 71.065 235.859C66.2371 242.667 61.5019 248.562 56.8214 253.378C49.6314 259.948 33.9308 266.242 25.1621 265.957C18.8114 265.177 12.1078 263.265 5.13671 260.367C-2.31696 257.464 -10.0833 253.76 -18.0381 249.391C-26.4902 245.193 -35.1091 240.471 -43.7455 235.305C-52.7851 230.382 -61.7591 225.031 -70.4455 219.263C-79.349 213.639 -87.3887 207.743 -94.4566 201.613C-101.496 195.417 -107.442 188.845 -112.257 181.899C-116.896 174.728 -120.374 167.103 -122.719 159.088C-124.871 150.766 -125.937 142.039 -125.986 133C-125.879 123.69 -124.839 114.123 -122.925 104.482C-120.915 94.6586 -118.091 84.8721 -114.493 75.3302C-110.791 65.8026 -106.321 56.6556 -101.101 48.1387C-95.7087 39.8445 -89.5159 32.3275 -82.5009 25.8015C-75.2297 19.6815 -67.4347 14.9174 -59.2321 11.4419C-50.7373 8.3726 -41.8289 6.52823 -32.6509 5.80003C-23.1941 5.36703 -13.4697 5.91983 -3.61046 7.33021C6.48121 8.87474 16.7056 11.1465 26.9023 14.0477C37.3182 16.936 47.7095 20.3679 57.938 24.2428C68.3415 28.038 78.5768 32.2679 88.4665 36.8818C98.4785 41.427 108.131 46.3894 117.219 51.7486C126.312 57.1163 134.784 62.9416 142.401 69.2125Z" stroke="url(#paint14_linear_145_428)" stroke-width="2" stroke-linecap="round" stroke-dasharray="8 10"/>
<path opacity="0.62" d="M135.098 79.7267C141.525 85.9188 146.737 92.1533 150.732 98.3271C154.49 104.589 156.985 110.77 158.249 116.761C159.128 125.735 154.589 142.388 149.475 149.895C145.58 154.879 140.824 159.557 135.326 163.917C129.851 168.54 123.812 172.999 117.367 177.308C111.126 182.121 104.645 186.956 98.075 191.817C91.8522 197.355 85.6312 203.018 79.4869 208.696C73.7207 215.044 68.2483 220.997 63.067 226.407C58.0733 232.171 53.2108 237.149 48.4332 241.218C41.1979 246.833 26.0038 252.319 17.8223 252.119C11.979 251.486 5.88761 249.822 -0.401624 247.237C-7.07274 244.625 -13.9847 241.22 -21.0289 237.131C-28.4844 233.148 -36.0579 228.589 -43.6073 223.522C-51.5074 218.608 -59.3142 213.227 -66.8489 207.372C-74.5753 201.625 -81.5262 195.624 -87.6198 189.393C-93.7059 183.135 -98.8274 176.551 -102.946 169.689C-106.924 162.691 -109.877 155.332 -111.809 147.686C-113.568 139.839 -114.339 131.688 -114.169 123.351C-113.849 114.814 -112.64 106.121 -110.604 97.4325C-108.469 88.6313 -105.529 79.9155 -101.859 71.4771C-98.0885 63.0739 -93.5775 55.0685 -88.3693 47.6688C-83.0073 40.4808 -76.9203 34.0092 -70.1071 28.4599C-63.074 23.2803 -55.6179 19.32 -47.84 16.5214C-39.8288 14.0963 -31.4893 12.7834 -22.9475 12.4813C-14.1768 12.4634 -5.19943 13.3621 3.8662 15.049C13.1455 16.891 22.4999 19.4367 31.8248 22.5615C41.3219 25.7271 50.7774 29.4096 60.048 33.5177C69.4651 37.6006 78.6875 42.0917 87.5631 46.9044C96.5319 51.6991 105.115 56.8487 113.127 62.3086C121.149 67.786 128.534 73.5994 135.098 79.7267Z" stroke="url(#paint15_linear_145_428)" stroke-width="2" stroke-linecap="round" stroke-dasharray="5 4"/>
<path opacity="0.66" d="M126.77 88.3988C132.215 94.3284 136.547 100.176 139.791 105.876C143.811 114.428 146.04 130.525 144.364 137.893C141.423 145.042 130.972 157.874 123.872 163.674C118.934 167.708 113.493 171.592 107.671 175.326C102.005 179.505 96.0711 183.679 89.9899 187.823C84.1648 192.554 78.2584 197.323 72.3572 202.057C66.7168 207.364 61.3079 212.296 56.142 216.737C51.1212 221.507 46.213 225.604 41.424 228.925C34.2361 233.582 19.5452 238.1 11.8696 237.876C6.47795 237.311 0.926748 235.825 -4.73644 233.496C-10.7164 231.129 -16.8417 228.012 -23.0332 224.219C-29.5567 220.472 -36.1393 216.133 -42.6612 211.245C-49.4628 206.468 -56.155 201.174 -62.5687 195.394C-69.1403 189.678 -75.0312 183.717 -80.1616 177.539C-85.2921 171.361 -89.585 164.919 -92.9922 158.267C-96.2992 151.524 -98.6924 144.513 -100.187 137.32C-101.536 129.992 -101.995 122.463 -101.602 114.84C-101.072 107.085 -99.7312 99.2678 -97.6045 91.5204C-95.3785 83.7258 -92.408 76.0543 -88.7506 68.6879C-84.9871 61.382 -80.5433 54.484 -75.4492 48.1409C-70.2432 42.0104 -64.3626 36.5561 -57.8373 31.925C-51.1536 27.6282 -44.1214 24.4168 -36.8425 22.2394C-29.3919 20.4011 -21.6713 19.5526 -13.8045 19.6197C-5.77305 19.9407 2.42416 21.1017 10.6643 22.9838C19.0753 25.0394 27.5263 27.74 35.9214 30.9762C44.4535 34.2914 52.9172 38.0927 61.1893 42.2835C69.577 46.5081 77.7517 51.0772 85.5712 55.9474C93.462 60.8281 100.962 66.0047 107.916 71.4069C114.864 76.8448 121.204 82.5158 126.77 88.3988Z" stroke="url(#paint16_linear_145_428)" stroke-width="2" stroke-linecap="round" stroke-dasharray="2 7"/>
<path opacity="0.7" d="M117.748 95.3597C124.051 103.645 131.593 119.337 132.848 126.597C132.928 133.651 128.467 146.341 124.182 151.975C119.075 157.51 105.973 167.755 98.3551 172.66C93.2645 176.257 87.8902 179.815 82.3417 183.311C76.9621 187.268 71.4432 191.226 65.8657 195.088C60.4607 199.419 55.2276 203.394 50.1913 206.937C42.8382 212.384 28.6694 220.307 21.7006 222.447C14.5755 223.747 -0.105574 222.134 -7.7328 219.314C-13.0629 217.154 -18.4632 214.292 -23.858 210.783C-29.5149 207.291 -35.1725 203.219 -40.7214 198.601C-46.4862 194.034 -52.1149 188.964 -57.459 183.385C-62.9428 177.86 -67.8061 172.083 -72.0068 166.133C-76.2111 160.174 -79.6727 154 -82.3884 147.675C-85.0182 141.294 -86.8591 134.735 -87.9043 128.068C-88.8429 121.318 -88.9859 114.46 -88.3765 107.578C-87.6497 100.639 -86.1819 93.7001 -84.0113 86.8845C-81.7497 80.0548 -78.8136 73.4128 -75.232 67.077C-71.5696 60.8385 -67.2864 54.9803 -62.4096 49.6527C-57.4436 44.5263 -51.8773 40.0029 -45.7565 36.2401C-39.5137 32.7623 -32.9818 30.2452 -26.2588 28.6304C-19.4195 27.3137 -12.3777 26.8733 -5.23861 27.2323C2.02658 27.8318 9.39881 29.1733 16.7915 31.1722C24.2999 33.3301 31.8255 36.0823 39.256 39.3332C46.8083 42.6762 54.2529 46.4583 61.5068 50.6047C68.8364 54.8074 75.9536 59.3185 82.7139 64.0977C89.5353 68.896 95.9701 73.9418 101.882 79.1595C107.782 84.4032 113.118 89.8241 117.748 95.3597Z" stroke="url(#paint17_linear_145_428)" stroke-width="2" stroke-linecap="round" stroke-dasharray="4 4"/>
<path opacity="0.73" d="M108.341 100.817C115.623 111.13 119.472 120.677 120.16 129.082C120.345 137.623 117.462 145.118 112.047 151.379C106.385 158.125 98.6039 164.117 89.3828 169.352C80.3904 175.794 70.3925 182.067 59.915 187.808C49.8884 195.033 40.2569 200.699 31.1958 204.429C22.1331 208.558 13.1512 210.084 4.44256 208.887C-4.82673 207.571 -14.2184 203.539 -23.3301 197.074C-33.2108 190.628 -42.8202 182.024 -51.4012 171.508C-60.3861 161.107 -67.0271 149.758 -71.1365 138.029C-75.0323 126.213 -76.1659 113.883 -74.6111 101.712C-72.7101 89.4751 -68.2373 77.5272 -61.4514 66.7867C-54.4004 56.3932 -45.1336 47.6352 -33.9075 41.4725C-22.3844 36.2646 -9.94744 34.3645 2.73515 35.3413C15.7364 37.1406 29.0286 41.4571 41.884 47.6689C55.0479 54.2665 67.754 62.3888 79.1794 71.4437C90.7096 80.6336 100.753 90.6 108.341 100.817Z" stroke="url(#paint18_linear_145_428)" stroke-width="2" stroke-linecap="round" stroke-dasharray="5 1"/>
<path opacity="0.77" d="M98.7894 105.016C104.554 114.323 107.461 122.834 107.738 130.258C107.66 137.786 105.046 144.359 100.337 149.843C95.4358 155.733 88.7077 160.932 80.7045 165.383C72.8192 170.772 63.9318 175.832 54.4496 180.241C45.2404 185.767 36.2689 189.902 27.7956 192.399C19.2999 195.281 10.9697 196.029 3.02435 194.57C-5.31324 193.059 -13.5489 189.275 -21.3064 183.375C-29.6216 177.462 -37.4925 169.596 -44.2645 159.981C-51.3578 150.442 -56.3851 140.078 -59.2405 129.47C-61.9746 118.854 -62.3421 107.948 -60.4439 97.3725C-58.2988 86.8413 -53.9309 76.763 -47.5739 67.8913C-41.0107 59.3716 -32.5596 52.37 -22.428 47.6644C-12.1034 43.7354 -1.08323 42.6321 10.0435 43.9898C21.3649 46.0003 32.8208 50.1981 43.8003 56.0387C54.9688 62.2458 65.6334 69.8042 75.0961 78.1487C84.6028 86.637 92.7594 95.7615 98.7894 105.016Z" stroke="url(#paint19_linear_145_428)" stroke-width="2" stroke-linecap="round" stroke-dasharray="9 9"/>
<path opacity="0.81" d="M89.2229 108.211C93.662 116.417 95.7503 123.869 95.7189 130.367C95.4356 136.937 93.1111 142.663 89.063 147.441C84.8869 152.555 79.1765 157.015 72.3434 160.735C65.5614 165.146 57.8066 169.117 49.4452 172.346C41.2181 176.403 33.1185 179.184 25.4377 180.61C17.7193 182.367 10.2076 182.398 3.13977 180.666C-4.17969 178.944 -11.2539 175.359 -17.72 170.024C-24.5526 164.678 -30.8269 157.651 -35.9977 149.118C-41.3955 140.621 -44.9868 131.458 -46.7512 122.191C-48.4515 112.943 -48.1834 103.59 -46.0498 94.6846C-43.7604 85.8652 -39.6093 77.5951 -33.7997 70.4949C-27.8699 63.6994 -20.3485 58.2873 -11.4404 54.869C-2.43637 52.0431 7.07303 51.5869 16.5978 53.1644C26.2155 55.2535 35.8478 59.1841 44.9756 64.5031C54.2123 70.1186 62.9191 76.9038 70.5394 84.3614C78.1691 91.939 84.5963 100.036 89.2229 108.211Z" stroke="url(#paint20_linear_145_428)" stroke-width="2" stroke-linecap="round" stroke-dasharray="8 2"/>
<path opacity="0.85" d="M79.7412 110.663C83.6942 120.858 82.6837 137.688 78.2661 144.251C74.7625 148.594 70.0207 152.346 64.3205 155.381C58.6138 158.898 52.0662 161.889 44.9072 164.112C37.8183 166.891 30.7791 168.551 24.0809 169.095C17.3446 169.884 10.8273 169.318 4.76889 167.385C-1.45702 165.488 -7.33259 162.132 -12.5491 157.402C-17.9983 152.653 -22.8166 146.552 -26.5785 139.251C-30.5007 131.954 -32.8789 124.186 -33.7524 116.403C-34.6015 108.668 -33.8617 100.96 -31.632 93.7407C-29.3128 86.6232 -25.5045 80.0943 -20.3751 74.6308C-15.1825 69.4227 -8.71672 65.4149 -1.15559 63.0854C6.44512 61.1942 14.3896 61.2198 22.2707 62.8777C30.175 64.905 38.0242 68.4334 45.3729 73.0913C52.7513 77.9675 59.6358 83.8221 65.5566 90.2356C71.4547 96.7314 76.3386 103.67 79.7412 110.663Z" stroke="url(#paint21_linear_145_428)" stroke-width="2" stroke-linecap="round" stroke-dasharray="3 4"/>
<path opacity="0.89" d="M70.3313 112.583C74.7364 124.059 73.4534 133.636 67.9527 140.305C62.1844 147.609 52.5996 153.087 40.8943 155.487C29.2265 159.295 17.5786 159.003 7.82734 154.943C-2.33088 151.041 -11.0958 142.69 -16.0902 130.746C-21.5046 118.809 -21.6891 105.79 -17.4063 94.6346C-12.9764 83.8459 -4.01895 75.4392 8.23221 72.3092C20.5055 70.3089 33.6041 74.2036 44.895 81.8144C56.1773 90.0054 65.5762 101.114 70.3313 112.583Z" stroke="url(#paint22_linear_145_428)" stroke-width="2" stroke-linecap="round"/>
<path opacity="0.92" d="M60.9671 114.143C63.7533 122.926 62.452 130.38 58.1496 135.617C53.6885 141.217 46.4066 145.192 37.4899 146.469C28.5341 148.515 19.6019 147.349 12.2369 143.529C4.64514 139.837 -1.58828 133.071 -4.69924 123.981C-8.02992 114.879 -7.42207 105.318 -3.63485 97.4204C0.189571 89.7753 7.21647 84.1259 16.4836 82.4558C25.7166 81.4549 35.3522 84.73 43.4512 90.6502C51.4928 96.908 57.9712 105.349 60.9671 114.143Z" stroke="url(#paint23_linear_145_428)" stroke-width="2" stroke-linecap="round" stroke-dasharray="5 10"/>
<path opacity="0.96" d="M51.5476 115.428C54.4423 127.367 46.8191 136.42 34.8056 137.039C22.6396 138.989 10.5346 131.527 7.37492 119.284C3.81816 106.992 10.9529 95.0087 23.3853 93.4336C35.6712 93.0596 48.277 103.434 51.5476 115.428Z" stroke="url(#paint24_linear_145_428)" stroke-width="2" stroke-linecap="round" stroke-dasharray="9 5"/>
<defs>
<linearGradient id="paint0_linear_145_428" x1="20.981" y1="-161.635" x2="20.981" y2="437.42" gradientUnits="userSpaceOnUse">
<stop stop-color="#1F89DB"/>
<stop offset="1" stop-color="#F42A8B"/>
</linearGradient>
<linearGradient id="paint1_linear_145_428" x1="40.1533" y1="-150.028" x2="-0.458742" y2="424.983" gradientUnits="userSpaceOnUse">
<stop stop-color="#1F89DB"/>
<stop offset="1" stop-color="#F42A8B"/>
</linearGradient>
<linearGradient id="paint2_linear_145_428" x1="57.6994" y1="-137.241" x2="-20.1358" y2="411.03" gradientUnits="userSpaceOnUse">
<stop stop-color="#1F89DB"/>
<stop offset="1" stop-color="#F42A8B"/>
</linearGradient>
<linearGradient id="paint3_linear_145_428" x1="73.5416" y1="-123.445" x2="-37.9553" y2="395.758" gradientUnits="userSpaceOnUse">
<stop stop-color="#1F89DB"/>
<stop offset="1" stop-color="#F42A8B"/>
</linearGradient>
<linearGradient id="paint4_linear_145_428" x1="87.573" y1="-108.83" x2="-53.8993" y2="379.393" gradientUnits="userSpaceOnUse">
<stop stop-color="#1F89DB"/>
<stop offset="1" stop-color="#F42A8B"/>
</linearGradient>
<linearGradient id="paint5_linear_145_428" x1="99.7705" y1="-93.5871" x2="-67.891" y2="362.104" gradientUnits="userSpaceOnUse">
<stop stop-color="#1F89DB"/>
<stop offset="1" stop-color="#F42A8B"/>
</linearGradient>
<linearGradient id="paint6_linear_145_428" x1="109.765" y1="-78.0611" x2="-80.1342" y2="343.695" gradientUnits="userSpaceOnUse">
<stop stop-color="#1F89DB"/>
<stop offset="1" stop-color="#F42A8B"/>
</linearGradient>
<linearGradient id="paint7_linear_145_428" x1="118.562" y1="-61.9927" x2="-89.698" y2="325.112" gradientUnits="userSpaceOnUse">
<stop stop-color="#1F89DB"/>
<stop offset="1" stop-color="#F42A8B"/>
</linearGradient>
<linearGradient id="paint8_linear_145_428" x1="125.533" y1="-45.8032" x2="-97.3607" y2="306.508" gradientUnits="userSpaceOnUse">
<stop stop-color="#1F89DB"/>
<stop offset="1" stop-color="#F42A8B"/>
</linearGradient>
<linearGradient id="paint9_linear_145_428" x1="130.396" y1="-29.892" x2="-103.277" y2="287.518" gradientUnits="userSpaceOnUse">
<stop stop-color="#1F89DB"/>
<stop offset="1" stop-color="#F42A8B"/>
</linearGradient>
<linearGradient id="paint10_linear_145_428" x1="134.02" y1="-13.8407" x2="-106.662" y2="268.959" gradientUnits="userSpaceOnUse">
<stop stop-color="#1F89DB"/>
<stop offset="1" stop-color="#F42A8B"/>
</linearGradient>
<linearGradient id="paint11_linear_145_428" x1="135.791" y1="1.71782" x2="-108.163" y2="250.487" gradientUnits="userSpaceOnUse">
<stop stop-color="#1F89DB"/>
<stop offset="1" stop-color="#F42A8B"/>
</linearGradient>
<linearGradient id="paint12_linear_145_428" x1="135.903" y1="16.6892" x2="-107.762" y2="232.417" gradientUnits="userSpaceOnUse">
<stop stop-color="#1F89DB"/>
<stop offset="1" stop-color="#F42A8B"/>
</linearGradient>
<linearGradient id="paint13_linear_145_428" x1="134.488" y1="31.008" x2="-105.462" y2="214.995" gradientUnits="userSpaceOnUse">
<stop stop-color="#1F89DB"/>
<stop offset="1" stop-color="#F42A8B"/>
</linearGradient>
<linearGradient id="paint14_linear_145_428" x1="131.42" y1="44.1552" x2="-101.6" y2="198.037" gradientUnits="userSpaceOnUse">
<stop stop-color="#1F89DB"/>
<stop offset="1" stop-color="#F42A8B"/>
</linearGradient>
<linearGradient id="paint15_linear_145_428" x1="127.357" y1="56.7853" x2="-95.7339" y2="182.491" gradientUnits="userSpaceOnUse">
<stop stop-color="#1F89DB"/>
<stop offset="1" stop-color="#F42A8B"/>
</linearGradient>
<linearGradient id="paint16_linear_145_428" x1="122.057" y1="68.4606" x2="-88.3077" y2="168.169" gradientUnits="userSpaceOnUse">
<stop stop-color="#1F89DB"/>
<stop offset="1" stop-color="#F42A8B"/>
</linearGradient>
<linearGradient id="paint17_linear_145_428" x1="115.077" y1="79.3959" x2="-79.4263" y2="155.308" gradientUnits="userSpaceOnUse">
<stop stop-color="#1F89DB"/>
<stop offset="1" stop-color="#F42A8B"/>
</linearGradient>
<linearGradient id="paint18_linear_145_428" x1="108.582" y1="88.7213" x2="-69.2761" y2="144.05" gradientUnits="userSpaceOnUse">
<stop stop-color="#1F89DB"/>
<stop offset="1" stop-color="#F42A8B"/>
</linearGradient>
<linearGradient id="paint19_linear_145_428" x1="100.553" y1="96.8577" x2="-58.1456" y2="134.197" gradientUnits="userSpaceOnUse">
<stop stop-color="#1F89DB"/>
<stop offset="1" stop-color="#F42A8B"/>
</linearGradient>
<linearGradient id="paint20_linear_145_428" x1="91.8528" y1="103.762" x2="-46.1317" y2="126.111" gradientUnits="userSpaceOnUse">
<stop stop-color="#1F89DB"/>
<stop offset="1" stop-color="#F42A8B"/>
</linearGradient>
<linearGradient id="paint21_linear_145_428" x1="80.9504" y1="109.54" x2="-33.45" y2="119.871" gradientUnits="userSpaceOnUse">
<stop stop-color="#1F89DB"/>
<stop offset="1" stop-color="#F42A8B"/>
</linearGradient>
<linearGradient id="paint22_linear_145_428" x1="72.7592" y1="113.944" x2="-20.3217" y2="115.763" gradientUnits="userSpaceOnUse">
<stop stop-color="#1F89DB"/>
<stop offset="1" stop-color="#F42A8B"/>
</linearGradient>
<linearGradient id="paint23_linear_145_428" x1="62.7839" y1="116.839" x2="-6.99125" y2="113.28" gradientUnits="userSpaceOnUse">
<stop stop-color="#1F89DB"/>
<stop offset="1" stop-color="#F42A8B"/>
</linearGradient>
<linearGradient id="paint24_linear_145_428" x1="52.5326" y1="118.453" x2="6.31867" y2="112.811" gradientUnits="userSpaceOnUse">
<stop stop-color="#1F89DB"/>
<stop offset="1" stop-color="#F42A8B"/>
</linearGradient>
</defs> 
</svg>
