<svg width="463" height="431" viewBox="0 0 463 431" fill="none" xmlns="http://www.w3.org/2000/svg">
<path opacity="0.05" d="M297.39 -177.35C306.89 -179.44 316.46 -180.83 326.08 -181.49C335.72 -181.88 345.44 -181.48 355.23 -180.32C365.08 -178.82 375.03 -176.54 385.09 -173.52C395.24 -170.17 405.53 -166.11 415.94 -161.4C426.47 -156.43 437.13 -150.86 447.9 -144.77C458.76 -138.5 469.69 -131.78 480.62 -124.66C491.54 -117.48 502.37 -109.96 512.98 -102.18C523.4 -94.4099 533.43 -86.4099 542.91 -78.2299C551.94 -70.1299 560.22 -61.8699 567.56 -53.4699C574.18 -45.1799 579.68 -36.7699 583.93 -28.2399C587.31 -19.8299 589.36 -11.2899 590.06 -2.63992C589.98 5.92008 588.68 14.6101 586.27 23.4501C583.49 32.2001 579.96 41.1201 575.93 50.2101C572.19 59.2401 568.46 68.4601 564.99 77.8701C562.55 87.2501 560.84 96.8401 560.04 106.64C560.74 116.42 562.53 126.42 565.39 136.63C569.66 146.84 574.62 157.01 579.99 167.13C586.04 177.24 591.9 187.29 597.28 197.22C602.46 207.14 606.61 216.93 609.52 226.52C611.58 236.07 612.1 245.39 611.05 254.43C608.88 263.36 605.13 271.96 599.93 280.14C593.73 288.16 586.28 295.71 577.8 302.72C568.67 309.51 558.81 315.7 548.42 321.23C537.79 326.5 526.89 331.09 515.89 334.96C504.97 338.56 494.11 341.47 483.4 343.69C472.95 345.72 462.7 347.15 452.68 348C442.97 348.86 433.45 349.29 424.12 349.39C415.05 349.74 406.09 349.96 397.22 350.14C388.53 350.84 379.85 351.71 371.14 352.82C362.54 354.69 353.84 356.93 345.05 359.59C336.29 363.07 327.39 366.97 318.35 371.24C309.31 376.2 300.11 381.38 290.76 386.63C281.41 392.24 272.14 397.48 262.98 402.22C253.83 406.85 244.81 410.66 235.96 413.56C227.14 415.97 218.52 417.27 210.13 417.42C201.8 416.88 193.73 415.14 185.96 412.23C178.26 408.61 170.88 403.9 163.85 398.18C156.89 391.88 150.28 384.73 144.05 376.83C137.85 368.56 132.01 359.72 126.53 350.43C121.03 340.97 115.86 331.21 110.99 321.24C106.03 311.27 101.32 301.18 96.8601 291.06C92.2201 281.04 87.7601 271.02 83.4901 261.05C78.9701 251.21 74.5901 241.43 70.3501 231.71C65.8601 222.12 61.5001 212.58 57.3201 203.07C52.9101 193.68 48.7101 184.29 44.7701 174.91C40.7001 165.6 36.9601 156.26 33.6201 146.9C30.2801 137.57 27.4301 128.18 25.1301 118.76C22.9801 109.34 21.4801 99.8601 20.6701 90.3401C20.1301 80.8201 20.3601 71.4701 21.3201 62.3301C22.5801 53.1901 24.5601 44.2501 27.2201 35.5601C30.1101 26.8701 33.6301 18.4301 37.7001 10.2801C41.9001 2.14009 46.59 -5.6999 51.68 -13.2099C56.77 -20.6899 62.1901 -27.8399 67.8901 -34.6299C73.4601 -41.3799 79.23 -47.7799 85.18 -53.7899C90.91 -59.7999 96.7901 -65.4399 102.78 -70.6999C108.53 -75.9999 114.41 -80.9499 120.4 -85.5599C126.17 -90.2599 132.1 -94.6599 138.18 -98.7899C144.09 -103.06 150.2 -107.12 156.53 -110.96C162.74 -115.03 169.21 -118.94 175.94 -122.7C182.6 -126.74 189.56 -130.67 196.81 -134.49C204.02 -138.6 211.54 -142.6 219.36 -146.47C227.17 -150.59 235.27 -154.55 243.67 -158.28C252.06 -162.19 260.74 -165.8 269.7 -169.04C278.64 -172.31 287.87 -175.1 297.38 -177.34" stroke="url(#paint0_linear_142_101)" stroke-width="2" stroke-linecap="round"/>
<path opacity="0.09" d="M321.271 -166.614C330.624 -168.039 340.02 -168.779 349.446 -168.815C358.884 -168.599 368.359 -167.629 377.883 -165.924C387.434 -163.906 397.043 -161.132 406.71 -157.633C416.426 -153.829 426.214 -149.328 436.066 -144.191C445.97 -138.79 455.932 -132.793 465.909 -126.284C475.912 -119.593 485.883 -112.442 495.757 -104.908C505.544 -97.2896 515.138 -89.3439 524.413 -81.1301C533.448 -72.9332 542.007 -64.5293 549.954 -55.9682C557.446 -47.4993 564.137 -38.9065 569.891 -30.2496C574.982 -21.7097 578.987 -13.1262 581.817 -4.50542C583.876 3.96066 584.739 12.4626 584.377 20.9883C583.373 29.3884 581.303 37.8336 578.277 46.3315C575.005 54.7519 571.106 63.2683 566.797 71.8962C562.841 80.4989 558.923 89.2747 555.264 98.2191C552.574 107.212 550.55 116.422 549.332 125.86C549.481 135.384 550.575 145.155 552.605 155.163C555.922 165.262 559.852 175.334 564.148 185.341C569.093 195.385 573.885 205.317 578.278 215.071C582.543 224.806 585.922 234.307 588.229 243.513C589.823 252.607 590.056 261.366 588.896 269.705C586.754 277.884 583.182 285.592 578.283 292.794C572.457 299.771 565.466 306.205 557.476 312.026C548.851 317.612 539.489 322.565 529.571 326.867C519.36 330.918 508.836 334.305 498.156 337.039C487.473 339.553 476.803 341.446 466.227 342.724C455.828 343.894 445.597 344.545 435.57 344.719C425.779 344.96 416.182 344.853 406.774 344.5C397.566 344.431 388.494 344.271 379.534 344.099C370.707 344.458 361.908 344.98 353.114 345.722C344.38 347.17 335.584 348.945 326.731 351.077C317.866 353.959 308.886 357.195 299.815 360.724C290.709 364.883 281.482 369.204 272.173 373.549C262.829 378.232 253.641 382.565 244.637 386.431C235.648 390.217 226.86 393.275 218.343 395.491C209.865 397.298 201.678 398.103 193.805 397.868C186.024 397.028 178.582 395.098 171.515 392.113C164.543 388.483 157.944 383.836 151.761 378.267C145.647 372.151 139.921 365.22 134.595 357.596C129.296 349.583 124.357 341.014 119.781 331.999C115.17 322.771 110.872 313.225 106.861 303.448C102.733 293.613 98.836 283.643 95.1645 273.6C91.2999 263.592 87.5871 253.566 84.0424 243.571C80.242 233.649 76.5692 223.766 73.0325 213.942C69.2294 204.2 65.5525 194.517 62.0523 184.886C58.3263 175.33 54.8084 165.809 51.5484 156.325C48.1638 146.903 45.0991 137.494 42.4227 128.122C39.7642 118.782 37.5759 109.454 35.9269 100.155C34.4369 90.8771 33.5667 81.6228 33.3855 72.4071C33.4637 63.2098 34.2759 54.2648 35.7909 45.5899C37.5944 36.9455 40.0906 28.5706 43.2376 20.4922C46.6239 12.4308 50.5898 4.6809 55.0945 -2.7502C59.7282 -10.1622 64.8296 -17.2403 70.3081 -23.9811C75.8045 -30.6905 81.6082 -37.0675 87.6665 -43.0756C93.6237 -49.0708 99.7671 -54.722 106.065 -60.0015C112.174 -65.3142 118.399 -70.268 124.72 -74.8841C130.814 -79.5564 137.006 -83.911 143.297 -87.9578C149.364 -92.1106 155.554 -96.0042 161.865 -99.6286C168.009 -103.435 174.308 -107.03 180.792 -110.412C187.154 -114.043 193.733 -117.498 200.543 -120.806C207.283 -124.39 214.274 -127.856 221.536 -131.173C228.758 -134.783 236.261 -138.243 244.043 -141.553C251.813 -145.105 259.859 -148.466 268.189 -151.567C276.5 -154.839 285.088 -157.782 293.942 -160.354C302.786 -162.938 311.897 -165.051 321.261 -166.615" stroke="url(#paint1_linear_142_101)" stroke-width="2" stroke-linecap="round" stroke-dasharray="2 3"/>
<path opacity="0.13" d="M344.139 -153.933C353.299 -154.713 362.486 -154.823 371.66 -154.278C380.829 -153.482 389.999 -151.978 399.179 -149.765C408.347 -147.252 417.535 -144.028 426.715 -140.109C435.904 -135.896 445.11 -131.014 454.288 -125.519C463.472 -119.771 472.624 -113.452 481.705 -106.628C490.741 -99.6282 499.653 -92.1817 508.371 -84.3687C516.955 -76.4637 525.243 -68.2473 533.135 -59.8042C540.743 -51.361 547.823 -42.7503 554.24 -34.0218C560.206 -25.3876 565.363 -16.6763 569.6 -7.96417C573.229 0.621181 575.842 9.18339 577.358 17.7112C578.221 26.0755 577.998 34.4068 576.693 42.6755C574.891 50.813 572.163 58.9301 568.618 67.0424C564.932 75.0741 560.733 83.1642 556.212 91.3197C552.073 99.489 547.993 107.808 544.172 116.295C541.265 124.892 538.942 133.713 537.324 142.766C536.943 151.994 537.384 161.48 538.64 171.203C541.043 181.099 543.996 190.962 547.273 200.75C551.165 210.615 554.956 220.334 558.397 229.822C561.801 239.284 564.44 248.436 566.164 257.215C567.31 265.862 567.277 274.059 566.024 281.749C563.932 289.229 560.565 296.155 556 302.486C550.612 308.559 544.132 314.012 536.734 318.81C528.716 323.348 519.973 327.238 510.666 330.472C501.039 333.469 491.06 335.819 480.885 337.556C470.633 339.121 460.343 340.104 450.097 340.559C439.94 340.955 429.898 340.903 420.045 340.444C410.325 340.114 400.785 339.507 391.427 338.694C382.204 338.203 373.11 337.659 364.135 337.132C355.23 337.111 346.373 337.247 337.557 337.591C328.729 338.59 319.89 339.881 311.008 341.468C302.081 343.736 293.072 346.295 284.018 349.1C274.885 352.46 265.694 355.943 256.472 359.431C247.2 363.205 238.142 366.677 229.327 369.718C220.529 372.711 212.017 375.038 203.822 376.632C195.687 377.871 187.922 378.212 180.539 377.639C173.262 376.535 166.386 374.458 159.948 371.423C153.612 367.817 147.71 363.292 142.252 357.912C136.866 352.026 131.909 345.394 127.36 338.092C122.845 330.411 118.699 322.187 114.91 313.518C111.073 304.62 107.535 295.391 104.285 285.911C100.909 276.321 97.7487 266.57 94.7942 256.717C91.639 246.855 88.6336 236.934 85.7682 227.023C82.6568 217.138 79.6656 207.259 76.7974 197.439C73.6804 187.664 70.6879 177.936 67.8482 168.271C64.8205 158.65 61.9766 149.086 59.3746 139.596C56.6765 130.143 54.2925 120.754 52.2719 111.438C50.2867 102.157 48.747 92.9387 47.7378 83.8264C46.8771 74.7352 46.6189 65.7396 47.0114 56.8565C47.6711 48.0115 49.0128 39.4854 51.0238 31.2968C53.3204 23.1588 56.258 15.3441 59.8025 7.87817C63.5946 0.447403 67.9329 -6.63309 72.7763 -13.3591C77.7584 -20.0654 83.1735 -26.4073 88.9411 -32.3859C94.7483 -38.359 100.849 -43.9773 107.171 -49.2409C113.433 -54.503 119.859 -59.4287 126.417 -64.0023C132.821 -68.6282 139.329 -72.926 145.913 -76.9001C152.298 -80.963 158.762 -84.7319 165.287 -88.2194C171.629 -91.8439 178.057 -95.2139 184.573 -98.3592C190.934 -101.688 197.427 -104.807 204.066 -107.743C210.587 -110.918 217.288 -113.936 224.186 -116.784C231.014 -119.916 238.063 -122.895 245.344 -125.729C252.602 -128.83 260.1 -131.775 267.855 -134.533C275.591 -137.515 283.578 -140.28 291.832 -142.784C300.065 -145.423 308.554 -147.733 317.279 -149.646C325.988 -151.581 334.941 -153.037 344.129 -153.935" stroke="url(#paint2_linear_142_101)" stroke-width="2" stroke-linecap="round" stroke-dasharray="5 6"/>
<path opacity="0.16" d="M365.599 -139.415C374.52 -139.565 383.429 -139.094 392.295 -137.988C401.133 -136.663 409.937 -134.649 418.692 -131.982C427.408 -129.036 436.088 -125.403 444.703 -121.129C453.288 -116.575 461.8 -111.392 470.227 -105.624C478.603 -99.6216 486.874 -93.0792 494.971 -86.0627C502.98 -78.8709 510.778 -71.2741 518.288 -63.3304C525.618 -55.3127 532.581 -47.0157 539.08 -38.5116C545.276 -30.0215 550.899 -21.3885 555.834 -12.6986C560.335 -4.08147 564.048 4.5402 566.866 13.1335C569.156 21.5723 570.494 29.9603 570.834 38.2362C570.635 46.3553 569.465 54.3784 567.354 62.3018C564.865 70.0826 561.58 77.8051 557.612 85.4729C553.593 93.0889 549.17 100.731 544.484 108.408C540.205 116.142 536.01 124.006 532.046 132.033C528.93 140.211 526.335 148.624 524.346 157.269C523.471 166.153 523.299 175.291 523.821 184.669C525.38 194.271 527.416 203.841 529.75 213.312C532.66 222.907 535.489 232.311 538.056 241.454C540.628 250.577 542.573 259.331 543.752 267.654C544.472 275.827 544.187 283.488 542.859 290.577C540.817 297.421 537.667 303.659 533.454 309.228C528.513 314.519 522.598 319.15 515.821 323.085C508.477 326.755 500.438 329.754 491.856 332.094C482.923 334.205 473.621 335.706 464.09 336.605C454.425 337.362 444.658 337.597 434.894 337.341C425.144 337.068 415.457 336.409 405.903 335.411C396.422 334.551 387.078 333.486 377.881 332.257C368.748 331.35 359.731 330.426 350.829 329.537C341.948 329.123 333.116 328.863 324.324 328.795C315.496 329.324 306.655 330.105 297.808 331.151C288.875 332.792 279.908 334.681 270.909 336.768C261.825 339.348 252.722 342.017 243.643 344.669C234.495 347.594 225.614 350.228 217.026 352.495C208.459 354.716 200.219 356.363 192.374 357.368C184.581 358.078 177.213 357.999 170.284 357.114C163.454 355.771 157.095 353.566 151.205 350.512C145.423 346.958 140.107 342.564 135.27 337.414C130.515 331.79 126.195 325.472 122.306 318.531C118.441 311.237 114.957 303.411 111.831 295.151C108.657 286.644 105.791 277.795 103.185 268.685C100.459 259.426 97.9561 249.98 95.6317 240.419C93.1279 230.789 90.7624 221.086 88.5268 211.35C86.0677 201.606 83.7225 191.856 81.4848 182.13C79.0271 172.427 76.6965 162.753 74.5021 153.158C72.1407 143.579 69.9707 134.061 68.0346 124.644C66.0021 115.248 64.2762 105.949 62.9156 96.7581C61.5758 87.6129 60.6739 78.572 60.2602 69.6871C60.0126 60.8379 60.3259 52.1398 61.2641 43.627C62.4468 35.1668 64.2754 27.0804 66.7142 19.3911C69.4386 11.7529 72.7559 4.49764 76.6324 -2.36134C80.7457 -9.1797 85.3791 -15.6102 90.4719 -21.6557C95.7233 -27.6773 101.363 -33.3188 107.342 -38.581C113.369 -43.8326 119.669 -48.7391 126.186 -53.2718C132.651 -57.8465 139.285 -62.0677 146.034 -65.9675C152.665 -69.9338 159.381 -73.585 166.158 -76.9471C172.774 -80.4154 179.454 -83.614 186.18 -86.5473C192.745 -89.6377 199.384 -92.4976 206.08 -95.1508C212.644 -97.9961 219.311 -100.656 226.091 -103.127C232.77 -105.845 239.598 -108.399 246.578 -110.797C253.509 -113.45 260.623 -115.953 267.937 -118.289C275.225 -120.887 282.728 -123.295 290.445 -125.514C298.147 -127.941 306.082 -130.124 314.233 -132.025C322.379 -134.05 330.741 -135.742 339.313 -137.031C347.875 -138.322 356.632 -139.141 365.589 -139.417" stroke="url(#paint3_linear_142_101)" stroke-width="2" stroke-linecap="round" stroke-dasharray="1 10"/>
<path opacity="0.2" d="M385.24 -123.227C393.884 -122.805 402.457 -121.778 410.952 -120.16C419.398 -118.337 427.765 -115.881 436.024 -112.801C444.233 -109.475 452.331 -105.515 460.307 -100.955C468.21 -96.1449 475.983 -90.7381 483.583 -84.8086C491.097 -78.6541 498.415 -72.0045 505.494 -64.9245C512.434 -57.687 519.088 -50.0742 525.387 -42.1688C531.474 -34.1791 537.13 -25.9601 542.273 -17.5879C547.115 -9.21958 551.347 -0.757374 554.893 7.73524C558.04 16.1329 560.414 24.5044 561.956 32.8013C563.039 40.955 563.248 49.0011 562.559 56.9119C561.437 64.6659 559.467 72.2889 556.676 79.7674C553.623 87.1392 549.903 94.4109 545.602 101.598C541.336 108.774 536.741 115.938 531.948 123.139C527.566 130.427 523.274 137.836 519.204 145.381C515.911 153.151 513.057 161.132 510.74 169.342C509.394 177.833 508.662 186.574 508.521 195.539C509.293 204.769 510.481 213.963 511.95 223.051C513.94 232.279 515.887 241.297 517.645 250.032C519.451 258.749 520.746 267.068 521.407 274.922C521.716 282.622 521.198 289.761 519.787 296.285C517.799 302.571 514.86 308.185 510.996 313.114C506.506 317.758 501.149 321.692 495.024 324.936C488.376 327.902 481.083 330.183 473.271 331.813C465.105 333.226 456.573 334.033 447.769 334.272C438.792 334.388 429.675 334.016 420.512 333.194C411.295 332.376 402.094 331.219 392.969 329.762C383.847 328.472 374.813 326.989 365.895 325.394C356.979 324.112 348.149 322.824 339.409 321.582C330.646 320.782 321.913 320.125 313.235 319.641C304.474 319.694 295.725 319.96 286.971 320.453C278.116 321.479 269.243 322.708 260.38 324.086C251.407 325.91 242.459 327.795 233.558 329.661C224.593 331.748 215.932 333.611 207.609 335.135C199.292 336.64 191.36 337.642 183.846 338.098C176.394 338.302 169.4 337.827 162.888 336.659C156.471 335.091 150.553 332.772 145.14 329.714C139.829 326.197 135.018 321.961 130.689 317.031C126.451 311.68 122.659 305.688 119.309 299.137C115.981 292.228 113.044 284.828 110.468 277.012C107.843 268.932 105.524 260.514 103.47 251.829C101.311 242.968 99.3562 233.906 97.5913 224.691C95.655 215.384 93.8661 205.964 92.2024 196.508C90.3369 186.992 88.5842 177.447 86.9468 167.936C85.1117 158.388 83.4015 148.876 81.8365 139.438C80.1288 129.989 78.5952 120.622 77.2934 111.353C75.9228 102.107 74.8417 92.9749 74.0923 83.9914C73.3855 75.041 73.0805 66.2487 73.2543 57.6368C73.5665 49.0859 74.4247 40.7348 75.8521 32.611C77.5292 24.5597 79.7927 16.9282 82.6053 9.73682C85.6924 2.60421 89.3219 -4.10054 93.4621 -10.3762C97.8453 -16.5919 102.694 -22.402 107.964 -27.7984C113.394 -33.1695 119.187 -38.1436 125.293 -42.7251C131.463 -47.3091 137.891 -51.5268 144.509 -55.3975C151.115 -59.2931 157.875 -62.8625 164.734 -66.1225C171.517 -69.446 178.377 -72.4972 185.287 -75.2529C192.078 -78.1368 198.913 -80.7787 205.79 -83.1692C212.533 -85.7442 219.336 -88.0937 226.175 -90.2452C232.917 -92.6018 239.733 -94.781 246.635 -96.7894C253.448 -99.0317 260.391 -101.111 267.458 -103.041C274.477 -105.203 281.65 -107.216 288.983 -109.058C296.299 -111.133 303.791 -113.023 311.469 -114.692C319.14 -116.551 326.997 -118.157 335.031 -119.473C343.064 -120.894 351.281 -121.98 359.659 -122.654C368.031 -123.341 376.555 -123.547 385.23 -123.23" stroke="url(#paint4_linear_142_101)" stroke-width="2" stroke-linecap="round" stroke-dasharray="8 8"/>
<path opacity="0.24" d="M402.685 -105.662C410.998 -104.682 419.186 -103.161 427.253 -101.077C435.258 -98.8247 443.127 -95.9721 450.833 -92.5613C458.466 -88.9219 465.929 -84.7056 473.205 -79.9508C480.381 -74.9555 487.355 -69.4381 494.089 -63.4441C500.716 -57.2445 507.064 -50.6043 513.102 -43.5876C518.985 -36.4365 524.503 -28.9613 529.615 -21.2202C534.503 -13.4227 538.908 -5.4408 542.777 2.66382C546.347 10.7434 549.301 18.8736 551.585 27.0021C553.508 35.0404 554.695 43.0212 555.114 50.8898C555.138 58.6134 554.375 66.2177 552.833 73.6525C550.938 80.9468 548.31 88.0887 544.985 95.0699C541.489 101.967 537.426 108.751 532.895 115.449C528.449 122.145 523.75 128.834 518.906 135.544C514.462 142.38 510.106 149.323 505.956 156.406C502.493 163.731 499.423 171.264 496.809 179.007C495.045 187.074 493.805 195.366 493.053 203.87C493.107 212.67 493.534 221.415 494.214 230.051C495.37 238.841 496.514 247.402 497.521 255.669C498.611 263.944 499.306 271.786 499.493 279.154C499.426 286.375 498.668 293.011 497.192 299.021C493.867 307.334 482.493 320.06 474.594 324.442C468.641 326.865 462.099 328.603 455.07 329.693C447.693 330.57 439.955 330.866 431.94 330.613C423.719 330.252 415.319 329.421 406.837 328.175C398.251 326.955 389.623 325.411 381.029 323.602C372.367 321.95 363.76 320.147 355.213 318.238C346.619 316.632 338.073 315.012 329.595 313.437C321.038 312.281 312.516 311.234 304.029 310.349C295.437 309.926 286.838 309.693 278.266 309.65C269.565 310.072 260.866 310.664 252.197 311.375C243.409 312.468 234.667 313.609 226.015 314.71C217.293 316.029 208.894 317.137 200.874 317.969C192.834 318.793 185.22 319.188 178.049 319.129C170.936 318.856 164.293 317.999 158.152 316.56C152.117 314.777 146.585 312.347 141.577 309.279C136.672 305.812 132.268 301.709 128.364 297.001C124.537 291.907 121.178 286.238 118.262 280.061C115.362 273.549 112.865 266.579 110.726 259.217C108.547 251.585 106.673 243.618 105.075 235.39C103.37 226.963 101.893 218.322 100.602 209.525C99.159 200.587 97.8656 191.533 96.7134 182.415C95.3898 173.212 94.1783 163.965 93.0898 154.731C91.8289 145.444 90.7003 136.174 89.7278 126.973C88.623 117.754 87.7024 108.614 86.9967 99.585C86.2525 90.5738 85.7701 81.6908 85.6083 72.9791C85.4993 64.2975 85.7801 55.8019 86.4778 47.5343C87.3351 39.3254 88.6818 31.3499 90.5675 23.6473C92.675 16.0369 95.3096 8.87621 98.4586 2.17112C101.851 -4.44419 105.737 -10.6014 110.089 -16.3203C114.661 -21.9691 119.659 -27.184 125.042 -31.9694C130.592 -36.7149 136.465 -41.0645 142.63 -45.0191C148.877 -48.9648 155.353 -52.5491 162.011 -55.7893C168.68 -59.0576 175.491 -62.0178 182.391 -64.6684C189.255 -67.396 196.193 -69.862 203.18 -72.0543C210.075 -74.376 217.015 -76.4685 223.979 -78.3389C230.857 -80.3795 237.769 -82.2261 244.721 -83.888C251.583 -85.7425 258.517 -87.4429 265.505 -88.974C272.437 -90.7282 279.46 -92.3215 286.578 -93.7726C293.669 -95.4366 300.885 -96.948 308.215 -98.2787C315.54 -99.8247 323.013 -101.167 330.622 -102.299C338.226 -103.593 345.981 -104.629 353.872 -105.37C361.766 -106.205 369.801 -106.701 377.954 -106.792C386.088 -106.889 394.331 -106.53 402.676 -105.666" stroke="url(#paint5_linear_142_101)" stroke-width="2" stroke-linecap="round" stroke-dasharray="10 3"/>
<path opacity="0.28" d="M417.624 -87.0409C425.538 -85.5719 433.303 -83.6001 440.883 -81.1194C448.393 -78.4837 455.71 -75.3209 462.815 -71.6394C469.837 -67.7754 476.622 -63.3826 483.167 -58.5056C489.59 -53.4312 495.75 -47.8941 501.609 -41.933C507.336 -35.8009 512.73 -29.2928 517.747 -22.4605C522.599 -15.5051 527.037 -8.28675 531.022 -0.866508C534.785 6.60749 538.035 14.2232 540.737 21.9103C543.156 29.5687 544.981 37.2557 546.146 44.8978C546.99 52.4501 547.159 59.9179 546.633 67.2483C545.766 74.4582 544.209 81.5216 541.964 88.407C539.451 95.1825 536.313 101.786 532.587 108.235C528.755 114.626 524.463 120.896 519.795 127.074C515.24 133.292 510.493 139.501 505.633 145.714C501.161 152.09 496.774 158.57 492.575 165.167C488.996 172.044 485.734 179.119 482.86 186.379C480.724 193.972 479.018 201.78 477.741 209.781C477.147 218.089 476.891 226.331 476.863 234.456C477.262 242.751 477.688 250.817 478.026 258.569C478.458 266.353 478.604 273.7 478.35 280.572C477.438 290.393 472.167 306.631 467.64 312.884C461.807 318.022 446.545 324.442 437.368 325.826C430.778 326.335 423.838 326.282 416.626 325.688C409.181 325.001 401.544 323.866 393.779 322.332C385.872 320.823 377.89 319.016 369.888 316.96C361.777 315.052 353.664 313 345.583 310.853C337.396 308.965 329.232 307.077 321.104 305.227C312.853 303.727 304.619 302.334 296.417 301.064C288.066 300.199 279.721 299.491 271.405 298.938C262.939 298.789 254.493 298.77 246.09 298.847C237.562 299.251 229.098 299.684 220.74 300.077C212.305 300.666 204.224 301.075 196.52 301.258C188.802 301.446 181.522 301.271 174.687 300.716C167.908 299.989 161.62 298.781 155.821 297.069C147.543 293.802 133.687 284.021 128.087 277.508C124.614 272.654 121.59 267.289 118.999 261.473C116.445 255.333 114.285 248.779 112.487 241.86C110.665 234.679 109.152 227.176 107.91 219.412C106.588 211.436 105.495 203.245 104.596 194.889C103.57 186.378 102.713 177.734 102.01 169.017C101.146 160.194 100.419 151.312 99.8291 142.416C99.0988 133.467 98.5075 124.526 98.0621 115.651C97.5255 106.734 97.1672 97.9089 97.0327 89.1955C96.8586 80.4971 96.9539 71.931 97.3387 63.5501C97.7791 55.2161 98.581 47.0778 99.7828 39.1963C101.121 31.3764 102.923 23.8198 105.202 16.5659C107.713 9.40558 110.678 2.72366 114.087 -3.48397C117.733 -9.58486 121.828 -15.2206 126.331 -20.3984C131.038 -25.4951 136.14 -30.1511 141.572 -34.3731C147.176 -38.5394 153.071 -42.3012 159.227 -45.6708C165.477 -49.0308 171.939 -52.0323 178.576 -54.6919C185.239 -57.3838 192.035 -59.7634 198.933 -61.8562C205.8 -64.0283 212.745 -65.935 219.741 -67.5886C226.677 -69.3786 233.663 -70.9379 240.662 -72.3052C247.609 -73.827 254.586 -75.1711 261.583 -76.3414C268.537 -77.7069 275.528 -78.9128 282.558 -79.9591C289.561 -81.2147 296.637 -82.3166 303.764 -83.2639C310.888 -84.4214 318.102 -85.4171 325.405 -86.2417C332.709 -87.241 340.115 -88.0519 347.619 -88.6431C355.136 -89.3824 362.761 -89.8531 370.47 -90.0453C378.185 -90.3003 385.984 -90.2321 393.862 -89.7776C401.727 -89.3182 409.65 -88.4269 417.605 -87.0491" stroke="url(#paint6_linear_142_101)" stroke-width="2" stroke-linecap="round" stroke-dasharray="4 8"/>
<path opacity="0.32" d="M429.782 -67.8001C437.268 -65.8847 444.557 -63.5189 451.596 -60.7087C458.581 -57.7569 465.32 -54.3471 471.79 -50.4802C478.166 -46.4594 484.26 -41.9773 490.051 -37.0792C495.715 -32.0104 501.064 -26.544 506.062 -20.7211C510.908 -14.7641 515.373 -8.47851 519.441 -1.94079C523.318 4.69859 526.75 11.5528 529.704 18.5583C532.446 25.5977 534.671 32.7334 536.344 39.9019C537.759 47.0447 538.592 54.1701 538.81 61.2368C538.758 68.2149 538.082 75.0849 536.767 81.8149C535.199 88.4434 533.01 94.919 530.223 101.198C527.245 107.408 523.744 113.451 519.738 119.335C515.688 125.196 511.265 130.947 506.541 136.604C501.945 142.341 497.201 148.056 492.385 153.777C487.926 159.701 483.541 165.7 479.326 171.824C475.64 178.232 472.23 184.824 469.142 191.577C466.684 198.679 464.591 205.968 462.837 213.427C461.687 221.2 460.817 228.897 460.175 236.466C459.906 244.225 459.686 251.748 459.425 258.966C459.279 266.223 458.918 273.058 458.267 279.418C456.907 288.532 451.502 303.475 447.301 309.152C442.03 313.777 428.451 319.303 420.328 320.304C414.476 320.585 408.292 320.301 401.855 319.518C395.17 318.647 388.292 317.331 381.269 315.653C374.062 313.979 366.761 312.015 359.391 309.822C351.873 307.753 344.325 305.532 336.757 303.22C329.065 301.138 321.344 299.027 313.643 296.94C305.786 295.166 297.927 293.458 290.069 291.854C282.063 290.59 274.048 289.446 266.061 288.419C257.92 287.742 249.795 287.163 241.725 286.648C233.527 286.416 225.399 286.2 217.407 285.943C209.321 285.839 201.588 285.608 194.24 285.186C186.88 284.769 179.952 284.074 173.464 283.047C164.054 281.119 147.805 274.83 141.008 270.367C134.856 265.002 125.09 251.515 121.389 243.472C119.106 237.69 117.206 231.512 115.668 225.019C114.121 218.27 112.882 211.222 111.92 203.914C110.906 196.407 110.121 188.684 109.543 180.788C108.872 172.728 108.383 164.539 108.05 156.251C107.603 147.858 107.297 139.393 107.144 130.919C106.877 122.361 106.761 113.816 106.81 105.325C106.787 96.7971 106.942 88.3411 107.316 80.026C107.673 71.7013 108.276 63.5317 109.163 55.5495C110.108 47.6094 111.391 39.8851 113.032 32.4222C114.81 25.0439 117.01 17.9377 119.647 11.1578C122.482 4.47332 125.732 -1.71554 129.37 -7.42299C133.225 -13.0255 137.459 -18.1514 142.068 -22.8142C146.867 -27.3862 152.001 -31.5053 157.441 -35.1992C163.039 -38.8301 168.907 -42.0547 175.001 -44.8968C181.206 -47.7132 187.597 -50.1794 194.149 -52.3099C200.745 -54.4613 207.476 -56.3134 214.284 -57.8858C221.107 -59.5293 228.003 -60.929 234.937 -62.0816C241.865 -63.3506 248.823 -64.4219 255.802 -65.3002C262.745 -66.3227 269.724 -67.1786 276.715 -67.8686C283.689 -68.738 290.69 -69.4456 297.718 -70.0137C304.734 -70.77 311.794 -71.3774 318.9 -71.8358C326.001 -72.4777 333.166 -72.9612 340.391 -73.2639C347.618 -73.7365 354.924 -74.0189 362.285 -74.0669C369.655 -74.2579 377.098 -74.1827 384.577 -73.8379C392.068 -73.5555 399.602 -72.9541 407.152 -71.9809C414.693 -71.0124 422.24 -69.6321 429.769 -67.796" stroke="url(#paint7_linear_142_101)" stroke-width="2" stroke-linecap="round" stroke-dasharray="1 9"/>
<path opacity="0.35" d="M439.026 -48.353C446.036 -46.0599 452.795 -43.3695 459.291 -40.3012C465.712 -37.1145 471.84 -33.5213 477.661 -29.5546C483.377 -25.4411 488.778 -20.9594 493.832 -16.117C498.756 -11.144 503.313 -5.83478 507.487 -0.236193C511.51 5.46863 515.12 11.433 518.289 17.5911C521.287 23.8309 523.821 30.2261 525.871 36.7299C527.708 43.2527 529.036 49.8321 529.835 56.4075C530.402 62.9552 530.411 69.469 529.868 75.8823C529.087 82.2402 527.736 88.4731 525.82 94.5502C523.713 100.554 521.065 106.405 517.891 112.076C514.596 117.695 510.849 123.17 506.695 128.482C502.536 133.803 498.067 139.034 493.354 144.182C488.794 149.426 484.1 154.657 479.368 159.911C474.954 165.354 470.606 170.899 466.402 176.534C462.654 182.458 459.132 188.549 455.877 194.796C453.155 201.381 450.723 208.125 448.576 215.015C446.937 222.226 445.559 229.342 444.378 236.334C443.524 243.52 442.747 250.472 441.954 257.129C441.283 263.84 440.471 270.154 439.462 276.013C437.68 284.422 432.105 298.172 428.145 303.346C423.347 307.564 411.243 312.462 404.054 313.239C398.878 313.396 393.396 313.028 387.679 312.168C381.731 311.209 375.575 309.847 369.264 308.114C362.758 306.389 356.124 304.381 349.406 302.131C342.525 299.99 335.565 297.693 328.566 295.288C321.4 293.074 314.188 290.819 306.96 288.553C299.574 286.555 292.153 284.593 284.725 282.698C277.129 281.088 269.525 279.566 261.939 278.128C254.185 276.973 246.46 275.884 238.789 274.842C230.988 274.024 223.275 273.215 215.675 272.359C207.998 271.644 200.666 270.815 193.707 269.844C186.729 268.885 180.175 267.685 174.05 266.236C165.16 263.736 149.854 256.75 143.474 252.169C137.72 246.825 128.65 233.797 125.254 226.147C123.185 220.684 121.492 214.868 120.147 208.763C118.814 202.417 117.79 195.805 117.052 188.948C116.27 181.898 115.739 174.639 115.422 167.209C115.036 159.628 114.848 151.9 114.839 144.096C114.74 136.153 114.796 128.153 115.029 120.136C115.162 112.032 115.471 103.932 115.953 95.8941C116.372 87.8053 116.985 79.8034 117.815 71.9268C118.637 64.0448 119.703 56.3179 121.032 48.7927C122.429 41.3103 124.128 34.0427 126.163 27.0471C128.32 20.1403 130.861 13.5238 133.798 7.21699C136.916 1.03621 140.389 -4.65927 144.201 -9.8801C148.207 -14.978 152.557 -19.6097 157.207 -23.7797C162.054 -27.849 167.188 -31.4757 172.585 -34.6759C178.142 -37.8106 183.919 -40.5455 189.914 -42.8944C196.014 -45.2237 202.287 -47.2075 208.7 -48.8535C215.183 -50.515 221.781 -51.8907 228.454 -52.9936C235.174 -54.1502 241.96 -55.0755 248.776 -55.7684C255.612 -56.5672 262.487 -57.1644 269.374 -57.576C276.26 -58.1181 283.168 -58.5052 290.095 -58.7374C297.019 -59.1139 303.96 -59.3493 310.91 -59.4489C317.876 -59.7043 324.873 -59.8217 331.881 -59.7896C338.911 -59.9216 345.969 -59.8935 353.057 -59.7051C360.157 -59.6502 367.301 -59.4021 374.462 -58.9547C381.636 -58.6047 388.841 -58.0224 396.05 -57.1656C403.265 -56.3755 410.471 -55.2716 417.658 -53.8372C424.822 -52.405 431.951 -50.5808 439.018 -48.3584" stroke="url(#paint8_linear_142_101)" stroke-width="2" stroke-linecap="round" stroke-dasharray="11 8"/>
<path opacity="0.39" d="M445.295 -29.1849C451.8 -26.5687 458.013 -23.6218 463.922 -20.3643C469.76 -17.0101 475.271 -13.313 480.449 -9.31492C485.516 -5.19985 490.23 -0.773616 494.57 3.92395C498.785 8.74063 502.61 13.8168 506.017 19.1067C509.275 24.4979 512.111 30.0749 514.496 35.7919C516.717 41.5623 518.47 47.447 519.737 53.3839C520.814 59.3426 521.399 65.3116 521.486 71.2491C521.362 77.1684 520.729 83.0223 519.578 88.7688C518.24 94.4649 516.392 100.046 514.048 105.473C511.56 110.843 508.598 116.064 505.197 121.122C501.714 126.157 497.845 131.058 493.647 135.815C489.464 140.621 485.038 145.334 480.407 149.972C475.925 154.744 471.349 159.509 466.731 164.28C462.404 169.265 458.139 174.333 453.972 179.486C450.203 184.944 446.616 190.524 443.237 196.244C440.301 202.291 437.602 208.487 435.134 214.791C433.085 221.404 431.273 227.93 429.639 234.315C428.288 240.907 427.022 247.265 425.781 253.354C424.051 262.4 419.933 278.367 417.286 285.049C410.023 295.286 395.051 304.069 388.675 304.752C381.67 304.687 366.156 302.045 357.766 299.693C351.937 297.997 345.965 296.022 339.879 293.814C333.618 291.676 327.261 289.38 320.841 286.951C314.245 284.678 307.574 282.337 300.871 279.973C293.983 277.808 287.062 275.655 280.122 273.527C273.005 271.64 265.864 269.786 258.74 267.993C251.45 266.426 244.18 264.899 236.97 263.391C229.632 262.074 222.37 260.738 215.23 259.356C208.012 258.078 201.12 256.729 194.588 255.262C188.029 253.798 181.872 252.159 176.134 250.306C167.784 247.276 153.426 239.623 147.451 234.902C142.053 229.55 133.604 216.873 130.471 209.574C128.567 204.385 127.032 198.896 125.851 193.147C124.68 187.181 123.823 180.974 123.253 174.545C122.664 167.94 122.332 161.139 122.226 154.181C122.083 147.072 122.134 139.834 122.387 132.507C122.579 125.061 122.948 117.56 123.491 110.024C123.979 102.412 124.642 94.8156 125.491 87.2698C126.303 79.6722 127.322 72.1649 128.539 64.7778C129.763 57.3966 131.225 50.1653 132.938 43.1317C134.71 36.1537 136.772 29.3891 139.132 22.8938C141.619 16.4794 144.445 10.3641 147.628 4.57351C150.971 -1.09847 154.615 -6.30111 158.553 -11.0263C162.666 -15.6351 167.07 -19.7945 171.737 -23.4862C176.575 -27.0894 181.659 -30.2507 186.977 -33.0042C192.437 -35.6649 198.105 -37.9494 203.95 -39.8675C209.902 -41.7445 216.012 -43.281 222.242 -44.5064C228.557 -45.7307 234.973 -46.6698 241.471 -47.3497C248.021 -48.066 254.627 -48.5548 261.279 -48.836C267.964 -49.1795 274.683 -49.3493 281.415 -49.3352C288.181 -49.4334 294.955 -49.3757 301.74 -49.1621C308.547 -49.0807 315.367 -48.8654 322.18 -48.506C329.022 -48.2869 335.878 -47.9339 342.726 -47.4368C349.604 -47.08 356.499 -46.5613 363.381 -45.8905C370.296 -45.3321 377.209 -44.6016 384.11 -43.6689C391.039 -42.8266 397.947 -41.752 404.819 -40.4431C411.707 -39.1723 418.543 -37.6291 425.312 -35.7753C432.058 -33.9252 438.728 -31.7345 445.281 -29.1827" stroke="url(#paint9_linear_142_101)" stroke-width="2" stroke-linecap="round" stroke-dasharray="9 8"/>
<path opacity="0.43" d="M448.646 -10.7144C454.615 -7.85344 460.266 -4.72561 465.596 -1.34501C470.84 2.12049 475.743 5.83339 480.283 9.80248C489.06 18.0205 496.293 27.1572 501.885 36.9722C506.911 47.0668 510.179 57.622 511.607 68.3183C512.378 79.0461 511.253 89.6569 508.243 99.859C504.648 109.931 499.282 119.506 492.347 128.442C485.215 137.408 476.923 145.964 467.844 154.179C459.32 162.944 450.621 171.823 442.151 180.911C438.393 185.867 434.773 190.954 431.324 196.148C428.242 201.652 425.332 207.278 422.613 212.987C420.238 219.002 418.068 224.916 416.064 230.695C414.304 236.682 412.626 242.45 410.998 247.958C408.049 259.184 404.765 268.89 400.923 276.769C396.656 284.22 391.421 289.522 385.229 292.616C378.234 295.08 370.243 295.475 361.435 294.02C351.844 292.252 341.549 289.058 330.776 284.775C319.292 280.726 307.367 276.053 295.231 271.042C282.382 266.699 269.314 262.288 256.251 257.919C249.479 256.016 242.715 254.12 236.014 252.212C229.184 250.47 222.429 248.687 215.79 246.845C209.073 245.094 202.663 243.276 196.579 241.367C190.482 239.474 184.756 237.438 179.408 235.236C168.814 230.619 159.89 225.073 152.677 218.567C145.765 211.398 140.53 203.108 136.865 193.79C133.429 183.71 131.359 172.625 130.483 160.757C129.624 148.234 129.742 135.058 130.702 121.51C131.542 107.531 133.142 93.3846 135.47 79.3854C137.753 65.2551 140.866 51.4907 144.875 38.4488C146.966 31.9953 149.324 25.7687 151.965 19.7959C154.698 13.9151 157.752 8.32051 161.116 3.04159C164.631 -2.1077 168.403 -6.81645 172.424 -11.0629C176.589 -15.1862 181.003 -18.8755 185.643 -22.136C195.361 -28.3093 205.932 -32.8771 217.125 -35.9838C228.767 -38.8784 240.92 -40.5373 253.372 -41.1277C266.085 -41.8242 279.024 -41.6593 292.012 -40.7819C305.172 -40.2445 318.4 -39.1239 331.573 -37.4597C344.887 -36.2396 358.208 -34.488 371.406 -32.159C384.737 -30.2025 397.969 -27.5286 410.932 -24.0599C417.425 -22.3689 423.852 -20.4315 430.158 -18.2291C436.45 -16.0254 442.624 -13.5286 448.639 -10.7209" stroke="url(#paint10_linear_142_101)" stroke-width="2" stroke-linecap="round" stroke-dasharray="8 3"/>
<path opacity="0.47" d="M449.249 6.65392C460.029 12.7855 469.439 19.7579 477.398 27.4233C484.986 35.3823 491.003 44 495.384 53.0581C499.251 62.3263 501.394 71.8518 501.799 81.3659C501.644 90.9067 499.72 100.253 496.116 109.155C492.052 117.999 486.448 126.37 479.495 134.174C472.445 142.092 464.415 149.68 455.732 156.964C447.549 164.851 439.198 172.838 431.005 180.994C423.868 190.242 417.181 199.918 411.084 209.877C406.094 220.936 401.685 231.487 397.665 241.229C394.058 251.334 390.29 260.075 386.194 267.18C381.82 273.983 376.755 278.848 370.991 281.74C364.601 284.115 357.407 284.581 349.559 283.342C340.995 281.821 331.802 278.927 322.146 274.948C311.799 271.117 301.02 266.598 289.969 261.643C278.25 257.182 266.296 252.519 254.299 247.757C241.721 243.573 229.233 239.254 217.118 234.727C204.708 230.485 193.498 225.921 183.641 220.933C173.874 215.753 165.635 209.83 158.965 203.149C152.566 195.935 147.72 187.793 144.344 178.825C141.209 169.21 139.375 158.755 138.721 147.638C138.133 135.941 138.544 123.696 139.828 111.132C141.074 98.2071 143.117 85.1263 145.926 72.2218C148.74 59.2112 152.393 46.5743 156.908 34.6431C161.651 22.9218 167.422 12.1098 174.307 2.48904C181.678 -6.65562 189.943 -14.0836 198.952 -19.857C208.482 -25.176 218.719 -28.9744 229.501 -31.3709C240.695 -33.531 252.332 -34.5145 264.234 -34.4541C276.418 -34.4388 288.816 -33.5983 301.248 -32.0509C313.89 -30.7602 326.58 -28.8901 339.198 -26.5031C351.975 -24.45 364.707 -21.8944 377.247 -18.7994C389.918 -15.9816 402.404 -12.5326 414.495 -8.36547C426.62 -4.27649 438.287 0.693797 449.242 6.64691" stroke="url(#paint11_linear_142_101)" stroke-width="2" stroke-linecap="round" stroke-dasharray="2 7"/>
<path opacity="0.51" d="M447.356 22.5748C457.016 28.9145 465.287 35.8428 472.113 43.2358C478.592 50.8556 483.53 58.8917 486.874 67.1498C489.776 75.5722 491.037 84.086 490.676 92.4588C489.839 100.866 487.41 109.014 483.477 116.716C479.198 124.419 473.57 131.685 466.79 138.449C459.984 145.409 452.338 152.085 444.133 158.522C436.366 165.558 428.416 172.69 420.549 179.962C413.529 188.234 406.828 196.852 400.545 205.687C395.158 215.518 390.268 224.869 385.771 233.472C381.632 242.465 377.461 250.245 373.123 256.583C368.626 262.728 363.66 267.165 358.204 269.858C352.263 272.139 345.712 272.704 338.632 271.707C330.951 270.454 322.726 267.892 314.07 264.27C304.785 260.737 295.085 256.449 285.114 251.628C274.525 247.166 263.687 242.376 252.806 237.358C241.403 232.775 230.065 227.949 219.062 222.838C207.79 217.966 197.605 212.812 188.645 207.309C179.75 201.667 172.238 195.43 166.144 188.591C160.287 181.342 155.863 173.359 152.791 164.699C149.955 155.523 148.36 145.65 147.909 135.244C147.564 124.37 148.218 113.026 149.759 101.445C151.338 89.5616 153.725 77.5787 156.9 65.7925C160.129 53.9317 164.17 42.4603 169.056 31.6566C174.148 21.085 180.187 11.3715 187.239 2.80355C194.689 -5.31518 202.885 -11.823 211.702 -16.7841C220.966 -21.3001 230.831 -24.3839 241.118 -26.1598C251.794 -27.6642 262.861 -28.0467 274.138 -27.453C285.704 -26.8206 297.448 -25.398 309.235 -23.2926C321.23 -21.3447 333.27 -18.8345 345.187 -15.8287C357.295 -13.0592 369.303 -9.79994 381.054 -6.06036C392.945 -2.51068 404.569 1.59654 415.723 6.30574C426.894 10.9734 437.518 16.38 447.356 22.5748Z" stroke="url(#paint12_linear_142_101)" stroke-width="2" stroke-linecap="round" stroke-dasharray="1 8"/>
<path opacity="0.54" d="M443.277 36.8144C451.832 43.2217 459.017 50.0116 464.792 57.0505C470.267 64.2566 474.252 71.6726 476.746 79.1485C478.855 86.7305 479.435 94.2747 478.541 101.589C477.257 108.937 474.542 115.996 470.523 122.619C466.225 129.291 460.76 135.574 454.312 141.413C447.874 147.496 440.704 153.346 433.046 159.004C425.746 165.244 418.257 171.566 410.783 177.99C403.952 185.32 397.323 192.911 390.989 200.641C385.328 209.265 380.119 217.443 375.257 224.939C370.72 232.828 366.225 239.652 361.694 245.231C357.054 250.717 352.14 254.711 346.9 257.179C341.301 259.343 335.248 259.977 328.803 259.198C321.852 258.202 314.442 255.983 306.683 252.733C298.356 249.516 289.663 245.508 280.729 240.891C271.234 236.528 261.526 231.723 251.771 226.576C241.553 221.747 231.394 216.583 221.546 211.053C211.451 205.727 202.327 200.121 194.295 194.233C186.319 188.251 179.57 181.783 174.094 174.855C168.829 167.626 164.849 159.79 162.128 151.443C159.625 142.689 158.278 133.389 158.02 123.669C157.911 113.583 158.769 103.134 160.519 92.5304C162.343 81.6804 164.992 70.8036 168.426 60.1304C171.948 49.4403 176.261 39.1398 181.373 29.4868C186.682 20.0597 192.861 11.4535 199.947 3.91559C207.368 -3.18583 215.413 -8.79983 223.963 -12.9991C232.869 -16.7662 242.284 -19.1965 252.051 -20.4106C262.146 -21.3462 272.564 -21.2191 283.16 -20.1698C294.022 -19.0354 305.047 -17.1307 316.079 -14.5761C327.334 -12.0918 338.595 -9.0575 349.715 -5.5497C361.011 -2.1898 372.183 1.63147 383.049 5.87601C394.051 10.0031 404.711 14.6199 414.856 19.7321C425.017 24.8322 434.566 30.5148 443.277 36.8144Z" stroke="url(#paint13_linear_142_101)" stroke-width="2" stroke-linecap="round" stroke-dasharray="6 4"/>
<path opacity="0.58" d="M437.401 49.2125C444.867 55.5826 451.029 62.119 455.859 68.7438C460.426 75.4951 463.605 82.2875 465.409 88.9934C466.891 95.7923 466.989 102.438 465.761 108.798C464.227 115.204 461.416 121.29 457.469 126.964C453.322 132.735 448.157 138.159 442.155 143.189C436.16 148.502 429.534 153.621 422.476 158.557C415.693 164.056 408.688 169.616 401.641 175.241C395.09 181.652 388.623 188.247 382.321 194.926C376.549 202.392 371.141 209.427 366.065 215.859C361.237 222.667 356.502 228.562 351.821 233.378C344.631 239.948 328.931 246.242 320.162 245.957C313.811 245.177 307.108 243.265 300.137 240.367C292.683 237.464 284.917 233.76 276.962 229.391C268.51 225.193 259.891 220.471 251.255 215.305C242.215 210.382 233.241 205.031 224.554 199.263C215.651 193.639 207.611 187.743 200.543 181.613C193.504 175.417 187.558 168.845 182.743 161.899C178.104 154.728 174.626 147.103 172.281 139.088C170.129 130.766 169.063 122.039 169.014 113C169.121 103.69 170.161 94.1227 172.075 84.482C174.085 74.6586 176.909 64.8721 180.507 55.3302C184.209 45.8026 188.679 36.6556 193.899 28.1387C199.291 19.8445 205.484 12.3275 212.499 5.80148C219.77 -0.318466 227.565 -5.08264 235.768 -8.55813C244.263 -11.6274 253.171 -13.4718 262.349 -14.2C271.806 -14.633 281.53 -14.0802 291.39 -12.6698C301.481 -11.1253 311.706 -8.85352 321.902 -5.95228C332.318 -3.06395 342.709 0.367891 352.938 4.24277C363.342 8.03799 373.577 12.2679 383.466 16.8818C393.478 21.427 403.131 26.3894 412.219 31.7486C421.312 37.1163 429.784 42.9416 437.401 49.2125Z" stroke="url(#paint14_linear_142_101)" stroke-width="2" stroke-linecap="round" stroke-dasharray="8 10"/>
<path opacity="0.62" d="M430.098 59.7267C436.525 65.9188 441.737 72.1533 445.732 78.3271C449.49 84.5888 451.985 90.7697 453.249 96.7608C454.128 105.735 449.589 122.388 444.475 129.895C440.58 134.879 435.824 139.557 430.326 143.917C424.851 148.54 418.812 152.999 412.367 157.308C406.126 162.121 399.645 166.956 393.075 171.817C386.852 177.355 380.631 183.018 374.487 188.696C368.721 195.044 363.248 200.997 358.067 206.407C353.073 212.171 348.211 217.149 343.433 221.218C336.198 226.833 321.004 232.319 312.822 232.119C306.979 231.486 300.888 229.822 294.598 227.237C287.927 224.625 281.015 221.22 273.971 217.131C266.516 213.148 258.942 208.589 251.393 203.522C243.493 198.608 235.686 193.227 228.151 187.372C220.425 181.625 213.474 175.624 207.38 169.393C201.294 163.135 196.173 156.551 192.054 149.689C188.076 142.691 185.123 135.332 183.191 127.686C181.432 119.839 180.661 111.688 180.831 103.351C181.151 94.8141 182.36 86.1214 184.396 77.4325C186.531 68.6313 189.471 59.9155 193.141 51.4771C196.911 43.0739 201.423 35.0685 206.631 27.6688C211.993 20.4808 218.08 14.0092 224.893 8.45991C231.926 3.28028 239.382 -0.679994 247.16 -3.47858C255.171 -5.90366 263.511 -7.21662 272.052 -7.51871C280.823 -7.53662 289.801 -6.63788 298.866 -4.95099C308.145 -3.109 317.5 -0.563258 326.825 2.56155C336.322 5.72708 345.777 9.4096 355.048 13.5177C364.465 17.6006 373.687 22.0917 382.563 26.9044C391.532 31.6991 400.115 36.8487 408.127 42.3086C416.149 47.786 423.534 53.5994 430.098 59.7267Z" stroke="url(#paint15_linear_142_101)" stroke-width="2" stroke-linecap="round" stroke-dasharray="5 4"/>
<path opacity="0.66" d="M421.77 68.3988C427.215 74.3284 431.547 80.1764 434.791 85.8763C438.811 94.4285 441.04 110.525 439.364 117.893C436.423 125.042 425.972 137.874 418.872 143.674C413.934 147.708 408.493 151.592 402.671 155.326C397.005 159.505 391.071 163.679 384.99 167.823C379.165 172.554 373.258 177.323 367.357 182.057C361.717 187.364 356.308 192.296 351.142 196.737C346.121 201.507 341.213 205.604 336.424 208.925C329.236 213.582 314.545 218.1 306.87 217.876C301.478 217.311 295.927 215.825 290.264 213.496C284.284 211.129 278.158 208.012 271.967 204.219C265.443 200.472 258.861 196.133 252.339 191.245C245.537 186.468 238.845 181.174 232.431 175.394C225.86 169.678 219.969 163.717 214.838 157.539C209.708 151.361 205.415 144.919 202.008 138.267C198.701 131.524 196.308 124.513 194.813 117.32C193.464 109.992 193.005 102.463 193.398 94.8397C193.928 87.0855 195.269 79.2678 197.395 71.5204C199.622 63.7258 202.592 56.0543 206.249 48.6879C210.013 41.382 214.457 34.484 219.551 28.1409C224.757 22.0104 230.637 16.5561 237.163 11.925C243.846 7.62822 250.879 4.41682 258.157 2.23944C265.608 0.401149 273.329 -0.447375 281.196 -0.380303C289.227 -0.0592737 297.424 1.10173 305.664 2.9838C314.075 5.03944 322.526 7.74003 330.921 10.9762C339.454 14.2914 347.917 18.0927 356.189 22.2835C364.577 26.5081 372.752 31.0772 380.571 35.9474C388.462 40.8281 395.962 46.0047 402.916 51.4069C409.864 56.8448 416.204 62.5158 421.77 68.3988Z" stroke="url(#paint16_linear_142_101)" stroke-width="2" stroke-linecap="round" stroke-dasharray="2 7"/>
<path opacity="0.7" d="M412.748 75.3598C419.051 83.645 426.593 99.337 427.848 106.597C427.928 113.651 423.467 126.342 419.182 131.975C414.075 137.511 400.973 147.755 393.355 152.661C388.265 156.258 382.89 159.815 377.342 163.312C371.962 167.268 366.443 171.226 360.866 175.088C355.461 179.419 350.228 183.394 345.191 186.938C337.838 192.384 323.669 200.307 316.701 202.448C309.575 203.747 294.894 202.134 287.267 199.314C281.937 197.155 276.537 194.292 271.142 190.783C265.485 187.291 259.828 183.219 254.279 178.601C248.514 174.034 242.885 168.964 237.541 163.385C232.057 157.861 227.194 152.083 222.993 146.133C218.789 140.174 215.327 134 212.612 127.675C209.982 121.294 208.141 114.735 207.096 108.068C206.157 101.318 206.014 94.4604 206.623 87.5778C207.35 80.6387 208.818 73.7002 210.989 66.8846C213.25 60.0549 216.186 53.4129 219.768 47.0772C223.43 40.8386 227.714 34.9804 232.59 29.6528C237.556 24.5264 243.123 20.0031 249.244 16.2402C255.486 12.7624 262.018 10.2454 268.741 8.63053C275.58 7.3138 282.622 6.87341 289.761 7.23238C297.027 7.83196 304.399 9.17338 311.792 11.1724C319.3 13.3302 326.826 16.0824 334.256 19.3333C341.808 22.6763 349.253 26.4584 356.507 30.6048C363.836 34.8076 370.954 39.3186 377.714 44.0978C384.535 48.8961 390.97 53.9419 396.882 59.1596C402.782 64.4033 408.118 69.8242 412.748 75.3598Z" stroke="url(#paint17_linear_142_101)" stroke-width="2" stroke-linecap="round" stroke-dasharray="4 4"/>
<path opacity="0.73" d="M403.341 80.8173C410.623 91.1298 414.472 100.677 415.16 109.082C415.345 117.623 412.462 125.118 407.047 131.379C401.385 138.125 393.604 144.117 384.383 149.352C375.39 155.794 365.392 162.067 354.915 167.808C344.888 175.033 335.257 180.699 326.196 184.429C317.133 188.558 308.151 190.084 299.443 188.887C290.173 187.571 280.782 183.539 271.67 177.074C261.789 170.628 252.18 162.024 243.599 151.508C234.614 141.107 227.973 129.758 223.863 118.029C219.968 106.213 218.834 93.8832 220.389 81.712C222.29 69.4751 226.763 57.5272 233.549 46.7867C240.6 36.3932 249.866 27.6352 261.092 21.4725C272.616 16.2646 285.053 14.3645 297.735 15.3413C310.736 17.1406 324.029 21.4571 336.884 27.6689C350.048 34.2665 362.754 42.3888 374.179 51.4437C385.71 60.6336 395.753 70.6 403.341 80.8173Z" stroke="url(#paint18_linear_142_101)" stroke-width="2" stroke-linecap="round" stroke-dasharray="5 1"/>
<path opacity="0.77" d="M393.789 85.0165C399.554 94.3236 402.461 102.834 402.738 110.258C402.66 117.786 400.046 124.359 395.337 129.844C390.436 135.733 383.708 140.932 375.704 145.383C367.819 150.772 358.932 155.832 349.45 160.241C340.24 165.767 331.269 169.902 322.796 172.399C314.3 175.281 305.97 176.029 298.024 174.57C289.687 173.059 281.451 169.275 273.694 163.375C265.378 157.462 257.508 149.596 250.735 139.981C243.642 130.442 238.615 120.078 235.759 109.47C233.025 98.8542 232.658 87.9485 234.556 77.3726C236.701 66.8414 241.069 56.7632 247.426 47.8914C253.989 39.3717 262.44 32.3701 272.572 27.6646C282.897 23.7355 293.917 22.6322 305.043 23.9899C316.365 26.0004 327.821 30.1982 338.8 36.0388C349.969 42.2459 360.633 49.8043 370.096 58.1489C379.603 66.6371 387.759 75.7616 393.789 85.0165Z" stroke="url(#paint19_linear_142_101)" stroke-width="2" stroke-linecap="round" stroke-dasharray="9 9"/>
<path opacity="0.81" d="M384.223 88.2111C388.662 96.4169 390.75 103.869 390.719 110.367C390.436 116.937 388.111 122.663 384.063 127.441C379.887 132.555 374.177 137.015 367.343 140.735C360.561 145.146 352.807 149.117 344.445 152.346C336.218 156.403 328.118 159.184 320.438 160.61C312.719 162.367 305.208 162.398 298.14 160.666C290.82 158.944 283.746 155.359 277.28 150.024C270.447 144.678 264.173 137.651 259.002 129.118C253.604 120.621 250.013 111.458 248.249 102.191C246.549 92.9435 246.817 83.5903 248.95 74.6846C251.24 65.8652 255.391 57.5951 261.2 50.4949C267.13 43.6994 274.652 38.2873 283.56 34.869C292.564 32.0431 302.073 31.5869 311.598 33.1644C321.215 35.2535 330.848 39.1841 339.976 44.5031C349.212 50.1186 357.919 56.9038 365.539 64.3614C373.169 71.939 379.596 80.0356 384.223 88.2111Z" stroke="url(#paint20_linear_142_101)" stroke-width="2" stroke-linecap="round" stroke-dasharray="8 2"/>
<path opacity="0.85" d="M374.741 90.6626C378.694 100.858 377.684 117.688 373.266 124.251C369.763 128.594 365.021 132.346 359.321 135.381C353.614 138.898 347.066 141.889 339.907 144.112C332.818 146.891 325.779 148.551 319.081 149.095C312.345 149.884 305.827 149.318 299.769 147.385C293.543 145.488 287.667 142.132 282.451 137.402C277.002 132.653 272.183 126.552 268.421 119.251C264.499 111.954 262.121 104.186 261.248 96.4032C260.398 88.6682 261.138 80.9604 263.368 73.7407C265.687 66.6232 269.495 60.0943 274.625 54.6308C279.818 49.4227 286.283 45.4149 293.844 43.0854C301.445 41.1942 309.39 41.2198 317.271 42.8777C325.175 44.905 333.024 48.4334 340.373 53.0913C347.751 57.9675 354.636 63.8221 360.557 70.2356C366.455 76.7314 371.339 83.6703 374.741 90.6626Z" stroke="url(#paint21_linear_142_101)" stroke-width="2" stroke-linecap="round" stroke-dasharray="3 4"/>
<path opacity="0.89" d="M365.331 92.583C369.736 104.059 368.453 113.636 362.953 120.305C357.184 127.609 347.6 133.087 335.894 135.487C324.226 139.295 312.579 139.003 302.827 134.943C292.669 131.041 283.904 122.69 278.91 110.746C273.495 98.8093 273.311 85.7904 277.594 74.6346C282.024 63.8459 290.981 55.4392 303.232 52.3092C315.505 50.3089 328.604 54.2036 339.895 61.8144C351.177 70.0054 360.576 81.1138 365.331 92.583Z" stroke="url(#paint22_linear_142_101)" stroke-width="2" stroke-linecap="round"/>
<path opacity="0.92" d="M355.967 94.143C358.753 102.926 357.452 110.38 353.15 115.617C348.688 121.217 341.407 125.192 332.49 126.469C323.534 128.515 314.602 127.349 307.237 123.529C299.645 119.837 293.412 113.071 290.301 103.981C286.97 94.8792 287.578 85.3177 291.365 77.4204C295.19 69.7753 302.216 64.1259 311.484 62.4558C320.717 61.4549 330.352 64.73 338.451 70.6502C346.493 76.908 352.971 85.349 355.967 94.143Z" stroke="url(#paint23_linear_142_101)" stroke-width="2" stroke-linecap="round" stroke-dasharray="5 10"/>
<path opacity="0.96" d="M346.548 95.4283C349.442 107.367 341.819 116.42 329.806 117.039C317.64 118.989 305.535 111.527 302.375 99.284C298.818 86.9924 305.953 75.0087 318.385 73.4336C330.671 73.0596 343.277 83.4336 346.548 95.4283Z" stroke="url(#paint24_linear_142_101)" stroke-width="2" stroke-linecap="round" stroke-dasharray="9 5"/>
<defs>
<linearGradient id="paint0_linear_142_101" x1="315.981" y1="-181.635" x2="315.981" y2="417.42" gradientUnits="userSpaceOnUse">
<stop stop-color="#1F89DB"/>
<stop offset="1" stop-color="#F42A8B"/>
</linearGradient>
<linearGradient id="paint1_linear_142_101" x1="335.153" y1="-170.028" x2="294.541" y2="404.983" gradientUnits="userSpaceOnUse">
<stop stop-color="#1F89DB"/>
<stop offset="1" stop-color="#F42A8B"/>
</linearGradient>
<linearGradient id="paint2_linear_142_101" x1="352.699" y1="-157.241" x2="274.864" y2="391.03" gradientUnits="userSpaceOnUse">
<stop stop-color="#1F89DB"/>
<stop offset="1" stop-color="#F42A8B"/>
</linearGradient>
<linearGradient id="paint3_linear_142_101" x1="368.542" y1="-143.445" x2="257.045" y2="375.758" gradientUnits="userSpaceOnUse">
<stop stop-color="#1F89DB"/>
<stop offset="1" stop-color="#F42A8B"/>
</linearGradient>
<linearGradient id="paint4_linear_142_101" x1="382.573" y1="-128.83" x2="241.101" y2="359.393" gradientUnits="userSpaceOnUse">
<stop stop-color="#1F89DB"/>
<stop offset="1" stop-color="#F42A8B"/>
</linearGradient>
<linearGradient id="paint5_linear_142_101" x1="394.77" y1="-113.587" x2="227.109" y2="342.104" gradientUnits="userSpaceOnUse">
<stop stop-color="#1F89DB"/>
<stop offset="1" stop-color="#F42A8B"/>
</linearGradient>
<linearGradient id="paint6_linear_142_101" x1="404.765" y1="-98.0612" x2="214.866" y2="323.695" gradientUnits="userSpaceOnUse">
<stop stop-color="#1F89DB"/>
<stop offset="1" stop-color="#F42A8B"/>
</linearGradient>
<linearGradient id="paint7_linear_142_101" x1="413.562" y1="-81.9928" x2="205.302" y2="305.112" gradientUnits="userSpaceOnUse">
<stop stop-color="#1F89DB"/>
<stop offset="1" stop-color="#F42A8B"/>
</linearGradient>
<linearGradient id="paint8_linear_142_101" x1="420.533" y1="-65.8033" x2="197.639" y2="286.508" gradientUnits="userSpaceOnUse">
<stop stop-color="#1F89DB"/>
<stop offset="1" stop-color="#F42A8B"/>
</linearGradient>
<linearGradient id="paint9_linear_142_101" x1="425.396" y1="-49.8918" x2="191.723" y2="267.519" gradientUnits="userSpaceOnUse">
<stop stop-color="#1F89DB"/>
<stop offset="1" stop-color="#F42A8B"/>
</linearGradient>
<linearGradient id="paint10_linear_142_101" x1="429.02" y1="-33.8407" x2="188.338" y2="248.959" gradientUnits="userSpaceOnUse">
<stop stop-color="#1F89DB"/>
<stop offset="1" stop-color="#F42A8B"/>
</linearGradient>
<linearGradient id="paint11_linear_142_101" x1="430.791" y1="-18.2821" x2="186.837" y2="230.488" gradientUnits="userSpaceOnUse">
<stop stop-color="#1F89DB"/>
<stop offset="1" stop-color="#F42A8B"/>
</linearGradient>
<linearGradient id="paint12_linear_142_101" x1="430.903" y1="-3.3108" x2="187.238" y2="212.417" gradientUnits="userSpaceOnUse">
<stop stop-color="#1F89DB"/>
<stop offset="1" stop-color="#F42A8B"/>
</linearGradient>
<linearGradient id="paint13_linear_142_101" x1="429.488" y1="11.008" x2="189.538" y2="194.995" gradientUnits="userSpaceOnUse">
<stop stop-color="#1F89DB"/>
<stop offset="1" stop-color="#F42A8B"/>
</linearGradient>
<linearGradient id="paint14_linear_142_101" x1="426.42" y1="24.1552" x2="193.4" y2="178.037" gradientUnits="userSpaceOnUse">
<stop stop-color="#1F89DB"/>
<stop offset="1" stop-color="#F42A8B"/>
</linearGradient>
<linearGradient id="paint15_linear_142_101" x1="422.357" y1="36.7853" x2="199.266" y2="162.491" gradientUnits="userSpaceOnUse">
<stop stop-color="#1F89DB"/>
<stop offset="1" stop-color="#F42A8B"/>
</linearGradient>
<linearGradient id="paint16_linear_142_101" x1="417.057" y1="48.4606" x2="206.692" y2="148.169" gradientUnits="userSpaceOnUse">
<stop stop-color="#1F89DB"/>
<stop offset="1" stop-color="#F42A8B"/>
</linearGradient>
<linearGradient id="paint17_linear_142_101" x1="410.077" y1="59.396" x2="215.574" y2="135.308" gradientUnits="userSpaceOnUse">
<stop stop-color="#1F89DB"/>
<stop offset="1" stop-color="#F42A8B"/>
</linearGradient>
<linearGradient id="paint18_linear_142_101" x1="403.582" y1="68.7213" x2="225.724" y2="124.05" gradientUnits="userSpaceOnUse">
<stop stop-color="#1F89DB"/>
<stop offset="1" stop-color="#F42A8B"/>
</linearGradient>
<linearGradient id="paint19_linear_142_101" x1="395.553" y1="76.8579" x2="236.854" y2="114.197" gradientUnits="userSpaceOnUse">
<stop stop-color="#1F89DB"/>
<stop offset="1" stop-color="#F42A8B"/>
</linearGradient>
<linearGradient id="paint20_linear_142_101" x1="386.853" y1="83.7625" x2="248.868" y2="106.111" gradientUnits="userSpaceOnUse">
<stop stop-color="#1F89DB"/>
<stop offset="1" stop-color="#F42A8B"/>
</linearGradient>
<linearGradient id="paint21_linear_142_101" x1="375.95" y1="89.5402" x2="261.55" y2="99.8709" gradientUnits="userSpaceOnUse">
<stop stop-color="#1F89DB"/>
<stop offset="1" stop-color="#F42A8B"/>
</linearGradient>
<linearGradient id="paint22_linear_142_101" x1="367.759" y1="93.9435" x2="274.678" y2="95.7633" gradientUnits="userSpaceOnUse">
<stop stop-color="#1F89DB"/>
<stop offset="1" stop-color="#F42A8B"/>
</linearGradient>
<linearGradient id="paint23_linear_142_101" x1="357.784" y1="96.8392" x2="288.009" y2="93.2802" gradientUnits="userSpaceOnUse">
<stop stop-color="#1F89DB"/>
<stop offset="1" stop-color="#F42A8B"/>
</linearGradient>
<linearGradient id="paint24_linear_142_101" x1="347.533" y1="98.4527" x2="301.319" y2="92.8111" gradientUnits="userSpaceOnUse">
<stop stop-color="#1F89DB"/>
<stop offset="1" stop-color="#F42A8B"/>
</linearGradient>
</defs>
</svg>
