<svg width="44" height="44" viewBox="0 0 44 44" fill="none" xmlns="http://www.w3.org/2000/svg">
<g clip-path="url(#clip0_373_136)">
<g filter="url(#filter0_d_373_136)">
<circle cx="22" cy="22" r="21.5" stroke="white" shape-rendering="crispEdges"/>
</g>
<g clip-path="url(#clip1_373_136)">
<path d="M31.275 17.0896C31.1705 16.6719 30.9576 16.2893 30.6579 15.9802C30.3581 15.6712 29.9821 15.4468 29.5678 15.3296C28.0542 14.96 21.9998 14.96 21.9998 14.96C21.9998 14.96 15.9454 14.96 14.4318 15.3648C14.0176 15.482 13.6416 15.7064 13.3418 16.0154C13.0421 16.3245 12.8292 16.7071 12.7246 17.1248C12.4476 18.6608 12.3121 20.2191 12.3198 21.78C12.31 23.3526 12.4455 24.9227 12.7246 26.4704C12.8399 26.875 13.0575 27.2431 13.3566 27.5391C13.6557 27.8351 14.026 28.0489 14.4318 28.16C15.9454 28.5648 21.9998 28.5648 21.9998 28.5648C21.9998 28.5648 28.0542 28.5648 29.5678 28.16C29.9821 28.0428 30.3581 27.8183 30.6579 27.5093C30.9576 27.2003 31.1705 26.8176 31.275 26.4C31.5499 24.8754 31.6854 23.3291 31.6798 21.78C31.6897 20.2074 31.5542 18.6372 31.275 17.0896V17.0896Z" stroke="white" stroke-width="2" stroke-linecap="round" stroke-linejoin="round"/>
<path d="M20.02 24.6575L25.08 21.7799L20.02 18.9023V24.6575Z" stroke="white" stroke-width="2" stroke-linecap="round" stroke-linejoin="round"/>
</g>
</g>
<defs>
<filter id="filter0_d_373_136" x="-7" y="-7" width="58" height="58" filterUnits="userSpaceOnUse" color-interpolation-filters="sRGB">
<feFlood flood-opacity="0" result="BackgroundImageFix"/>
<feColorMatrix in="SourceAlpha" type="matrix" values="0 0 0 0 0 0 0 0 0 0 0 0 0 0 0 0 0 0 127 0" result="hardAlpha"/>
<feMorphology radius="3" operator="dilate" in="SourceAlpha" result="effect1_dropShadow_373_136"/>
<feOffset/>
<feGaussianBlur stdDeviation="2"/>
<feComposite in2="hardAlpha" operator="out"/>
<feColorMatrix type="matrix" values="0 0 0 0 1 0 0 0 0 1 0 0 0 0 1 0 0 0 0.25 0"/>
<feBlend mode="normal" in2="BackgroundImageFix" result="effect1_dropShadow_373_136"/>
<feBlend mode="normal" in="SourceGraphic" in2="effect1_dropShadow_373_136" result="shape"/>
</filter>
<clipPath id="clip0_373_136">
<rect width="44" height="44" fill="white"/>
</clipPath>
<clipPath id="clip1_373_136">
<rect width="21.12" height="21.12" fill="white" transform="translate(11.4399 11.4399)"/>
</clipPath>
</defs>
</svg>
